<svg width="104" height="136" viewBox="0 0 104 136" fill="none" xmlns="http://www.w3.org/2000/svg">
<path d="M0 54.2609V128.87C0 132.616 3.03668 135.652 6.78261 135.652H97.2174C100.963 135.652 104 132.616 104 128.87V54.2609C104 50.5149 100.963 47.4783 97.2174 47.4783H6.78261C3.03668 47.4783 0 50.5149 0 54.2609ZM99.4783 54.2609V128.87C99.4783 130.118 98.466 131.13 97.2174 131.13H6.78261C5.53396 131.13 4.52174 130.118 4.52174 128.87V54.2609C4.52174 53.0122 5.53396 52 6.78261 52H97.2174C98.466 52 99.4783 53.0122 99.4783 54.2609Z" fill="#7AC1F4"/>
<path d="M30.3329 1.325C28.5672 -0.440203 25.7049 -0.440203 23.9392 1.325L8.1131 17.1511C6.82088 18.4437 6.43392 20.3871 7.13247 22.0761C7.83103 23.7651 9.4777 24.8675 11.3054 24.8697H15.8272V38.4349C15.8272 40.9322 17.8516 42.9567 20.3489 42.9567H33.9141C36.4114 42.9567 38.4359 40.9322 38.4359 38.4349V24.8697H42.9576C44.7862 24.8693 46.4345 23.7676 47.1343 22.0782C47.834 20.3888 47.4473 18.4443 46.1545 17.1511L30.3329 1.325ZM42.9735 20.348H36.175C34.9264 20.348 33.9141 21.3602 33.9141 22.6088V38.4349H20.3489V22.6088C20.3489 21.3602 19.3367 20.348 18.0881 20.348H11.3054L27.1315 4.52187L42.9689 20.348H42.9735Z" fill="#7AC1F4"/>
<path d="M83.653 0H70.0878C67.5905 0 65.5661 2.02445 65.5661 4.52174V18.087H61.0443C59.2158 18.0873 57.5674 19.189 56.8677 20.8784C56.168 22.5678 56.5547 24.5124 57.8475 25.8056L73.6736 41.6317C75.4393 43.3969 78.3016 43.3969 80.0673 41.6317L95.8934 25.8056C97.1862 24.5124 97.5729 22.5678 96.8731 20.8784C96.1734 19.189 94.5251 18.0873 92.6965 18.087H88.1748V4.52174C88.1748 2.02445 86.1503 0 83.653 0V0ZM92.6965 22.6087L76.8704 38.4348L61.0443 22.6087H67.827C69.0756 22.6087 70.0878 21.5965 70.0878 20.3478V4.52174H83.653V20.3478C83.653 21.5965 84.6653 22.6087 85.9139 22.6087H92.6965Z" fill="#7AC1F4"/>
<path d="M15.8256 99.4782C16.5975 99.4708 17.3624 99.33 18.0864 99.0623V122.087C18.105 125.825 21.1308 128.851 24.8691 128.87C26.5441 128.863 28.1563 128.231 29.3908 127.099C30.6204 128.239 32.2358 128.872 33.9125 128.87C37.6585 128.87 40.6951 125.833 40.6951 122.087V99.0623C41.4192 99.33 42.1841 99.4708 42.956 99.4782C46.7019 99.4782 49.7386 96.4416 49.7386 92.6956V83.6522C49.7416 80.6531 48.5516 77.7761 46.431 75.6555C44.3103 73.5348 41.4333 72.3448 38.4343 72.3478H38.3755C39.8717 70.4026 40.6868 68.0193 40.6951 65.5652C40.6951 59.322 35.634 54.2609 29.3908 54.2609C23.1476 54.2609 18.0864 59.322 18.0864 65.5652C18.0948 68.0193 18.9098 70.4026 20.4061 72.3478H20.3473C14.1072 72.3553 9.05044 77.412 9.04297 83.6522V92.6956C9.04297 96.4416 12.0796 99.4782 15.8256 99.4782ZM22.6082 65.5652C22.6082 61.8193 25.6449 58.7826 29.3908 58.7826C33.1367 58.7826 36.1734 61.8193 36.1734 65.5652C36.1734 69.3111 33.1367 72.3478 29.3908 72.3478C25.6449 72.3478 22.6082 69.3111 22.6082 65.5652ZM13.5647 83.6522C13.5647 79.9062 16.6014 76.8696 20.3473 76.8696H38.4343C40.2342 76.8659 41.9615 77.5794 43.2343 78.8521C44.5071 80.1249 45.2205 81.8522 45.2169 83.6522V92.6956C45.2169 93.9443 44.2047 94.9565 42.956 94.9565C41.7074 94.9565 40.6951 93.9443 40.6951 92.6956V83.6522C40.6951 82.4035 39.6829 81.3913 38.4343 81.3913C37.1856 81.3913 36.1734 82.4035 36.1734 83.6522V122.087C36.1734 123.336 35.1612 124.348 33.9125 124.348C33.3034 124.35 32.7206 124.099 32.3028 123.656C31.8809 123.244 31.6457 122.677 31.6517 122.087V99.4782C31.6517 98.2296 30.6394 97.2174 29.3908 97.2174C28.1422 97.2174 27.1299 98.2296 27.1299 99.4782V122.087C27.1299 123.336 26.1177 124.348 24.8691 124.348C24.2599 124.35 23.6771 124.099 23.2593 123.656C22.8374 123.244 22.6022 122.677 22.6082 122.087V83.6522C22.6082 82.4035 21.596 81.3913 20.3473 81.3913C19.0987 81.3913 18.0864 82.4035 18.0864 83.6522V92.6956C18.0864 93.9443 17.0742 94.9565 15.8256 94.9565C14.5769 94.9565 13.5647 93.9443 13.5647 92.6956V83.6522Z" fill="#7AC1F4"/>
<path d="M61.0443 99.4782C61.8163 99.4708 62.5811 99.33 63.3052 99.0623V122.087C63.3237 125.825 66.3496 128.851 70.0878 128.87C71.7628 128.863 73.3751 128.231 74.6095 127.099C75.8391 128.239 77.4545 128.872 79.1313 128.87C82.8772 128.87 85.9139 125.833 85.9139 122.087V99.0623C86.638 99.33 87.4028 99.4708 88.1748 99.4782C91.9207 99.4782 94.9574 96.4416 94.9574 92.6956V83.6522C94.9604 80.6531 93.7704 77.7761 91.6497 75.6555C89.5291 73.5348 86.652 72.3448 83.653 72.3478H83.5942C85.0905 70.4026 85.9056 68.0193 85.9139 65.5652C85.9139 59.322 80.8528 54.2609 74.6095 54.2609C68.3663 54.2609 63.3052 59.322 63.3052 65.5652C63.3135 68.0193 64.1286 70.4026 65.6248 72.3478H65.5661C59.3259 72.3553 54.2692 77.412 54.2617 83.6522V92.6956C54.2617 96.4416 57.2984 99.4782 61.0443 99.4782ZM67.8269 65.5652C67.8269 61.8193 70.8636 58.7826 74.6095 58.7826C78.3555 58.7826 81.3922 61.8193 81.3922 65.5652C81.3922 69.3111 78.3555 72.3478 74.6095 72.3478C70.8636 72.3478 67.8269 69.3111 67.8269 65.5652ZM58.7835 83.6522C58.7835 79.9062 61.8201 76.8696 65.5661 76.8696H83.653C85.453 76.8659 87.1803 77.5794 88.453 78.8521C89.7258 80.1249 90.4392 81.8522 90.4356 83.6522V92.6956C90.4356 93.9443 89.4234 94.9565 88.1748 94.9565C86.9261 94.9565 85.9139 93.9443 85.9139 92.6956V83.6522C85.9139 82.4035 84.9017 81.3913 83.653 81.3913C82.4044 81.3913 81.3922 82.4035 81.3922 83.6522V122.087C81.3922 123.336 80.3799 124.348 79.1313 124.348C78.5221 124.35 77.9393 124.099 77.5215 123.656C77.0997 123.244 76.8645 122.677 76.8704 122.087V99.4782C76.8704 98.2296 75.8582 97.2174 74.6095 97.2174C73.3609 97.2174 72.3487 98.2296 72.3487 99.4782V122.087C72.3487 123.336 71.3364 124.348 70.0878 124.348C69.4786 124.35 68.8959 124.099 68.4781 123.656C68.0562 123.244 67.821 122.677 67.8269 122.087V83.6522C67.8269 82.4035 66.8147 81.3913 65.5661 81.3913C64.3174 81.3913 63.3052 82.4035 63.3052 83.6522V92.6956C63.3052 93.9443 62.293 94.9565 61.0443 94.9565C59.7957 94.9565 58.7835 93.9443 58.7835 92.6956V83.6522Z" fill="#7AC1F4"/>
</svg>
