<svg width="117" height="117" viewBox="0 0 117 117" fill="none" xmlns="http://www.w3.org/2000/svg">
<path d="M116.785 27.7247C116.382 26.2272 115.399 24.9506 114.055 24.1766C112.71 23.3988 111.111 23.1884 109.61 23.5911C108.112 23.9948 106.835 24.9763 106.061 26.3205L105.087 28.0169C104.16 27.4848 102.977 27.798 102.435 28.7195L97.4831 37.1607L95.7867 36.1859C95.3373 35.926 94.8023 35.8555 94.3016 35.9907C93.7999 36.1269 93.3734 36.4563 93.1154 36.9075C92.587 37.8395 92.9088 39.0238 93.837 39.5588L95.5334 40.5336L78.9613 69.2521L74.8668 80.1904L72.9171 83.8356C71.7757 85.8214 71.8976 88.2899 73.2294 90.1529L68.8426 95.5335L67.6146 92.4539C67.0605 91.0811 65.7782 90.1405 64.3036 90.0254C62.828 89.9092 61.4143 90.6384 60.6537 91.9074L59.9521 93.0965L59.2895 85.2978C59.1372 83.4529 57.7082 81.9697 55.8709 81.7469C54.0326 81.5251 52.2924 82.6265 51.705 84.382L46.9089 98.7703C46.5738 99.7879 47.1222 100.885 48.137 101.227C48.3274 101.316 48.5321 101.369 48.7415 101.383C49.5792 101.385 50.3256 100.851 50.5941 100.057L55.3702 85.6691L56.0527 93.5839C56.1936 95.2727 57.4074 96.6769 59.0582 97.0596C60.7089 97.4423 62.4168 96.7149 63.2859 95.2613L64.0075 94.0713L65.2165 97.1329C65.7297 98.4228 66.8901 99.3434 68.2638 99.548C69.6376 99.7527 71.016 99.211 71.8842 98.1267L76.4271 92.3758C76.9297 92.5072 77.4476 92.5729 77.9674 92.571C80.057 92.5871 81.9972 91.4866 83.0558 89.6845L85.0054 86.4288L92.4338 77.402L109.181 48.3323L110.878 49.3071C111.33 49.566 111.659 49.9935 111.793 50.4971C111.928 50.9969 111.858 51.53 111.599 51.9784L103.8 65.4899C103.506 65.9335 103.406 66.478 103.524 66.9978C103.642 67.5166 103.967 67.965 104.424 68.2382C104.873 68.4991 105.408 68.5695 105.909 68.4344C106.411 68.2982 106.837 67.9688 107.095 67.5176L114.894 54.0061C115.672 52.6609 115.882 51.0616 115.478 49.5613C115.075 48.0628 114.093 46.7862 112.749 46.0123L111.053 45.0374L115.927 36.5952C116.459 35.669 116.146 34.4866 115.225 33.944L116.2 32.2475C116.999 30.8814 117.21 29.2497 116.785 27.7247ZM109.434 28.2701C109.692 27.8189 110.121 27.4886 110.624 27.3543C111.125 27.2306 111.654 27.3001 112.106 27.5495C112.558 27.8075 112.887 28.2359 113.022 28.7385C113.146 29.2393 113.077 29.7686 112.827 30.2198L111.852 31.9162L108.459 29.9666L109.434 28.2701ZM82.8606 82.7055L81.8858 82.1401L79.0003 80.4627L81.7687 73.0543L87.9099 76.6024L82.8606 82.7055ZM77.0116 88.3394C76.1882 87.7653 75.9349 86.661 76.4271 85.7852L77.4019 84.0897L80.7939 86.0394L79.819 87.7158C79.5458 88.1899 79.0869 88.5269 78.5529 88.6459C78.0188 88.764 77.46 88.6535 77.0116 88.3394ZM90.1328 73.4056L83.3871 69.5063L98.9844 42.4833L105.73 46.3826L90.1328 73.4056ZM107.68 43.0097L100.934 39.1104L104.833 32.3646L111.579 36.264L107.68 43.0097Z" fill="#7AC1F4"/>
<path d="M30.765 87.3645L23.864 94.2474L19.7305 90.1139C18.9699 89.358 17.7418 89.358 16.9812 90.1139C16.6118 90.4804 16.4043 90.9783 16.4043 91.498C16.4043 92.0178 16.6118 92.5167 16.9812 92.8822L21.1147 97.0157C21.8458 97.7412 22.834 98.1477 23.864 98.1467C24.8998 98.1524 25.8965 97.7459 26.6324 97.0157L33.5143 90.1139C34.1769 89.3399 34.1321 88.187 33.4124 87.4673C32.6918 86.7467 31.5389 86.702 30.765 87.3645Z" fill="#7AC1F4"/>
<path d="M7.79883 92.609C7.79883 101.762 15.2186 109.181 24.371 109.181C33.5233 109.181 40.9431 101.762 40.9431 92.609C40.9431 91.5323 40.0701 90.6593 38.9934 90.6593C37.9168 90.6593 37.0438 91.5323 37.0438 92.609C37.0438 99.608 31.37 105.282 24.371 105.282C17.372 105.282 11.6982 99.608 11.6982 92.609C11.6982 85.61 17.372 79.9361 24.371 79.9361C27.1146 79.9285 29.7849 80.8186 31.9745 82.4713C32.836 83.1177 34.0584 82.9425 34.7038 82.081C35.3502 81.2194 35.176 79.998 34.3144 79.3516C29.2927 75.5856 22.5736 74.9801 16.9598 77.7866C11.345 80.594 7.79883 86.3325 7.79883 92.609Z" fill="#7AC1F4"/>
<path d="M70.1878 15.5973C71.2645 15.5973 72.1375 14.7253 72.1375 13.6477C72.1375 12.571 71.2645 11.698 70.1878 11.698H19.4965C18.4198 11.698 17.5469 12.571 17.5469 13.6477V21.4463C17.5469 22.524 18.4198 23.396 19.4965 23.396H70.1878C71.2645 23.396 72.1375 22.524 72.1375 21.4463C72.1375 20.3696 71.2645 19.4967 70.1878 19.4967H21.4462V15.5973H70.1878Z" fill="#7AC1F4"/>
<path d="M25.3461 27.2953C24.2695 27.2953 23.3965 28.1683 23.3965 29.245C23.3965 30.3226 24.2695 31.1946 25.3461 31.1946H64.3394C65.4161 31.1946 66.2891 30.3226 66.2891 29.245C66.2891 28.1683 65.4161 27.2953 64.3394 27.2953H25.3461Z" fill="#7AC1F4"/>
<path d="M76.0376 40.9429H33.145C32.0683 40.9429 31.1953 41.8158 31.1953 42.8925C31.1953 43.9702 32.0683 44.8422 33.145 44.8422H76.0376C77.1143 44.8422 77.9872 43.9702 77.9872 42.8925C77.9872 41.8158 77.1143 40.9429 76.0376 40.9429Z" fill="#7AC1F4"/>
<path d="M56.541 54.5907C56.541 53.514 55.6681 52.641 54.5914 52.641H15.5981C14.5214 52.641 13.6484 53.514 13.6484 54.5907C13.6484 55.6683 14.5214 56.5403 15.5981 56.5403H54.5914C55.6681 56.5403 56.541 55.6683 56.541 54.5907Z" fill="#7AC1F4"/>
<path d="M76.0368 52.641H62.3891C61.3124 52.641 60.4395 53.514 60.4395 54.5907C60.4395 55.6683 61.3124 56.5403 62.3891 56.5403H76.0368C77.1135 56.5403 77.9864 55.6683 77.9864 54.5907C77.9864 53.514 77.1135 52.641 76.0368 52.641Z" fill="#7AC1F4"/>
<path d="M35.0947 66.2886C36.1714 66.2886 37.0444 65.4166 37.0444 64.3389C37.0444 63.2623 36.1714 62.3893 35.0947 62.3893H15.5981C14.5214 62.3893 13.6484 63.2623 13.6484 64.3389C13.6484 65.4166 14.5214 66.2886 15.5981 66.2886H35.0947Z" fill="#7AC1F4"/>
<path d="M42.893 66.2886H56.5407C57.6174 66.2886 58.4903 65.4166 58.4903 64.3389C58.4903 63.2623 57.6174 62.3893 56.5407 62.3893H42.893C41.8163 62.3893 40.9434 63.2623 40.9434 64.3389C40.9434 65.4166 41.8163 66.2886 42.893 66.2886Z" fill="#7AC1F4"/>
<path d="M87.7349 89.6845C86.6582 89.6845 85.7852 90.5575 85.7852 91.6342V111.131C85.7852 112.208 84.9122 113.08 83.8355 113.08H5.84899C4.7723 113.08 3.89933 112.208 3.89933 111.131V5.84899C3.89933 4.7723 4.7723 3.89933 5.84899 3.89933H83.8355C84.9122 3.89933 85.7852 4.7723 85.7852 5.84899V42.4642C85.7852 43.5409 86.6582 44.4139 87.7349 44.4139C88.8116 44.4139 89.6845 43.5409 89.6845 42.4642V5.84899C89.6845 2.61891 87.0656 0 83.8355 0H5.84899C2.61891 0 0 2.61891 0 5.84899V111.131C0 114.362 2.61891 116.98 5.84899 116.98H83.8355C87.0656 116.98 89.6845 114.362 89.6845 111.131V91.6342C89.6845 90.5575 88.8116 89.6845 87.7349 89.6845Z" fill="#7AC1F4"/>
</svg>
