<svg width="96" height="146" viewBox="0 0 96 146" fill="none" xmlns="http://www.w3.org/2000/svg">
<path d="M88.561 27.918H6.81183C5.55607 27.918 4.54102 28.933 4.54102 30.1888V143.729C4.54102 144.985 5.55607 146 6.81183 146C8.06758 146 9.08263 144.985 9.08263 143.729V32.4596H86.2902V143.729C86.2902 144.985 87.3052 146 88.561 146C89.8167 146 90.8318 144.985 90.8318 143.729V30.1888C90.8318 28.933 89.8167 27.918 88.561 27.918Z" fill="white"/>
<path d="M81.7486 34.7303H13.6243C12.3686 34.7303 11.3535 35.7454 11.3535 37.0012V143.729C11.3535 144.985 12.3686 146 13.6243 146C14.8801 146 15.8951 144.985 15.8951 143.729V39.272H79.4778V143.729C79.4778 144.985 80.4929 146 81.7486 146C83.0044 146 84.0194 144.985 84.0194 143.729V37.0012C84.0194 35.7454 83.0044 34.7303 81.7486 34.7303Z" fill="white"/>
<path d="M47.6868 34.7303C46.4311 34.7303 45.416 35.7454 45.416 37.0012V143.729C45.416 144.985 46.4311 146 47.6868 146C48.9426 146 49.9576 144.985 49.9576 143.729V37.0012C49.9576 35.7454 48.9426 34.7303 47.6868 34.7303Z" fill="white"/>
<path d="M93.1032 141.458H2.27081C1.01505 141.458 0 142.473 0 143.729C0 144.985 1.01505 146 2.27081 146H93.1032C94.359 146 95.374 144.985 95.374 143.729C95.374 142.473 94.359 141.458 93.1032 141.458Z" fill="white"/>
<path d="M47.6873 0.668213C36.4173 0.668213 27.25 9.83547 27.25 21.1055C27.25 22.3613 28.2651 23.3763 29.5208 23.3763C30.7766 23.3763 31.7916 22.3613 31.7916 21.1055C31.7916 12.3424 38.9242 5.20983 47.6873 5.20983C56.4503 5.20983 63.583 12.3424 63.583 21.1055C63.583 22.3613 64.598 23.3763 65.8538 23.3763C67.1095 23.3763 68.1246 22.3613 68.1246 21.1055C68.1246 9.83547 58.9573 0.668213 47.6873 0.668213Z" fill="white"/>
<path d="M65.8538 18.8347H29.5208C28.2651 18.8347 27.25 19.8498 27.25 21.1055C27.25 22.3613 28.2651 23.3763 29.5208 23.3763H65.8538C67.1095 23.3763 68.1246 22.3613 68.1246 21.1055C68.1246 19.8498 67.1095 18.8347 65.8538 18.8347Z" fill="white"/>
<path d="M47.6868 9.75146C46.4311 9.75146 45.416 10.7665 45.416 12.0223V21.1055C45.416 22.3613 46.4311 23.3763 47.6868 23.3763C48.9426 23.3763 49.9576 22.3613 49.9576 21.1055V12.0223C49.9576 10.7665 48.9426 9.75146 47.6868 9.75146Z" fill="white"/>
</svg>
