<svg width="97" height="116" viewBox="0 0 97 116" fill="none" xmlns="http://www.w3.org/2000/svg">
<path d="M81.7248 84.0822L63.4231 78.8078V74.2307C64.7469 73.209 65.9931 72.0906 67.1515 70.8846H73.6827C75.4137 70.8827 77.0732 70.1942 78.2972 68.9702C79.5211 67.7463 80.2096 66.0867 80.2115 64.3558V59.6923H81.1442C82.8752 59.6904 84.5347 59.0019 85.7587 57.7779C86.9827 56.554 87.6712 54.8944 87.6731 53.1635V43.8365C87.6712 42.1056 86.9827 40.446 85.7587 39.2221C84.5347 37.9981 82.8752 37.3096 81.1442 37.3077H80.2115V31.7115C80.2115 14.2259 65.9856 0 48.5 0C31.0144 0 16.7885 14.2259 16.7885 31.7115V37.3077H15.8558C14.1248 37.3096 12.4653 37.9981 11.2413 39.2221C10.0173 40.446 9.32884 42.1056 9.32692 43.8365V53.1635C9.32884 54.8944 10.0173 56.554 11.2413 57.7779C12.4653 59.0019 14.1248 59.6904 15.8558 59.6923H16.7885C16.7885 60.187 16.985 60.6615 17.3348 61.0113C17.6846 61.3612 18.1591 61.5577 18.6538 61.5577H23.7953C25.705 66.5826 29.3588 70.9732 33.5769 74.2307V78.8078L15.2752 84.0822C10.8976 85.2406 7.02604 87.814 4.26326 91.4017C1.50047 94.9895 0.00157967 99.39 0 103.918V113.788C0 114.283 0.196531 114.758 0.546359 115.107C0.896186 115.457 1.37065 115.654 1.86538 115.654H95.1346C95.6293 115.654 96.1038 115.457 96.4536 115.107C96.8035 114.758 97 114.283 97 113.788V103.918C96.9984 99.39 95.4995 94.9895 92.7367 91.4017C89.974 87.814 86.1023 85.2406 81.7248 84.0822ZM80.2115 41.0385H81.1442C81.8861 41.0391 82.5975 41.3341 83.1221 41.8587C83.6467 42.3833 83.9417 43.0946 83.9423 43.8365V53.1635C83.9417 53.9054 83.6467 54.6167 83.1221 55.1413C82.5975 55.6659 81.8861 55.9609 81.1442 55.9615H80.2115V41.0385ZM16.7885 55.9615H15.8558C15.1139 55.9609 14.4025 55.6659 13.8779 55.1413C13.3533 54.6167 13.0583 53.9054 13.0577 53.1635V43.8365C13.0583 43.0946 13.3533 42.3833 13.8779 41.8587C14.4025 41.3341 15.1139 41.0391 15.8558 41.0385H16.7885V55.9615ZM66.7061 83.6368L59.0138 98.2591L51.4753 94.5657L62.1803 82.3334L66.7061 83.6368ZM48.5 92.3016L37.3077 79.5097V76.7373C41.1271 78.9477 45.1097 80.2115 48.5 80.2115C51.8903 80.2115 55.8729 78.9477 59.6923 76.7373V79.5097L48.5 92.3016ZM76.4808 64.3558C76.4801 65.0977 76.1852 65.809 75.6605 66.3336C75.1359 66.8582 74.4246 67.1532 73.6827 67.1538H70.2201C71.4397 65.4173 72.442 63.5379 73.2047 61.5577H76.4808V64.3558ZM70.8846 38.0795C66.9393 36.7813 63.5467 34.1912 61.2546 30.7275C60.9865 30.3319 60.577 30.0541 60.1102 29.9513C59.6435 29.8485 59.1551 29.9285 58.7456 30.1749C58.6034 30.2589 44.8835 38.3966 26.1154 38.9143V31.7115C26.1154 25.7748 28.4738 20.0812 32.6717 15.8832C36.8696 11.6853 42.5632 9.32692 48.5 9.32692C54.4368 9.32692 60.1304 11.6853 64.3283 15.8832C68.5262 20.0812 70.8846 25.7748 70.8846 31.7115V38.0795ZM76.4808 57.8269H74.6154V39.1731H76.4808V57.8269ZM22.3846 57.8269H20.5192V39.1731H22.3846V57.8269ZM22.3846 31.7115V35.4423H20.5192V31.7115C20.5192 24.2906 23.4672 17.1736 28.7146 11.9261C33.962 6.67873 41.079 3.73077 48.5 3.73077C55.921 3.73077 63.038 6.67873 68.2854 11.9261C73.5328 17.1736 76.4808 24.2906 76.4808 31.7115V35.4423H74.6154V31.7115C74.6154 24.7853 71.8639 18.1428 66.9664 13.2452C62.0688 8.34759 55.4262 5.59615 48.5 5.59615C41.5738 5.59615 34.9312 8.34759 30.0336 13.2452C25.1361 18.1428 22.3846 24.7853 22.3846 31.7115ZM26.1154 54.0962V42.645C42.4981 42.2253 54.9892 36.417 59.1747 34.2042C62.1216 38.0033 66.2364 40.7276 70.8846 41.9572V54.0962C70.8846 56.8383 70.1198 61.8538 65.538 67.1538H57.8269C57.3322 67.1538 56.8577 67.3504 56.5079 67.7002C56.1581 68.05 55.9615 68.5245 55.9615 69.0192C55.9615 69.514 56.1581 69.9884 56.5079 70.3383C56.8577 70.6881 57.3322 70.8846 57.8269 70.8846H61.6626C57.4002 74.3169 52.3683 76.4808 48.5 76.4808C44.2586 76.4808 38.6135 73.8786 34.1225 69.854C27.1553 63.6096 26.1154 57.3023 26.1154 54.0962ZM34.8197 82.3334L45.5061 94.547L38.1075 98.2451L30.4058 83.6042L34.8197 82.3334ZM41.5584 111.923H16.7885V106.327C16.7885 105.832 16.5919 105.358 16.2421 105.008C15.8923 104.658 15.4178 104.462 14.9231 104.462C14.4283 104.462 13.9539 104.658 13.6041 105.008C13.2542 105.358 13.0577 105.832 13.0577 106.327V111.923H3.73077V103.918C3.73235 100.211 4.96077 96.6076 7.22447 93.6711C9.48818 90.7347 12.6599 88.6298 16.2452 87.6847C16.2596 87.6798 16.2744 87.6759 16.2895 87.6731L26.745 84.6605L35.6568 101.598C35.8842 102.03 36.2716 102.356 36.7361 102.506C37.2007 102.656 37.7055 102.618 38.1425 102.4L39.4575 101.74L42.7546 108.335L41.5584 111.923ZM45.4921 111.923L46.1146 110.058H50.939L51.6385 111.923H45.4921ZM51.0789 106.327H45.9211L42.7943 100.073L48.4557 97.2425L54.2104 100.059L51.0789 106.327ZM93.2692 111.923H83.9423V106.327C83.9423 105.832 83.7458 105.358 83.396 105.008C83.0461 104.658 82.5717 104.462 82.0769 104.462C81.5822 104.462 81.1077 104.658 80.7579 105.008C80.4081 105.358 80.2115 105.832 80.2115 106.327V111.923H55.6211L54.264 108.3L57.5611 101.701L58.9998 102.405C59.2542 102.531 59.5343 102.596 59.8182 102.596C60.1586 102.596 60.4926 102.504 60.784 102.328C61.0754 102.152 61.3131 101.9 61.4714 101.598L70.367 84.6908L80.7105 87.6731C80.7256 87.6759 80.7404 87.6798 80.7548 87.6847C84.3401 88.6298 87.5118 90.7347 89.7755 93.6711C92.0392 96.6076 93.2676 100.211 93.2692 103.918V111.923Z" fill="#7AC1F4"/>
</svg>
