<svg width="116" height="116" viewBox="0 0 116 116" fill="none" xmlns="http://www.w3.org/2000/svg">
<path d="M64.628 115.643H51.3688C49.7025 115.643 48.2742 114.381 48.0838 112.715L47.3458 106.24C41.6803 105.002 36.2529 102.765 31.3729 99.6224L26.3025 103.693C24.9933 104.74 23.1127 104.621 21.9225 103.455L12.5434 94.0521C11.3532 92.8619 11.258 90.9813 12.3054 89.6721L16.3522 84.5779C13.21 79.6979 10.9723 74.2705 9.7345 68.6049L3.25963 67.867C1.59331 67.6766 0.355469 66.2721 0.355469 64.6058V51.3466C0.355469 49.6803 1.61711 48.252 3.28344 48.0616L9.7583 47.3236C10.9961 41.6581 13.2338 36.2306 16.376 31.3507L12.3292 26.2565C11.2818 24.9472 11.377 23.0667 12.5672 21.8765L21.9463 12.4974C23.1365 11.3072 25.0171 11.212 26.3263 12.2594L31.4205 16.33C36.3005 13.1878 41.7279 10.9501 47.3934 9.71228L48.1314 3.23742C48.3218 1.57109 49.7263 0.309448 51.3926 0.309448H64.6518C66.3181 0.309448 67.7464 1.57109 67.9368 3.23742L68.6748 9.71228C74.3403 10.9501 79.7677 13.1878 84.6477 16.33L89.7181 12.2832C91.0273 11.2358 92.9079 11.3548 94.0981 12.5212L103.477 21.9003C104.667 23.0905 104.763 24.9711 103.715 26.2803L99.6446 31.3745C102.787 36.2545 105.024 41.6819 106.262 47.3474L112.737 48.0854C114.403 48.2758 115.665 49.6803 115.665 51.3466V64.6058C115.665 66.2721 114.403 67.7004 112.737 67.8908L106.262 68.6288C105.024 74.2943 102.787 79.7217 99.6446 84.6017L103.691 89.6959C104.739 91.0051 104.62 92.8857 103.453 94.0759L94.0743 103.455C92.8841 104.645 91.0035 104.74 89.6943 103.693L84.6001 99.6224C79.7201 102.765 74.2927 105.002 68.6272 106.24L67.8892 112.715C67.7226 114.381 66.3181 115.619 64.628 115.643ZM31.3253 95.9327C31.6586 95.9327 31.968 96.0279 32.2537 96.2183C37.3717 99.6938 43.1562 102.074 49.2264 103.241C49.9405 103.384 50.4642 103.955 50.5356 104.669L51.3926 112.334H64.6518L65.5088 104.669C65.5802 103.955 66.1277 103.384 66.818 103.241C72.8882 102.074 78.6727 99.6938 83.7907 96.2183C84.3858 95.8137 85.1714 95.8375 85.7427 96.2897L91.7653 101.098L101.144 91.7193L96.3358 85.7205C95.8835 85.1492 95.8597 84.3636 96.2644 83.7685C99.7398 78.6505 102.12 72.866 103.287 66.7958C103.43 66.0817 104.001 65.558 104.715 65.4865L112.38 64.6296V51.3704L104.715 50.5134C104.001 50.442 103.43 49.8945 103.287 49.2042C102.12 43.134 99.7398 37.3733 96.2644 32.2553C95.8597 31.6602 95.8835 30.8746 96.3358 30.3033L101.144 24.2807L91.7653 14.9017L85.7427 19.6626C85.1714 20.1149 84.3858 20.1387 83.7907 19.734C78.6727 16.2586 72.8882 13.8781 66.818 12.7117C66.1039 12.5688 65.5802 11.9975 65.5088 11.2834L64.6518 3.61829H51.3926L50.5356 11.2834C50.4642 11.9975 49.9167 12.5688 49.2264 12.7117C43.1562 13.8781 37.3717 16.2586 32.2537 19.734C31.6586 20.1387 30.873 20.1149 30.3017 19.6626L24.2791 14.8541L14.9001 24.2331L19.6848 30.2557C20.1371 30.827 20.1609 31.6125 19.7562 32.2077C16.3046 37.3257 13.9003 43.0864 12.7339 49.1566C12.5911 49.8707 12.0197 50.3944 11.3056 50.4658L3.64051 51.3466V64.6058L11.3056 65.4627C12.0197 65.5341 12.5911 66.0817 12.7339 66.772C13.9003 72.8422 16.2808 78.6267 19.7562 83.7447C20.1609 84.3398 20.1371 85.1254 19.6848 85.6967L14.8763 91.7193L24.2553 101.098L30.2779 96.2897C30.5874 96.0755 30.9444 95.9327 31.3253 95.9327Z" fill="white"/>
<path d="M51.3942 116C49.5374 116 47.9663 114.596 47.7759 112.763L47.0856 106.55C41.5153 105.312 36.2783 103.145 31.4697 100.075L26.5898 103.979C25.1377 105.121 23.0667 105.026 21.7336 103.717L12.307 94.314C10.9977 93.0047 10.8787 90.9099 12.0451 89.4578L15.9491 84.5779C12.9021 79.7693 10.7359 74.5085 9.47425 68.962L3.23743 68.2241C1.40447 68.0098 0 66.4625 0 64.6058V51.3466C0 49.4898 1.38067 47.9187 3.23743 47.7283L9.45044 47.038C10.6883 41.4677 12.8545 36.2307 15.9253 31.4221L12.0213 26.5422C10.8549 25.0901 10.9739 22.9953 12.2832 21.686L21.686 12.2832C22.9953 10.9739 25.0901 10.8549 26.5422 12.0213L31.4221 15.9253C36.2307 12.8783 41.4915 10.6883 47.038 9.45044L47.7759 3.23743C47.9902 1.40447 49.5374 0 51.3942 0H64.6534C66.5102 0 68.0813 1.40447 68.2717 3.23743L68.962 9.45044C74.5323 10.6883 79.7693 12.8545 84.5779 15.9253L89.4578 12.0213C90.9099 10.8787 92.9809 10.9739 94.314 12.2832L103.693 21.6622C105.002 22.9715 105.121 25.0663 103.955 26.5184L100.051 31.3983C103.098 36.2069 105.264 41.4677 106.526 47.0142L112.739 47.7045C114.572 47.9187 115.976 49.466 115.976 51.3228V64.582C115.976 66.4387 114.596 68.0098 112.739 68.2003L106.526 68.8906C105.288 74.4609 103.122 79.6979 100.051 84.5065L103.955 89.3864C105.097 90.8385 105.002 92.9095 103.693 94.2426L94.3378 103.693C93.0285 105.002 90.9337 105.121 89.4816 103.955L84.6017 100.051C79.7932 103.098 74.5323 105.288 68.9858 106.526L68.2479 112.739C68.0337 114.572 66.4864 115.976 64.6296 115.976H51.3942C51.3942 116 51.3942 116 51.3942 116ZM31.3745 99.1939L31.5888 99.3368C36.4687 102.455 41.8009 104.669 47.4426 105.907L47.7045 105.954L48.4662 112.691C48.6329 114.167 49.8945 115.286 51.3942 115.286H64.6534C66.1531 115.286 67.3909 114.167 67.5576 112.667L68.3193 105.931L68.5812 105.883C74.2467 104.645 79.5789 102.455 84.4351 99.3129L84.6493 99.1701L89.9339 103.384C91.1003 104.312 92.7905 104.217 93.8379 103.169L103.217 93.7903C104.264 92.7429 104.36 91.0527 103.431 89.8863L99.2177 84.6017L99.3606 84.3874C102.479 79.5075 104.693 74.1752 105.931 68.5335L105.978 68.2717L112.715 67.5099C114.191 67.3433 115.333 66.0817 115.31 64.582V51.3228C115.31 49.8231 114.191 48.5853 112.691 48.4186L105.954 47.6569L105.907 47.395C104.669 41.7533 102.479 36.3973 99.3368 31.5411L99.1939 31.3269L103.431 26.0423C104.36 24.8758 104.264 23.1857 103.217 22.1383L93.8379 12.7593C92.7905 11.7119 91.1003 11.6167 89.9339 12.545L84.6493 16.7585L84.4351 16.6156C79.5551 13.4972 74.2229 11.2834 68.5812 10.0456L68.3193 9.99795L67.5576 3.26124C67.3909 1.78535 66.1293 0.66653 64.6296 0.66653H51.3704C49.8707 0.66653 48.6329 1.78535 48.4662 3.28504L47.7045 10.0218L47.4426 10.0694C41.8247 11.331 36.4687 13.521 31.6126 16.6632L31.3983 16.8061L26.1137 12.5688C24.9473 11.6405 23.2571 11.7357 22.2097 12.7831L12.8307 22.1621C11.7833 23.2095 11.6881 24.8996 12.6165 26.0661L16.8299 31.3507L16.687 31.5649C13.5686 36.4449 11.3548 41.7771 10.117 47.4188L10.0694 47.6807L3.33265 48.4424C1.85676 48.6091 0.714139 49.8707 0.737944 51.3704V64.6296C0.737944 66.1055 1.85676 67.3671 3.33265 67.5338L10.0694 68.2955L10.117 68.5574C11.3548 74.1991 13.5448 79.5551 16.687 84.4112L16.8299 84.6255L12.5927 89.8863C11.6643 91.0527 11.7595 92.7429 12.8069 93.7903L22.1859 103.169C23.2333 104.217 24.9235 104.312 26.0899 103.384L31.3745 99.1939ZM64.9629 112.691H51.0609L50.1564 104.717C50.085 104.145 49.6803 103.693 49.1328 103.598C42.9912 102.408 37.2304 100.027 32.041 96.5278C31.8268 96.385 31.5888 96.3136 31.3269 96.3136C31.0412 96.3136 30.7556 96.4088 30.5175 96.5992L24.2331 101.598L14.4018 91.7669L19.4008 85.5063C19.7578 85.054 19.7817 84.4589 19.4722 83.9828C15.9491 78.7934 13.5924 73.0326 12.4022 66.891C12.2832 66.3435 11.8309 65.915 11.2834 65.8674L3.30884 64.9629V51.0609L11.2834 50.1564C11.8547 50.085 12.307 49.6803 12.4022 49.1328C13.5924 42.9912 15.9729 37.2305 19.4722 32.041C19.7817 31.5649 19.7578 30.946 19.4008 30.5175L14.4018 24.2331L24.2331 14.4018L30.5175 19.4008C30.9698 19.7578 31.5649 19.7817 32.041 19.4722C37.2304 15.9729 42.9912 13.5924 49.1328 12.4022C49.6803 12.2832 50.1088 11.8309 50.1564 11.2834L51.0609 3.30884H64.9629L65.8674 11.2834C65.9389 11.8547 66.3435 12.307 66.891 12.4022C73.0326 13.5924 78.7934 15.9729 83.9828 19.4722C84.4589 19.7817 85.054 19.7578 85.5063 19.4008L91.7907 14.4018L101.622 24.2331L96.623 30.4937C96.266 30.946 96.2421 31.5411 96.5516 32.0172C100.051 37.2066 102.431 42.9436 103.622 49.109C103.741 49.6565 104.193 50.085 104.74 50.1326L112.715 51.0371V64.939L104.74 65.8436C104.169 65.915 103.717 66.3197 103.622 66.8672C102.431 73.0088 100.051 78.7695 96.5516 83.959C96.2421 84.4351 96.266 85.054 96.623 85.4825L101.622 91.7669L91.7907 101.598L85.5063 96.5992C85.054 96.2421 84.4589 96.2183 83.9828 96.5278C78.7934 100.051 73.0326 102.408 66.891 103.598C66.3435 103.717 65.915 104.169 65.8674 104.717L64.9629 112.691ZM51.7037 111.977H64.3201L65.1533 104.645C65.2485 103.764 65.8912 103.074 66.7482 102.907C72.8184 101.741 78.4601 99.4082 83.5781 95.9327C84.316 95.4328 85.2682 95.4804 85.9585 96.0279L91.7431 100.622L100.67 91.6955L96.0755 85.9109C95.528 85.2206 95.4804 84.2684 95.9803 83.5305C99.432 78.4125 101.789 72.747 102.955 66.7006C103.122 65.8436 103.836 65.2009 104.693 65.1057L112.048 64.2725V51.6561L104.669 50.8467C103.788 50.7515 103.098 50.1088 102.931 49.2518C101.765 43.2054 99.432 37.5399 95.9565 32.4219C95.4566 31.684 95.5042 30.7318 96.0517 30.0415L100.646 24.2569L91.7193 15.3302L85.9347 19.9245C85.2444 20.472 84.2922 20.5196 83.5543 20.0197C78.4363 16.568 72.7708 14.2114 66.7244 13.0449C65.8674 12.8783 65.2247 12.1642 65.1295 11.3072L64.2963 3.95157H51.6799L50.8705 11.331C50.7753 12.2118 50.1326 12.9021 49.2756 13.0687C43.2054 14.2352 37.5637 16.568 32.4457 20.0435C31.7078 20.5434 30.7556 20.4958 30.0653 19.9483L24.2807 15.354L15.354 24.2807L19.9483 30.0653C20.4958 30.7556 20.5434 31.7078 20.0435 32.4457C16.5918 37.5637 14.2352 43.2054 13.0687 49.2756C12.9021 50.1326 12.188 50.7753 11.331 50.8705L3.97537 51.7037V64.3201L11.3548 65.1295C12.2356 65.2247 12.9259 65.8674 13.0926 66.7244C14.259 72.7946 16.5918 78.4363 20.0673 83.5543C20.5672 84.2922 20.5196 85.2444 19.9721 85.9347L15.3778 91.6955L24.3045 100.622L30.0891 96.0279C30.4461 95.7422 30.8746 95.5994 31.3269 95.5994C31.7316 95.5994 32.1125 95.7184 32.4457 95.9327C37.5637 99.3844 43.2292 101.741 49.2756 102.907C50.1326 103.074 50.7753 103.788 50.8705 104.645L51.7037 111.977Z" fill="white"/>
<path d="M61.0834 93.2427C60.1788 93.2904 59.3932 92.5762 59.3694 91.6716C59.3218 90.7671 60.036 89.9815 60.9405 89.9577C62.5354 89.8149 64.1066 89.5768 65.6301 89.1722C66.5108 88.9579 67.4154 89.4816 67.6296 90.3624C67.8439 91.2432 67.3202 92.1239 66.4394 92.362C64.7255 92.7905 62.9877 93.0761 61.2262 93.2189C61.1786 93.2427 61.131 93.2427 61.0834 93.2427Z" fill="white"/>
<path d="M61.0112 93.5998C60.5113 93.5998 60.0353 93.4094 59.6544 93.0761C59.2497 92.7191 59.0355 92.2192 59.0117 91.6955C58.964 90.6004 59.821 89.6483 60.9398 89.6006C62.4871 89.4816 64.0344 89.2198 65.5579 88.8389C66.6291 88.577 67.7241 89.2198 67.986 90.291C68.2479 91.3622 67.6051 92.4334 66.5577 92.7191C64.82 93.1475 63.0584 93.457 61.2731 93.5998C61.2255 93.5998 61.1779 93.5998 61.1065 93.6236C61.0589 93.5998 61.035 93.5998 61.0112 93.5998ZM66.034 89.4816C65.9388 89.4816 65.8198 89.5054 65.7246 89.5292C64.1773 89.9101 62.5585 90.1958 60.9636 90.3148C60.2495 90.3386 59.6782 90.9575 59.7258 91.6716C59.7496 92.0049 59.8924 92.3382 60.1543 92.5762C60.4161 92.8143 60.7494 92.9333 61.0827 92.9095C61.1303 92.9095 61.1541 92.9095 61.2017 92.9095C62.9632 92.7667 64.701 92.481 66.3911 92.0525C67.0576 91.8859 67.4861 91.1718 67.3195 90.4814C67.129 89.8863 66.6053 89.4816 66.034 89.4816Z" fill="white"/>
<path d="M47.276 91.6479C47.1094 91.6479 46.9189 91.624 46.7523 91.5526C28.2085 85.3396 18.2105 65.2485 24.4474 46.7285C30.6842 28.2085 50.7277 18.1867 69.2715 24.4236C83.6971 29.2559 93.4332 42.7769 93.4332 58.0119C93.457 63.4632 92.1954 68.8192 89.7673 73.6992C89.3626 74.5085 88.3628 74.8418 87.5535 74.4133C86.7441 74.0086 86.4108 73.0326 86.8155 72.2233C89.0055 67.7956 90.1482 62.9395 90.1243 58.0119C90.1243 40.2774 75.7463 25.8994 58.0119 25.8756C40.2774 25.8756 25.8994 40.2536 25.8756 57.9881C25.8756 71.7948 34.6833 84.0542 47.7759 88.458C48.6329 88.7437 49.109 89.6721 48.8233 90.529C48.6091 91.1956 47.9901 91.6479 47.276 91.6479Z" fill="white"/>
<path d="M47.2775 92.0049C47.0633 92.0049 46.8491 91.9573 46.6348 91.9097C27.9482 85.6491 17.8312 65.3199 24.0918 46.6333C27.1388 37.5637 33.5185 30.2319 42.0643 25.9947C50.6102 21.7336 60.3225 21.0671 69.3683 24.1141C83.9605 29.0178 93.768 42.6341 93.768 58.0357C93.7918 63.5108 92.5064 68.9858 90.0545 73.8896C89.8164 74.3657 89.388 74.7227 88.8881 74.8894C88.3882 75.056 87.8406 75.0084 87.3646 74.7704C86.3886 74.2705 85.9839 73.0802 86.46 72.1042C88.6262 67.748 89.7688 62.8918 89.745 58.0357C89.745 49.5612 86.4362 41.5629 80.4612 35.5641C74.4862 29.5654 66.4879 26.2565 58.0134 26.2565C49.539 26.2565 41.5644 29.5653 35.5657 35.5403C29.5669 41.5391 26.2581 49.5136 26.2581 57.9881C26.2581 71.6519 34.9705 83.7685 47.9203 88.101C48.9677 88.458 49.539 89.5768 49.1819 90.6242C48.9201 91.4336 48.1583 92.0049 47.2775 92.0049V91.6478V92.0049ZM47.2775 91.2908C47.8489 91.2908 48.325 90.9337 48.5154 90.41C48.7296 89.7435 48.3726 89.0055 47.706 88.7675C34.4468 84.316 25.5439 71.9376 25.5677 57.9643C25.5677 40.0632 40.1362 25.4948 58.0372 25.4948C66.7021 25.4948 74.8671 28.875 81.0087 35.0166C87.1503 41.1582 90.5068 49.2994 90.5068 57.9881C90.5306 62.9633 89.3641 67.9146 87.1503 72.3661C86.8409 72.985 87.1027 73.7706 87.7216 74.08C88.0311 74.2467 88.3882 74.2705 88.6976 74.1514C89.0309 74.0324 89.2927 73.8182 89.4356 73.5087C91.816 68.724 93.0777 63.3441 93.0539 57.9881C93.0539 42.8959 83.4606 29.5415 69.154 24.733C60.2749 21.7574 50.7768 22.424 42.3976 26.5898C34.0184 30.7556 27.7577 37.9446 24.7822 46.8237C18.6406 65.1533 28.5433 85.054 46.8729 91.1956C46.9919 91.267 47.1347 91.2908 47.2775 91.2908Z" fill="white"/>
<path d="M76.6269 87.7914C75.7223 87.7914 74.9844 87.0535 74.9844 86.1489C74.9844 85.5776 75.27 85.0777 75.7461 84.7682C77.0792 83.9113 78.317 82.9353 79.5073 81.8879C80.1976 81.2928 81.245 81.388 81.8401 82.0783C82.4114 82.7448 82.34 83.7446 81.7211 84.3398C80.4118 85.5062 79.0312 86.5774 77.5553 87.5296C77.2458 87.6962 76.9364 87.7914 76.6269 87.7914Z" fill="white"/>
<path d="M76.6265 88.1485C76.1028 88.1485 75.5791 87.9343 75.2221 87.5534C74.8412 87.1725 74.627 86.6726 74.627 86.1251C74.627 85.4348 74.9602 84.8158 75.5553 84.435C76.8646 83.578 78.1024 82.6258 79.2689 81.6022C79.6735 81.2452 80.1972 81.0785 80.7447 81.1261C81.2684 81.1737 81.7683 81.4118 82.1016 81.8165C82.7919 82.6258 82.7205 83.8399 81.935 84.5778C80.6257 85.768 79.1974 86.8392 77.7216 87.8152C77.3883 88.0533 77.0074 88.1485 76.6265 88.1485ZM80.5305 81.8641C80.2449 81.8641 79.9354 81.9593 79.6973 82.1735C78.5309 83.2209 77.2455 84.1969 75.9124 85.0777C75.5315 85.3157 75.3173 85.7204 75.3173 86.1727C75.3173 86.506 75.4601 86.8392 75.6982 87.0773C75.9362 87.3153 76.2695 87.4582 76.6027 87.4582C76.8408 87.4582 77.1026 87.3867 77.2931 87.2439C78.7452 86.3155 80.1258 85.2443 81.4113 84.1017C81.9112 83.6256 81.9588 82.8639 81.5065 82.3402C81.2685 82.0069 80.9114 81.8641 80.5305 81.8641Z" fill="white"/>
<path d="M58.0114 70.6284C48.7276 70.5094 39.9675 66.2722 34.1115 59.0594C33.5878 58.4405 33.5878 57.5359 34.1115 56.917C39.9675 49.7042 48.7276 45.4669 58.0114 45.3479C67.2952 45.4669 76.0553 49.7042 81.9112 56.917C82.4349 57.5359 82.4349 58.4405 81.9112 59.0594C76.0553 66.2722 67.2952 70.5094 58.0114 70.6284ZM37.5632 57.9882C42.7526 63.8441 50.1797 67.2482 58.0114 67.3434C65.8431 67.2482 73.2702 63.8441 78.4596 57.9882C73.2702 52.1322 65.8431 48.7282 58.0114 48.6329C50.1797 48.7282 42.7526 52.1322 37.5632 57.9882Z" fill="white"/>
<path d="M58.0113 70.9854C48.5847 70.8664 39.777 66.6053 33.8258 59.2735C33.1831 58.5356 33.1831 57.4405 33.8258 56.6788C39.7531 49.3708 48.5609 45.1097 57.9875 44.9907C67.4141 45.1097 76.2457 49.3708 82.173 56.7026C82.8157 57.4406 82.8157 58.5356 82.173 59.2973C76.2457 66.6053 67.4379 70.8664 58.0113 70.9854ZM58.0113 45.7049C48.7989 45.8239 40.2054 49.9897 34.3971 57.1549C33.9686 57.6548 33.9686 58.3451 34.3971 58.845C40.2054 66.0102 48.8227 70.176 58.0351 70.2951C67.2475 70.176 75.8648 66.0102 81.6493 58.845C82.0778 58.3451 82.0778 57.6548 81.6493 57.1549C75.841 49.9897 67.2237 45.8239 58.0113 45.7049ZM58.0113 67.7003C50.0844 67.6051 42.5383 64.1535 37.3013 58.2261L37.087 57.9881L37.3013 57.75C42.5383 51.8227 50.1082 48.371 58.0113 48.2758C65.9383 48.371 73.4843 51.8227 78.7213 57.75L78.9356 57.9881L78.7213 58.2261C73.4843 64.1535 65.9383 67.6051 58.0113 67.7003ZM38.0392 57.9881C43.1334 63.606 50.3938 66.891 58.0113 66.9862C65.605 66.891 72.8654 63.6298 77.9834 57.9881C72.8892 52.3702 65.6288 49.0851 58.0113 48.9899C50.4176 49.0851 43.1572 52.3702 38.0392 57.9881Z" fill="white"/>
<path d="M58.0133 70.6284C51.0386 70.6284 45.373 64.9629 45.373 57.9882C45.373 51.0134 51.0386 45.3479 58.0133 45.3479C64.9881 45.3479 70.6536 51.0134 70.6536 57.9882C70.6536 64.9629 64.9881 70.6284 58.0133 70.6284ZM58.0133 48.6329C52.8477 48.6329 48.6581 52.8226 48.6581 57.9882C48.6581 63.1538 52.8477 67.3434 58.0133 67.3434C63.1789 67.3434 67.3685 63.1538 67.3685 57.9882C67.3685 52.8226 63.1789 48.6329 58.0133 48.6329Z" fill="white"/>
<path d="M58.011 70.9854C50.8458 70.9854 45.0137 65.1533 45.0137 57.9881C45.0137 50.8229 50.8458 44.9907 58.011 44.9907C65.1762 44.9907 71.0083 50.8229 71.0083 57.9881C71.0083 65.1533 65.1762 70.9854 58.011 70.9854ZM58.011 45.7049C51.2267 45.7049 45.7278 51.2275 45.7278 57.9881C45.7278 64.7724 51.2505 70.2713 58.011 70.2713C64.7715 70.2713 70.2942 64.7486 70.2942 57.9881C70.2942 51.2037 64.7953 45.7049 58.011 45.7049ZM58.011 67.7003C52.655 67.7003 48.2987 63.3441 48.2987 57.9881C48.2987 52.632 52.655 48.2758 58.011 48.2758C63.367 48.2758 67.6995 52.632 67.7233 57.9881C67.7233 63.3441 63.367 67.7003 58.011 67.7003ZM58.011 48.9899C53.0596 48.9899 49.0129 53.0129 49.0129 57.9881C49.0129 62.9394 53.0358 66.9862 58.011 66.9862C62.9624 66.9862 67.0092 62.9632 67.0092 57.9881C67.0092 53.0367 62.9624 48.9899 58.011 48.9899Z" fill="white"/>
<path d="M58.0123 64.1058C54.6321 64.1058 51.8945 61.3683 51.8945 57.988C51.8945 54.6078 54.6321 51.8702 58.0123 51.8702C58.2504 51.8702 58.4884 51.894 58.7265 51.9178C59.4882 51.9893 60.1071 52.5844 60.2024 53.3461C60.369 54.6316 61.3688 55.6314 62.6542 55.798C63.416 55.8932 64.0111 56.5121 64.0825 57.2739C64.1063 57.4881 64.1301 57.75 64.1301 57.988C64.1063 61.3683 61.3926 64.082 58.0123 64.1058ZM57.322 55.2505C55.8223 55.6314 54.8939 57.1549 55.2748 58.6784C55.6557 60.1781 57.1792 61.1064 58.7027 60.7256C59.7024 60.4637 60.488 59.702 60.7499 58.6784C59.1787 58.0594 57.9409 56.8216 57.322 55.2505Z" fill="white"/>
<path d="M58.01 64.4629C54.4393 64.4629 51.5352 61.5587 51.5352 57.988C51.5352 54.4173 54.4393 51.5132 58.01 51.5132C58.2719 51.5132 58.5099 51.537 58.7718 51.5608C59.7001 51.656 60.4381 52.3702 60.5571 53.2985C60.6999 54.4173 61.5807 55.2981 62.6995 55.4409C63.6279 55.56 64.3421 56.2979 64.4373 57.2263C64.4611 57.4643 64.4849 57.7262 64.4849 57.988C64.4611 61.5587 61.5807 64.4391 58.01 64.4629ZM58.01 52.2273C54.844 52.2273 52.2731 54.7982 52.2731 57.988C52.2731 61.1541 54.844 63.7488 58.0338 63.7488C61.1998 63.7488 63.7707 61.1541 63.7945 57.988C63.7945 57.75 63.7707 57.512 63.7469 57.2977C63.6755 56.7026 63.2232 56.2265 62.6281 56.1551C61.1998 55.9647 60.0572 54.8458 59.8668 53.3937C59.7954 52.7986 59.3193 52.3463 58.7242 52.2749C58.4623 52.2511 58.2243 52.2511 58.01 52.2273ZM58.01 61.1541C57.4387 61.1541 56.8912 61.0112 56.3913 60.7018C55.6534 60.2733 55.1535 59.583 54.9392 58.7498C54.5107 57.0597 55.5343 55.3219 57.2245 54.8934L57.5339 54.822L57.6529 55.1077C58.2481 56.5598 59.4145 57.75 60.8666 58.3213L61.1522 58.4403L61.0808 58.7498C60.7952 59.8686 59.9144 60.7494 58.7956 61.035C58.5337 61.1303 58.2719 61.1541 58.01 61.1541ZM57.1292 55.7028C56.6293 55.8932 56.2009 56.2503 55.9152 56.7264C55.5819 57.2977 55.4867 57.9404 55.6534 58.5832C55.82 59.2259 56.2247 59.7496 56.7722 60.0828C57.3435 60.4161 57.9862 60.5113 58.6289 60.3447C59.4145 60.1543 60.0334 59.583 60.3191 58.845C58.8908 58.2261 57.772 57.1073 57.1292 55.7028Z" fill="white"/>
</svg>
