<svg width="66" height="144" viewBox="0 0 66 144" fill="none" xmlns="http://www.w3.org/2000/svg">
<path d="M62.7097 13.9355H55.7419V11.6129C55.7389 8.53391 54.5144 5.58191 52.3372 3.40474C50.16 1.22756 47.208 0.00307438 44.129 0H20.9032C17.8242 0.00307438 14.8722 1.22756 12.6951 3.40474C10.5179 5.58191 9.2934 8.53391 9.29032 11.6129V13.9355H2.32258C1.70659 13.9355 1.11583 14.1802 0.680266 14.6158C0.244698 15.0513 0 15.6421 0 16.2581V141.677C0 142.293 0.244698 142.884 0.680266 143.32C1.11583 143.755 1.70659 144 2.32258 144H9.29032C9.90631 144 10.4971 143.755 10.9326 143.32C11.3682 142.884 11.6129 142.293 11.6129 141.677V104.894L14.0545 112.218C14.2087 112.681 14.5045 113.083 14.8999 113.368C15.2954 113.653 15.7706 113.806 16.2581 113.806H20.9032V125.419C20.9032 126.035 21.1479 126.626 21.5835 127.062C22.0191 127.497 22.6098 127.742 23.2258 127.742H41.8064C42.4224 127.742 43.0132 127.497 43.4488 127.062C43.8843 126.626 44.129 126.035 44.129 125.419V113.806H48.7742C49.2617 113.806 49.7368 113.653 50.1323 113.368C50.5278 113.083 50.8236 112.681 50.9777 112.218L53.4194 104.894V141.677C53.4194 142.293 53.6641 142.884 54.0996 143.32C54.5352 143.755 55.1259 144 55.7419 144H62.7097C63.3257 144 63.9164 143.755 64.352 143.32C64.7876 142.884 65.0323 142.293 65.0323 141.677V16.2581C65.0323 15.6421 64.7876 15.0513 64.352 14.6158C63.9164 14.1802 63.3257 13.9355 62.7097 13.9355ZM13.9355 11.6129C13.9379 9.7657 14.6728 7.99485 15.979 6.68868C17.2852 5.38251 19.056 4.64762 20.9032 4.64516H44.129C45.9762 4.64762 47.7471 5.38251 49.0533 6.68868C50.3594 7.99485 51.0943 9.7657 51.0968 11.6129V13.9355H13.9355V11.6129ZM6.96774 139.355H4.64516V99.871H6.96774V139.355ZM39.4839 123.097H25.5484V113.806H39.4839V123.097ZM47.099 109.161H17.9332L14.8355 99.871H50.1968L47.099 109.161ZM60.3871 139.355H58.0645V99.871H60.3871V139.355ZM60.3871 95.2258H4.64516V18.5806H60.3871V95.2258Z" fill="#7AC1F4"/>
<path d="M11.6116 60.3872H53.4181C54.0341 60.3872 54.6248 60.1425 55.0604 59.7069C55.496 59.2713 55.7407 58.6806 55.7407 58.0646V44.1291C55.7407 43.5131 55.496 42.9224 55.0604 42.4868C54.6248 42.0512 54.0341 41.8065 53.4181 41.8065H11.6116C10.9957 41.8065 10.4049 42.0512 9.96933 42.4868C9.53376 42.9224 9.28906 43.5131 9.28906 44.1291V58.0646C9.28906 58.6806 9.53376 59.2713 9.96933 59.7069C10.4049 60.1425 10.9957 60.3872 11.6116 60.3872ZM13.9342 46.4517H51.0955V55.742H13.9342V46.4517Z" fill="#7AC1F4"/>
<path d="M46.4515 34.8387H53.4192C54.0352 34.8387 54.626 34.594 55.0615 34.1585C55.4971 33.7229 55.7418 33.1321 55.7418 32.5162V25.5484C55.7418 24.9324 55.4971 24.3417 55.0615 23.9061C54.626 23.4705 54.0352 23.2258 53.4192 23.2258H46.4515C45.8355 23.2258 45.2447 23.4705 44.8092 23.9061C44.3736 24.3417 44.1289 24.9324 44.1289 25.5484V32.5162C44.1289 33.1321 44.3736 33.7229 44.8092 34.1585C45.2447 34.594 45.8355 34.8387 46.4515 34.8387ZM48.7741 27.871H51.0966V30.1936H48.7741V27.871Z" fill="#7AC1F4"/>
<path d="M48.7743 62.7097H16.2581C15.6421 62.7097 15.0514 62.9544 14.6158 63.39C14.1802 63.8256 13.9355 64.4163 13.9355 65.0323V74.3226C13.9355 74.9386 14.1802 75.5294 14.6158 75.9649C15.0514 76.4005 15.6421 76.6452 16.2581 76.6452H48.7743C49.3902 76.6452 49.981 76.4005 50.4166 75.9649C50.8521 75.5294 51.0968 74.9386 51.0968 74.3226V65.0323C51.0968 64.4163 50.8521 63.8256 50.4166 63.39C49.981 62.9544 49.3902 62.7097 48.7743 62.7097ZM46.4517 72H18.5807V67.3549H46.4517V72Z" fill="#7AC1F4"/>
</svg>
