<svg width="115" height="127" viewBox="0 0 115 127" fill="none" xmlns="http://www.w3.org/2000/svg">
<path d="M11.7193 73.5676C12.7455 73.5676 13.5773 72.7357 13.5773 71.7096C13.5773 70.6834 12.7455 69.8516 11.7193 69.8516C10.6932 69.8516 9.86133 70.6834 9.86133 71.7096C9.86133 72.7357 10.6932 73.5676 11.7193 73.5676Z" fill="white"/>
<path d="M11.7193 84.09C12.7455 84.09 13.5773 83.2582 13.5773 82.232C13.5773 81.2059 12.7455 80.374 11.7193 80.374C10.6932 80.374 9.86133 81.2059 9.86133 82.232C9.86133 83.2582 10.6932 84.09 11.7193 84.09Z" fill="white"/>
<path d="M110.416 0H4.58355C2.05618 0 0 2.05618 0 4.5833V27.7461C0 28.7722 0.831886 29.6041 1.858 29.6041C2.8841 29.6041 3.71599 28.7722 3.71599 27.7461V4.5833C3.71599 4.10493 4.10518 3.71599 4.58355 3.71599H110.416C110.895 3.71599 111.284 4.10518 111.284 4.5833V122.256C111.284 122.734 110.895 123.123 110.416 123.123H95.1033V33.4707C95.1033 30.971 93.0697 28.9374 90.5701 28.9374H79.6047C78.5783 28.9374 77.7467 29.7693 77.7467 30.7954C77.7467 31.8215 78.5783 32.6534 79.6047 32.6534H90.5701C91.0207 32.6534 91.3874 33.02 91.3874 33.4707V123.123H59.358V32.6534H72.1727C73.1991 32.6534 74.0307 31.8215 74.0307 30.7954C74.0307 29.7693 73.1991 28.9374 72.1727 28.9374H24.4302C21.9305 28.9374 19.8969 30.971 19.8969 33.4707V62.2864H3.71599V35.178C3.71599 34.1519 2.8841 33.32 1.858 33.32C0.831886 33.32 0 34.1519 0 35.178V122.256C0 124.783 2.05618 126.839 4.58355 126.839H110.416C112.944 126.839 115 124.783 115 122.256V4.5833C115 2.05618 112.944 0 110.416 0V0ZM19.8969 66.0024V90.3335H3.71599V66.0024H19.8969ZM3.71599 122.256V94.0495H19.8967V123.123H4.58355C4.10518 123.123 3.71599 122.734 3.71599 122.256ZM23.6129 33.4707C23.6129 33.02 23.9795 32.6534 24.4302 32.6534H55.642V123.123H23.6126V33.4707H23.6129Z" fill="white"/>
<path d="M42.8287 23.7304H55.3233C55.9873 23.7304 56.6004 23.3764 56.9324 22.8014C57.0983 22.5141 57.1813 22.1933 57.1813 21.8724C57.1813 21.5516 57.0983 21.2308 56.9324 20.9434L50.685 10.1227C50.3531 9.54774 49.7397 9.19373 49.076 9.19373C48.4121 9.19373 47.799 9.54774 47.467 10.1227L41.2197 20.9434C41.0537 21.2308 40.9707 21.5516 40.9707 21.8724C40.9707 22.1933 41.0537 22.5141 41.2197 22.8014C41.5516 23.3764 42.165 23.7304 42.8287 23.7304ZM49.076 14.7677L52.1053 20.0144H46.0467L49.076 14.7677Z" fill="white"/>
<path d="M65.9256 23.7304C66.5896 23.7304 67.2027 23.3764 67.5347 22.8014L73.782 11.9807C73.948 11.6933 74.0309 11.3725 74.0309 11.0517C74.0309 10.7309 73.948 10.4101 73.782 10.1227C73.45 9.54774 72.8369 9.19373 72.173 9.19373H59.6783C59.0144 9.19373 58.4012 9.54774 58.0693 10.1227C57.9033 10.4101 57.8203 10.7309 57.8203 11.0517C57.8203 11.3725 57.9033 11.6933 58.0693 11.9807L64.3169 22.8014C64.6486 23.3764 65.2617 23.7304 65.9256 23.7304ZM68.9549 12.9097L65.9256 18.1564L62.8961 12.9097H68.9549Z" fill="white"/>
<path d="M65.0879 71.7096V79.8129C65.0879 80.839 65.9195 81.6709 66.9459 81.6709C67.9722 81.6709 68.8039 80.839 68.8039 79.8129V71.7096C68.8039 70.6834 67.9722 69.8516 66.9459 69.8516C65.9198 69.8516 65.0879 70.6834 65.0879 71.7096Z" fill="white"/>
<path d="M48.0572 69.8516C47.0311 69.8516 46.1992 70.6834 46.1992 71.7096V79.8129C46.1992 80.839 47.0311 81.6709 48.0572 81.6709C49.0833 81.6709 49.9152 80.839 49.9152 79.8129V71.7096C49.9152 70.6834 49.0833 69.8516 48.0572 69.8516Z" fill="white"/>
</svg>
