<svg width="114" height="114" viewBox="0 0 114 114" fill="none" xmlns="http://www.w3.org/2000/svg">
<path d="M114 47.8065H109.868L103.71 51.0466C103.017 50.6642 102.296 50.3401 101.519 50.1452L93.7724 48.2069V47.3261C97.1993 44.9344 99.2903 40.9831 99.2903 36.7742V33.56C99.2903 26.4171 93.6934 20.4395 86.8144 20.2312C86.4651 20.2222 86.1213 20.2348 85.7756 20.2518L87.784 15.55L78.0473 5.816L72.3076 9.55177C70.1268 8.32357 67.8204 7.36741 65.425 6.69675L64.0074 0H49.9944L48.5768 6.69854C46.1814 7.3692 43.8732 8.32537 41.6942 9.55357L35.9545 5.81779L26.2259 15.5464L28.2001 20.2518C28.1247 20.2483 28.0529 20.2348 27.9775 20.233C24.4563 20.1306 21.1398 21.4154 18.6205 23.861C16.0977 26.3049 14.7097 29.5846 14.7097 33.0968V36.7742C14.7097 40.9831 16.7989 44.9326 20.2258 47.3243V48.2069L15.1729 49.4701L6.01441 44.129H0V82.2293L18.089 88.2581H21.612L22.0519 86.7174L27.5968 90.0456C27.6875 93.0604 30.1053 95.4863 33.1174 95.5923C33.2234 98.5918 35.634 101.002 38.6336 101.108C38.7395 104.108 41.1501 106.519 44.1497 106.625C44.2592 109.694 46.7731 112.161 49.8678 112.161C51.017 112.161 52.1438 111.803 53.0909 111.165L54.7196 112.603C55.7404 113.502 57.0548 114 58.4194 114H58.7597C61.8194 114 64.3091 111.527 64.3477 108.477C67.3742 108.438 69.8252 105.987 69.8638 102.961C72.8921 102.922 75.3449 100.467 75.3799 97.439C78.4361 97.3672 80.9032 94.8704 80.9032 91.7972C80.9032 91.6123 80.8942 91.43 80.8754 91.246L114 74.685V47.8065ZM95.6129 33.56V36.7742C95.6129 40.0377 93.8496 43.0867 91.0107 44.7306L90.0914 45.2621L90.0986 51.0808L99.2849 53.3756L79.0645 64.0182V59.065C79.0645 56.5933 78.0662 54.3299 76.4313 52.6573L82.7419 51.0808V45.2576L81.8244 44.727C78.9873 43.0867 77.2258 40.0377 77.2258 36.7742V33.0968C77.2258 30.5892 78.217 28.2441 80.0189 26.4979C81.819 24.7526 84.2072 23.8116 86.704 23.9086C91.6159 24.0559 95.6129 28.386 95.6129 33.56ZM59.7724 62.5727L51.4489 59.9125C47.6556 58.6969 43.5499 58.5155 39.6669 59.3756L38.6129 59.609V59.065C38.6129 56.5295 40.3322 54.3281 42.7904 53.7122L53.3226 51.0808V45.2576L52.405 44.727C49.568 43.0867 47.8065 40.0377 47.8065 36.7742V33.0968C47.8065 30.5892 48.7976 28.2441 50.5995 26.4979C52.3996 24.7526 54.8031 23.8116 57.2846 23.9086C62.1965 24.0559 66.1936 28.386 66.1936 33.56V36.7742C66.1936 40.0377 64.4303 43.0867 61.5914 44.7306L60.672 45.2621L60.6792 51.0808L71.2096 53.7122C73.6678 54.3281 75.3871 56.5295 75.3871 59.065V65.9547L74.9328 66.1936H73.8061L62.5018 62.9632C61.6111 62.711 60.6936 62.6077 59.7724 62.5727ZM39.025 27.5196C42.478 20.8291 49.4279 16.5484 57 16.5484C64.5003 16.5484 71.4206 20.7717 74.8996 27.3715C74.0242 29.1267 73.5484 31.0704 73.5484 33.0968V36.7742C73.5484 40.9831 75.6376 44.9326 79.0645 47.3243V48.2069L71.7097 50.0483L64.353 48.2069V47.3261C67.78 44.9344 69.871 40.9831 69.871 36.7742V33.56C69.871 26.4171 64.274 20.4395 57.395 20.2312C53.8756 20.1279 50.5573 21.4136 48.0381 23.8592C45.517 26.3049 44.129 29.5846 44.129 33.0968V36.7742C44.129 40.9831 46.2182 44.9326 49.6452 47.3243V48.2069L42.2903 50.0483L34.9337 48.2069V47.3261C38.3606 44.9344 40.4516 40.9831 40.4516 36.7742V33.56C40.4516 31.3963 39.9309 29.3421 39.025 27.5196ZM30.5685 16.3994L36.4429 10.525L41.6134 13.89L42.6028 13.2831C45.0816 11.764 47.7607 10.6516 50.5645 9.98093L51.6958 9.70979L52.9751 3.67742H61.0267L62.3025 9.70799L63.4337 9.97823C66.2375 10.6498 68.9166 11.7622 71.3954 13.2813L72.3848 13.8882L77.5553 10.5232L83.4225 16.3922L81.3369 21.2753C79.9174 21.8859 78.6012 22.7451 77.4557 23.8556C77.3802 23.9293 77.3156 24.0083 77.242 24.0837C72.91 17.1975 65.2517 12.871 57 12.871C48.689 12.871 41.0092 17.2379 36.688 24.1941C35.5316 22.9839 34.1562 22.0035 32.6317 21.3184L30.5685 16.3994ZM23.9032 51.0808V45.2576L22.9857 44.727C20.1486 43.0867 18.3871 40.0377 18.3871 36.7742V33.0968C18.3871 30.5892 19.3783 28.2441 21.1802 26.4979C22.9803 24.7526 25.3738 23.8116 27.8653 23.9086C32.7772 24.0559 36.7742 28.386 36.7742 33.56V36.7742C36.7742 40.0377 35.0109 43.0867 32.172 44.7306L31.2527 45.2621L31.2599 51.0808L37.5688 52.6573C35.9338 54.3299 34.9355 56.5933 34.9355 59.065V60.4269L29.2003 61.7018L29.3493 61.1811L29.4194 57.7829L19.7221 52.1258L23.9032 51.0808ZM3.67742 47.8065H5.01785L18.2417 55.5195L11.5691 82.2086L3.67742 79.5772V47.8065ZM18.6852 84.5807L15.0661 83.3749L21.5483 57.4489L25.7419 59.8945V60.4198L18.8396 84.5807H18.6852ZM31.2581 89.8741C31.2581 89.3318 31.4771 88.8003 31.8614 88.4161L35.0935 85.184C35.4778 84.7997 36.0093 84.5807 36.5515 84.5807C37.6882 84.5807 38.6129 85.5054 38.6129 86.642C38.6129 87.1843 38.3938 87.7158 38.0096 88.1001L34.7775 91.3322C34.3932 91.7164 33.8617 91.9355 33.3194 91.9355C32.1828 91.9355 31.2581 91.0107 31.2581 89.8741ZM36.7742 95.3903C36.7742 94.848 36.9933 94.3165 37.3775 93.9322L40.6096 90.7001C40.9939 90.3158 41.5254 90.0968 42.0677 90.0968C43.2043 90.0968 44.129 91.0215 44.129 92.1581C44.129 92.7004 43.91 93.2319 43.5257 93.6162L40.2936 96.8483C39.9093 97.2326 39.3778 97.4516 38.8356 97.4516C37.6989 97.4516 36.7742 96.5269 36.7742 95.3903ZM42.2903 100.906C42.2903 100.364 42.5094 99.8326 42.8937 99.4483L46.1258 96.2162C46.51 95.832 47.0415 95.6129 47.5838 95.6129C48.7204 95.6129 49.6452 96.5376 49.6452 97.6743C49.6452 98.2165 49.4261 98.748 49.0418 99.1323L45.8097 102.364C45.4255 102.749 44.894 102.968 44.3517 102.968C43.2151 102.968 42.2903 102.043 42.2903 100.906ZM49.8678 108.484C48.7312 108.484 47.8065 107.559 47.8065 106.423C47.8065 105.88 48.0255 105.349 48.4098 104.964L51.6419 101.732C52.0261 101.348 52.5577 101.129 53.0999 101.129C54.2365 101.129 55.1613 102.054 55.1613 103.19C55.1613 103.733 54.9422 104.264 54.558 104.648L51.3259 107.881C50.9416 108.265 50.4101 108.484 49.8678 108.484ZM58.7597 110.323H58.4194C57.9508 110.323 57.5019 110.152 57.1526 109.842L55.7772 108.629L57.158 107.248C57.6509 106.756 58.0334 106.169 58.3162 105.54L59.9879 106.932C60.4251 107.296 60.6774 107.833 60.6774 108.405C60.6774 109.462 59.8173 110.323 58.7597 110.323ZM75.2488 93.7742H74.931C74.4695 93.7742 74.0188 93.6108 73.666 93.3145L63.695 85.0053L61.3391 87.8316L71.022 95.8993C71.4574 96.2638 71.7097 96.8007 71.7097 97.3726C71.7097 98.4302 70.8496 99.2903 69.792 99.2903H69.3906C68.9444 99.2903 68.5081 99.1323 68.1642 98.845L58.177 90.5232L55.8212 93.3495L65.504 101.418C65.9413 101.78 66.1936 102.317 66.1936 102.889C66.1936 103.946 65.3335 104.806 64.2758 104.806C63.5702 104.806 62.8824 104.556 62.3411 104.106L58.2372 100.686C57.3331 98.8378 55.4755 97.5495 53.3001 97.4723C53.1942 94.4727 50.7836 92.0621 47.784 91.9561C47.6781 88.9566 45.2675 86.5459 42.2679 86.44C42.1601 83.3704 39.6463 80.9032 36.5515 80.9032C35.0405 80.9032 33.5618 81.5155 32.4934 82.5839L29.2613 85.816C29.0683 86.0091 28.9085 86.2281 28.746 86.4454L23.0979 83.0562L28.0493 65.7267L40.4624 62.9668C43.7187 62.2387 47.152 62.3967 50.3275 63.413L53.0362 64.2794L43.8534 68.8708C41.7552 69.9221 40.4516 72.0329 40.4516 74.3798V74.7434C40.4516 78.1398 43.2151 80.9032 46.6115 80.9032C47.7274 80.9032 48.8255 80.5998 49.7798 80.0243L56.6265 75.9186C58.002 75.0944 59.8478 75.2749 61.0356 76.3433L76.5713 90.3248C76.987 90.7019 77.2258 91.237 77.2258 91.7972C77.2258 92.8881 76.3397 93.7742 75.2488 93.7742ZM110.323 72.4118L79.3455 87.9016C79.245 87.7948 79.1399 87.6933 79.0295 87.5946L63.4965 73.613C62.1355 72.3848 60.3758 71.7097 58.5424 71.7097C57.202 71.7097 55.8858 72.0742 54.733 72.7655L47.8837 76.873C47.4994 77.1046 47.0604 77.2258 46.6115 77.2258C45.2414 77.2258 44.129 76.1134 44.129 74.7434V74.3798C44.129 73.4326 44.6551 72.5832 45.5009 72.1604L55.7574 67.0321C57.5126 66.1531 59.5965 65.9565 61.4881 66.5006L73.0429 69.8009L75.8414 69.871L110.323 51.7227V72.4118Z" fill="white"/>
</svg>
