<svg width="116" height="45" viewBox="0 0 116 45" fill="none" xmlns="http://www.w3.org/2000/svg">
<path d="M33.3564 1.3527C34.3487 1.71227 35.1944 2.38952 35.7623 3.27922C36.3301 4.16892 36.5881 5.22125 36.4964 6.2727C36.4964 14.0127 36.4964 21.7527 36.4964 29.4927C36.496 31.1327 36.1197 32.7508 35.3964 34.2227C33.9582 37.0395 31.9528 39.5283 29.5064 41.5327C28.3064 42.5327 27.0364 43.5327 25.6464 44.6827C25.9143 44.6873 26.1821 44.6672 26.4464 44.6227C30.671 43.1419 34.7005 41.1541 38.4464 38.7027C43.4464 35.2727 45.9964 30.8027 45.6864 24.5427C45.3764 18.2827 45.6864 12.0227 45.5964 5.7627C45.5964 3.7627 45.9864 2.2427 48.3264 1.3527H33.3564ZM25.6664 0.452702C24.7664 1.0227 24.0064 1.4927 23.2364 2.0227C22.7544 2.4145 22.1627 2.64705 21.543 2.68825C20.9232 2.72944 20.3059 2.57726 19.7764 2.2527C19.0012 1.83856 18.1955 1.4842 17.3664 1.1927C14.9311 0.205044 12.2764 -0.114551 9.67634 0.26693C7.07629 0.648411 4.62523 1.71713 2.57636 3.3627C-0.90364 5.9327 -0.81364 10.5127 2.57636 13.1727C4.21889 14.3891 6.10002 15.2444 8.09636 15.6827C10.7684 16.2584 13.4086 16.9727 16.0064 17.8227C17.5473 18.3085 18.9945 19.0524 20.2864 20.0227C20.6755 20.2775 20.9986 20.621 21.2291 21.025C21.4597 21.429 21.5911 21.8819 21.6125 22.3465C21.634 22.8111 21.5449 23.2742 21.3526 23.6977C21.1603 24.1212 20.8703 24.4931 20.5064 24.7827C19.5592 25.7599 18.3395 26.429 17.0064 26.7027C14.538 27.3025 11.9505 27.1937 9.54121 26.3888C7.13192 25.584 4.99858 24.1157 3.38636 22.1527C2.22832 20.8183 1.22215 19.3593 0.386361 17.8027V28.2827C0.876361 27.9627 1.28636 27.7227 1.65636 27.4427C2.21379 27.0048 2.87409 26.717 3.57431 26.6067C4.27453 26.4964 4.99132 26.5674 5.65636 26.8127C8.06449 27.6654 10.5653 28.2294 13.1064 28.4927C17.9664 28.8427 22.3064 27.5527 25.7064 23.9327C28.1464 21.3527 27.8964 18.0727 25.2564 15.6827C24.3588 14.89 23.3476 14.2361 22.2564 13.7427C19.8528 12.6777 17.3962 11.7364 14.8964 10.9227C12.8964 10.2527 10.9564 9.6327 9.01636 8.9227C8.26941 8.67596 7.61596 8.20632 7.14397 7.577C6.67198 6.94767 6.40409 6.18887 6.37636 5.4027C6.42226 4.63861 6.70788 3.90843 7.19261 3.31599C7.67733 2.72355 8.33649 2.299 9.07636 2.1027C10.018 1.7703 11.0078 1.59463 12.0064 1.5827C16.6964 1.4827 20.4464 3.5827 23.7664 6.6627C24.3864 7.2427 25.0364 7.7827 25.6664 8.3427V0.452702ZM83.6664 22.0527L83.3764 21.8427C82.5364 22.7227 81.6764 23.5927 80.8564 24.4927C80.7048 24.6749 80.5131 24.8195 80.2961 24.9149C80.0792 25.0103 79.8431 25.0541 79.6064 25.0427C74.8564 25.0427 70.1064 25.0427 65.3564 25.0427C64.5364 25.0427 64.4764 24.7227 64.4864 24.0427C64.4864 21.3327 64.4864 18.6227 64.4864 15.9127C64.4864 15.1027 64.7264 14.9127 65.4864 14.9127C69.0864 14.9127 72.6764 14.9127 76.2664 14.9127C76.8991 14.8994 77.5122 15.1325 77.9764 15.5627C78.6592 16.2573 79.425 16.8652 80.2564 17.3727V9.7727C79.3564 10.6127 78.5564 11.3127 77.7964 12.0627C77.6181 12.2453 77.4025 12.3872 77.1643 12.4787C76.9262 12.5701 76.671 12.609 76.4164 12.5927C72.8164 12.5927 69.2264 12.5927 65.6364 12.5927C64.8464 12.5927 64.7164 12.3327 64.7264 11.6427C64.7264 9.3227 64.7764 7.0127 64.7264 4.7027C64.7264 3.9327 64.9064 3.7027 65.7264 3.7027C69.4064 3.7027 73.0864 3.8427 76.7264 3.7027C79.0064 3.5727 81.0064 3.9227 82.4364 5.8327C82.4364 5.8327 82.5764 5.8327 82.7364 5.8327C82.7364 4.6727 82.6764 3.5327 82.7364 2.3927C82.8064 1.5027 82.5364 1.2627 81.6364 1.2727C73.2464 1.2727 64.8664 1.2727 56.4764 1.2727C56.2064 1.2727 55.8564 1.0827 55.6464 1.4627C56.0364 1.89611 56.4575 2.30052 56.9064 2.6727C57.3269 2.9658 57.6586 3.36911 57.865 3.83835C58.0714 4.30759 58.1445 4.82463 58.0764 5.3327C58.0764 11.4727 58.0764 17.6127 58.0764 23.7527C58.099 24.0855 58.0449 24.419 57.9183 24.7276C57.7918 25.0362 57.5961 25.3116 57.3464 25.5327C56.5887 26.1369 55.9336 26.8596 55.4064 27.6727H56.4864C65.3197 27.6727 74.143 27.6727 82.9564 27.6727C83.5164 27.6727 83.7364 27.5327 83.7164 26.9427C83.6764 25.3127 83.6964 23.6827 83.6964 22.0227L83.6664 22.0527ZM114.086 1.4027C113.506 1.8327 113.016 2.1627 112.586 2.5427C112.441 2.69739 112.243 2.7916 112.032 2.80644C111.821 2.82128 111.611 2.75564 111.446 2.6227C104.886 -0.977298 98.3464 -0.977298 92.1264 3.2827C84.6064 8.4127 84.0064 19.1027 90.7064 24.7227C93.4006 26.8141 96.6543 28.06 100.056 28.3027C103.119 28.7649 106.249 28.2787 109.027 26.9094C111.805 25.54 114.098 23.3532 115.596 20.6427C115.746 20.3827 116.016 20.1627 115.836 19.8127C113.466 19.6827 113.466 19.6827 111.836 21.3427C111.196 21.9978 110.489 22.5844 109.726 23.0927C107.699 24.558 105.208 25.237 102.718 25.0034C100.227 24.7698 97.906 23.6395 96.1864 21.8227C94.3508 19.9807 93.2459 17.5354 93.0767 14.9405C92.9075 12.3456 93.6856 9.77743 95.2664 7.7127C98.4764 3.6027 102.846 2.9127 107.666 3.8627C110.093 4.31279 112.329 5.47963 114.086 7.2127V1.4027Z" fill="#FEFEFE"/>
<path d="M33.3562 1.35278H48.2962C45.9562 2.24278 45.5462 3.80278 45.5662 5.76278C45.6362 12.0228 45.3562 18.3028 45.6562 24.5428C45.9562 30.7828 43.3762 35.2728 38.4162 38.7028C34.6703 41.1541 30.6409 43.142 26.4162 44.6228C26.152 44.6673 25.8842 44.6874 25.6162 44.6828C27.0062 43.5528 28.2762 42.5728 29.4762 41.5328C31.9227 39.5284 33.928 37.0396 35.3662 34.2228C36.0895 32.7509 36.4658 31.1328 36.4662 29.4928C36.4662 21.7528 36.4662 14.0128 36.4662 6.27278C36.56 5.22499 36.3063 4.17546 35.7442 3.28623C35.1821 2.39701 34.3429 1.71755 33.3562 1.35278Z" fill="#E2362B"/>
<path d="M25.6667 0.452595V8.34259C25.0367 7.78259 24.3867 7.24259 23.7667 6.66259C20.4467 3.57259 16.6967 1.48259 12.0067 1.58259C11.0081 1.59453 10.0183 1.77019 9.07667 2.10259C8.3368 2.29889 7.67764 2.72344 7.19292 3.31589C6.70819 3.90833 6.42257 4.6385 6.37667 5.40259C6.40367 6.18754 6.6701 6.94545 7.1402 7.57464C7.6103 8.20382 8.26158 8.67418 9.00667 8.92259C10.9467 9.63259 12.9267 10.2526 14.8867 10.9226C17.3865 11.7363 19.8431 12.6776 22.2467 13.7426C23.3379 14.2359 24.3491 14.8899 25.2467 15.6826C27.8867 18.0726 28.1367 21.3526 25.6967 23.9326C22.2967 27.5526 17.9567 28.8426 13.0967 28.4926C10.5556 28.2293 8.0548 27.6653 5.64667 26.8126C4.98164 26.5672 4.26484 26.4963 3.56462 26.6066C2.8644 26.7169 2.2041 27.0047 1.64667 27.4426C1.27667 27.7226 0.866672 27.9626 0.376672 28.2826V17.8026C1.21246 19.3592 2.21863 20.8182 3.37667 22.1526C4.98972 24.1174 7.12473 25.5868 9.53601 26.3917C11.9473 27.1966 14.5368 27.3044 17.0067 26.7026C18.3351 26.4401 19.5543 25.7852 20.5067 24.8226C20.8787 24.5338 21.1759 24.1599 21.3732 23.7323C21.5706 23.3047 21.6624 22.836 21.6408 22.3656C21.6193 21.8951 21.485 21.4368 21.2493 21.029C21.0137 20.6213 20.6835 20.2761 20.2867 20.0226C18.9948 19.0523 17.5476 18.3083 16.0067 17.8226C13.4352 16.9752 10.8217 16.2609 8.17667 15.6826C6.16282 15.251 4.26401 14.3953 2.60667 13.1726C-0.813328 10.5126 -0.903328 5.93259 2.60667 3.36259C4.65051 1.71916 7.09533 0.64998 9.68955 0.265065C12.2838 -0.11985 14.9337 0.193404 17.3667 1.17259C18.1958 1.46409 19.0015 1.81845 19.7767 2.23259C20.3042 2.55992 20.9204 2.71551 21.5401 2.67789C22.1598 2.64028 22.7526 2.41132 23.2367 2.02259C24.0067 1.49259 24.7667 1.02259 25.6667 0.452595Z" fill="#E2382D"/>
<path d="M83.6965 22.0227C83.6965 23.6527 83.6965 25.2827 83.6965 26.9227C83.6965 27.5127 83.4965 27.6527 82.9365 27.6527C74.1165 27.6527 65.2932 27.6527 56.4665 27.6527H55.3965C55.9237 26.8395 56.5788 26.1169 57.3365 25.5127C57.5862 25.2916 57.7819 25.0161 57.9085 24.7076C58.035 24.399 58.0891 24.0654 58.0665 23.7327C58.0665 17.5927 58.0665 11.4527 58.0665 5.31267C58.1319 4.8087 58.0584 4.29644 57.854 3.83118C57.6496 3.36593 57.3219 2.96534 56.9065 2.67267C56.467 2.32218 56.0526 1.94124 55.6665 1.53267C55.8765 1.15267 56.2265 1.34267 56.4965 1.34267C64.8865 1.34267 73.2665 1.34267 81.6565 1.34267C82.5565 1.34267 82.8265 1.57267 82.7565 2.46267C82.6765 3.60267 82.7565 4.74267 82.7565 5.90267C82.5965 5.90267 82.4865 5.90267 82.4565 5.90267C81.0065 3.92267 79.0065 3.57267 76.7465 3.68267C73.0865 3.85267 69.4065 3.75267 65.7465 3.68267C64.9465 3.68267 64.7465 3.91267 64.7465 4.68267C64.7965 6.99267 64.7465 9.30267 64.7465 11.6227C64.7465 12.3127 64.8665 12.6227 65.6565 12.5727C69.2465 12.5727 72.8365 12.5727 76.4365 12.5727C76.6926 12.5865 76.9487 12.5444 77.187 12.4495C77.4253 12.3545 77.6401 12.2089 77.8165 12.0227C78.5765 11.2727 79.3765 10.5727 80.2765 9.73267V17.4227C79.4486 16.9145 78.6862 16.3066 78.0065 15.6127C77.5424 15.1824 76.9292 14.9494 76.2965 14.9627C72.7065 14.9627 69.1165 14.9627 65.5165 14.9627C64.7565 14.9627 64.5165 15.1327 64.5165 15.9627C64.5165 18.6727 64.5165 21.3827 64.5165 24.0927C64.5165 24.7527 64.5165 25.0927 65.3865 25.0927C70.1365 25.0927 74.8865 25.0927 79.6365 25.0927C79.8732 25.1041 80.1093 25.0603 80.3263 24.9649C80.5432 24.8694 80.735 24.7249 80.8865 24.5427C81.7065 23.6427 82.5665 22.7727 83.4065 21.8927L83.6965 22.0227Z" fill="#E2362B"/>
<path d="M114.086 1.4027V7.2127C112.329 5.47963 110.093 4.31279 107.666 3.8627C102.846 2.9127 98.476 3.6027 95.266 7.7127C93.6852 9.77743 92.9072 12.3456 93.0764 14.9405C93.2456 17.5354 94.3505 19.9807 96.186 21.8227C97.9056 23.6395 100.227 24.7698 102.717 25.0034C105.208 25.237 107.699 24.558 109.726 23.0927C110.488 22.5844 111.195 21.9978 111.836 21.3427C113.466 19.6827 113.466 19.6827 115.836 19.8127C116.016 20.1627 115.746 20.3827 115.596 20.6427C114.097 23.3532 111.805 25.54 109.027 26.9094C106.249 28.2787 103.119 28.7649 100.056 28.3027C96.654 28.06 93.4002 26.8141 90.706 24.7227C84.006 19.1027 84.606 8.4127 92.126 3.2827C98.346 -0.977298 104.886 -0.977298 111.446 2.6227C111.611 2.75564 111.82 2.82128 112.032 2.80644C112.243 2.7916 112.441 2.69739 112.586 2.5427C113.006 2.1627 113.506 1.8327 114.086 1.4027Z" fill="#E2382D"/>
</svg>
