<svg width="125" height="32" viewBox="0 0 125 32" fill="none" xmlns="http://www.w3.org/2000/svg">
<path d="M51.5277 22.7314C50.295 22.7314 49.0995 22.569 47.9411 22.244C46.7975 21.9043 45.8767 21.4686 45.1787 20.937L46.404 18.2342C47.0723 18.7216 47.8668 19.113 48.7876 19.4083C49.7084 19.7037 50.6292 19.8514 51.55 19.8514C52.5747 19.8514 53.3322 19.7037 53.8223 19.4083C54.3124 19.0982 54.5574 18.692 54.5574 18.1899C54.5574 17.8206 54.4089 17.5179 54.1119 17.2816C53.8297 17.0305 53.4584 16.8311 52.998 16.6834C52.5525 16.5357 51.9436 16.3733 51.1713 16.196C49.9832 15.9154 49.0104 15.6348 48.253 15.3542C47.4955 15.0736 46.8421 14.6231 46.2926 14.0028C45.7579 13.3825 45.4906 12.5554 45.4906 11.5216C45.4906 10.6207 45.7356 9.80836 46.2257 9.08467C46.7158 8.34621 47.451 7.76283 48.4312 7.33452C49.4262 6.90621 50.6366 6.69206 52.0624 6.69206C53.0574 6.69206 54.0302 6.81021 54.9807 7.04652C55.9312 7.28283 56.7629 7.62252 57.4757 8.06559L56.3619 10.7905C54.9213 9.97821 53.4807 9.57206 52.0401 9.57206C51.0302 9.57206 50.2802 9.73452 49.7901 10.0594C49.3148 10.3844 49.0772 10.8127 49.0772 11.3444C49.0772 11.8761 49.352 12.2748 49.9015 12.5406C50.4658 12.7917 51.3198 13.0428 52.4634 13.2939C53.6515 13.5745 54.6243 13.8551 55.3817 14.1357C56.1391 14.4163 56.7851 14.8594 57.3198 15.465C57.8693 16.0705 58.1441 16.8902 58.1441 17.924C58.1441 18.8102 57.8916 19.6225 57.3866 20.361C56.8965 21.0846 56.154 21.6606 55.1589 22.089C54.1639 22.5173 52.9535 22.7314 51.5277 22.7314ZM65.511 17.7911L63.8402 19.4305V22.4656H60.365V6.02744H63.8402V15.332L68.9194 10.5468H73.063L68.0729 15.5979L73.5085 22.4656H69.2981L65.511 17.7911ZM86.2713 10.5468L80.8579 23.1966C80.3084 24.5702 79.6252 25.5376 78.8084 26.0988C78.0064 26.66 77.0337 26.9406 75.8901 26.9406C75.2663 26.9406 74.65 26.8446 74.0411 26.6526C73.4322 26.4606 72.9346 26.1948 72.5485 25.8551L73.8183 23.396C74.0856 23.6323 74.3901 23.817 74.7317 23.9499C75.0881 24.0828 75.4371 24.1493 75.7787 24.1493C76.254 24.1493 76.6401 24.0311 76.9371 23.7948C77.2341 23.5733 77.5015 23.1966 77.7391 22.665L77.7837 22.5542L72.5931 10.5468H76.1797L79.5436 18.633L82.9297 10.5468H86.2713ZM87.9344 6.9579H91.5433V19.5413H99.3626V22.4656H87.9344V6.9579ZM101.134 10.5468H104.609V22.4656H101.134V10.5468ZM102.872 8.88529C102.233 8.88529 101.713 8.70067 101.312 8.33144C100.911 7.96221 100.711 7.50436 100.711 6.9579C100.711 6.41144 100.911 5.95359 101.312 5.58436C101.713 5.21513 102.233 5.03052 102.872 5.03052C103.51 5.03052 104.03 5.20775 104.431 5.56221C104.832 5.91667 105.033 6.35975 105.033 6.89144C105.033 7.46744 104.832 7.94744 104.431 8.33144C104.03 8.70067 103.51 8.88529 102.872 8.88529ZM111.644 10.8127H114.718V13.4711H111.733V22.4656H108.258V13.4711H106.409V10.8127H108.258V10.281C108.258 8.92221 108.659 7.84406 109.461 7.04652C110.278 6.24898 111.421 5.85021 112.892 5.85021C113.411 5.85021 113.901 5.90929 114.362 6.02744C114.837 6.13083 115.231 6.2859 115.543 6.49267L114.629 8.99606C114.228 8.71544 113.76 8.57513 113.226 8.57513C112.171 8.57513 111.644 9.15113 111.644 10.3031V10.8127ZM124.18 21.8896C123.838 22.1406 123.415 22.3326 122.91 22.4656C122.42 22.5837 121.9 22.6428 121.351 22.6428C119.925 22.6428 118.818 22.281 118.031 21.5573C117.259 20.8336 116.873 19.7702 116.873 18.3671V13.4711H115.024V10.8127H116.873V7.91052H120.348V10.8127H123.333V13.4711H120.348V18.3228C120.348 18.825 120.474 19.2163 120.727 19.497C120.994 19.7628 121.365 19.8957 121.841 19.8957C122.39 19.8957 122.858 19.748 123.244 19.4526L124.18 21.8896Z" fill="black"/>
<path d="M27.5145 19.6245C27.5145 20.3033 27.4167 20.8934 27.2211 21.4246C27.0255 21.9558 26.7973 22.4281 26.4712 22.8411C26.1779 23.2543 25.8192 23.6085 25.3954 23.874C24.9716 24.1691 24.5478 24.4052 24.124 24.5823C23.7001 24.7594 23.2437 24.9069 22.7874 24.9955C22.331 25.0544 21.9071 25.084 21.5159 25.084H7.13897V21.7198H21.5159C22.2332 21.7198 22.7874 21.5427 23.1786 21.159C23.5698 20.7754 23.7654 20.2737 23.7654 19.6245C23.7654 19.3 23.7001 19.0344 23.6024 18.7688C23.5046 18.5032 23.3416 18.2965 23.1459 18.09C22.9504 17.9129 22.7222 17.7654 22.4287 17.6473C22.1353 17.5293 21.842 17.4998 21.4833 17.4998H12.9419C12.3225 17.4998 11.7031 17.4112 10.9859 17.2047C10.3012 16.9982 9.64923 16.703 9.02981 16.2603C8.443 15.8177 7.92138 15.257 7.53017 14.5487C7.13897 13.8405 6.94336 12.9846 6.94336 11.9813C6.94336 10.978 7.13897 10.1222 7.53017 9.41393C7.92138 8.70569 8.41039 8.14498 9.02981 7.70232C9.61663 7.25967 10.2686 6.93505 10.9859 6.75799C11.6705 6.55142 12.3225 6.46289 12.9419 6.46289H23.6676V9.82708H12.9419C12.2247 9.82708 11.6705 10.0336 11.2793 10.4173C10.888 10.8009 10.6925 11.3321 10.6925 11.9518C10.6925 12.601 10.888 13.1028 11.2793 13.4864C11.6705 13.8701 12.2247 14.047 12.9419 14.047H21.5159H21.5485C21.9397 14.047 22.3635 14.1061 22.8199 14.1946C23.2764 14.2831 23.7328 14.4307 24.1566 14.6078C24.613 14.7849 25.0368 15.0505 25.428 15.316C25.8192 15.6111 26.1779 15.9652 26.5039 16.3488C26.8298 16.762 27.0581 17.2342 27.2536 17.7654C27.4167 18.3556 27.5145 18.9457 27.5145 19.6245Z" fill="black"/>
<path d="M19.7887 28.1822V31.5464H0V16.1125H3.7165V28.1822H19.7887Z" fill="#129ED9"/>
<path d="M33.4157 0V15.434H29.6666V3.36418H13.627V0H33.4157Z" fill="#129ED9"/>
</svg>
