<svg width="122" height="58" viewBox="0 0 122 58" fill="none" xmlns="http://www.w3.org/2000/svg">
<path d="M21.7821 28.1282C21.7821 27.5289 21.7821 26.9259 21.7821 26.3229C21.774 26.2144 21.7962 26.1057 21.8462 26.009C21.8961 25.9122 21.972 25.8313 22.0653 25.7751C24.5275 23.9696 26.2244 21.3075 26.8219 18.3133C27.4194 15.319 26.8741 12.2096 25.2935 9.5973C20.7343 2.093 10.6378 2.0452 5.88744 8.97225C4.08371 11.5903 3.36943 14.8075 3.89577 17.9429C4.42211 21.0783 6.14777 23.8859 8.70753 25.7714C8.79355 25.8236 8.8641 25.8978 8.91192 25.9864C8.95974 26.0749 8.98311 26.1746 8.97961 26.2751C8.97961 27.5253 8.97961 28.7729 8.97961 30.0181C8.97961 30.3086 8.92446 30.3858 8.63767 30.2497C7.79211 29.8088 6.9831 29.301 6.21835 28.7312C5.94627 28.5364 6.07496 28.3819 6.21835 28.2385C6.51249 27.9554 6.4169 27.7753 6.13379 27.5436C5.36176 26.9082 4.6714 26.1795 4.07847 25.3743C3.8836 25.1133 3.74388 25.1096 3.54534 25.3302C3.2659 25.6464 3.10045 25.5324 2.89087 25.2199C2.28472 24.3194 1.757 23.3685 1.31353 22.3778C1.18852 22.0947 1.18117 21.9035 1.52679 21.8226C1.8724 21.7417 1.91285 21.5799 1.78416 21.249C1.41535 20.2744 1.15518 19.262 1.00836 18.2304C0.964239 17.9399 0.868643 17.8627 0.585531 17.9436C0.239915 18.0539 0.100197 17.9436 0.0707828 17.5502C-0.0235943 16.4492 -0.0235943 15.3421 0.0707828 14.2411C0.100197 13.8954 0.206824 13.7447 0.54141 13.8734C0.875997 14.0021 0.971593 13.8513 1.01571 13.5351C1.15679 12.5019 1.4184 11.4888 1.79519 10.5165C1.90917 10.2187 1.84299 10.0753 1.55252 10.0054C1.16646 9.90982 1.18485 9.68922 1.32824 9.38404C1.78371 8.38552 2.32501 7.42842 2.94602 6.52351C3.12986 6.26246 3.26222 6.20731 3.47548 6.4463C3.68873 6.68529 3.91301 6.69264 4.14465 6.37644C4.74178 5.57533 5.44003 4.85483 6.22203 4.23288C6.45366 4.04537 6.50514 3.88726 6.27718 3.67401C6.04922 3.46076 6.04187 3.22545 6.36542 2.99381C7.23971 2.37301 8.1632 1.82458 9.12668 1.35397C9.41347 1.21425 9.59363 1.22896 9.66349 1.5709C9.73335 1.91284 9.88777 1.98637 10.2407 1.83562C11.1358 1.461 12.0747 1.20155 13.0351 1.0635C13.3219 1.02306 13.5462 0.967905 13.4028 0.585521C13.2594 0.203136 13.4028 0.103863 13.7962 0.0744488C14.8638 -0.0248162 15.9384 -0.0248162 17.006 0.0744488C17.3259 0.103863 17.4252 0.225197 17.3406 0.511985C17.2303 0.898046 17.4031 1.0157 17.7671 1.06718C18.7385 1.20573 19.6885 1.46639 20.5945 1.84298C20.874 1.95696 21.0358 1.94593 21.0983 1.62972C21.1865 1.18483 21.4255 1.21793 21.7564 1.38706C22.7025 1.86032 23.6098 2.4074 24.4699 3.02322C24.753 3.22545 24.7677 3.3909 24.5434 3.61518C24.3191 3.83947 24.3449 4.04537 24.6169 4.26597C25.405 4.91078 26.1091 5.65193 26.7127 6.47204C26.9039 6.72574 27.0804 6.69264 27.2385 6.50513C27.5216 6.18157 27.6834 6.2882 27.8929 6.60073C28.5146 7.53231 29.0534 8.51655 29.5034 9.54215C29.61 9.78849 29.5879 9.90982 29.3195 9.99071C28.9261 10.0863 28.8746 10.2885 29.0254 10.6599C29.3845 11.6111 29.6325 12.6005 29.7644 13.6087C29.8049 13.8844 29.8931 13.958 30.1321 13.8807C30.5255 13.7631 30.6505 13.9028 30.6836 14.322C30.7663 15.405 30.7663 16.4928 30.6836 17.5759C30.6542 17.9436 30.5292 18.0539 30.202 17.9436C29.8747 17.8333 29.7828 17.962 29.7387 18.2818C29.6012 19.3241 29.3433 20.347 28.9702 21.3299C28.8563 21.6277 28.9188 21.7674 29.2092 21.8373C29.5769 21.9292 29.5769 22.113 29.4409 22.4403C28.9828 23.4535 28.4339 24.4233 27.801 25.3376C27.6319 25.5802 27.5032 25.6244 27.3047 25.4001C27.0326 25.1023 26.8524 25.1648 26.6097 25.4846C26.0064 26.2816 25.3075 27.0015 24.5287 27.6282C24.3081 27.8084 24.264 27.9518 24.4809 28.154C24.7824 28.4371 24.6978 28.6283 24.3706 28.8599C23.6533 29.3702 22.9028 29.832 22.1241 30.2424C21.8483 30.3895 21.7564 30.3196 21.7785 30.0218C21.7895 29.3931 21.7821 28.7606 21.7821 28.1282Z" fill="#3F55A2"/>
<path d="M15.3879 16.4507L17.0094 14.2446V49.5123L18.2632 48.3394L18.3257 48.3688C17.3624 51.3274 16.4027 54.2847 15.4468 57.2408H15.3475L12.4502 48.3467C12.987 48.685 13.2701 49.1188 13.7444 49.4498V14.3733L13.829 14.3439L15.3879 16.4507Z" fill="#3F55A2"/>
<path d="M19.6975 5.07495L22.6095 13.708L22.5176 13.7595L21.3484 12.6785V46.5049L21.2307 46.5416C20.863 46.0489 20.4954 45.5489 20.0983 45.0709C19.6607 44.501 19.7527 44.4716 19.2784 45.0709C18.9035 45.5858 18.497 46.077 18.0613 46.5416V12.6638L16.8296 13.7999L16.7598 13.7632C17.7268 10.9063 18.6901 8.04946 19.6975 5.07495Z" fill="#3F55A2"/>
<path d="M11.0749 5.08228L14.0163 13.7631L13.9501 13.8109L12.7257 12.6638V46.5416L12.6301 46.582L11.4021 44.9532C11.0896 44.5341 11.0896 44.5341 10.777 44.9532L9.44237 46.6997V12.6711L8.24742 13.7742L8.15918 13.719C9.11882 10.8769 10.0748 8.0384 11.0749 5.08228Z" fill="#3F55A2"/>
<path d="M38.3826 9.27009C38.3826 8.24059 38.3826 7.21109 38.3826 6.18527C38.3826 5.89113 38.4709 5.81759 38.7503 5.81759C39.1176 5.84149 39.486 5.84149 39.8533 5.81759C40.1475 5.79921 40.221 5.89848 40.221 6.18527C40.221 7.76996 40.221 9.35833 40.221 10.943C40.221 11.0827 40.1328 11.2886 40.3865 11.3328C40.6402 11.3769 40.7321 11.2408 40.7284 10.9835C40.7284 9.42451 40.7284 7.86923 40.7284 6.31396C40.7284 5.89848 40.8497 5.78083 41.2432 5.81759C41.6366 5.85436 42.2359 5.67788 42.4822 5.89481C42.7286 6.11174 42.5668 6.72208 42.5705 7.15594C42.5705 8.42075 42.5705 9.68188 42.5705 10.943C42.5705 11.1342 42.5337 11.3511 42.8352 11.3364C43.1367 11.3217 43.0485 11.1011 43.0485 10.943C43.0485 9.37304 43.0485 7.79938 43.0485 6.22939C43.0485 5.89848 43.1367 5.77715 43.4676 5.81759C43.9309 5.87642 44.5339 5.61537 44.8207 5.92054C45.1074 6.22572 44.8905 6.78826 44.8942 7.24051C44.8942 8.45752 44.8942 9.67821 44.8942 10.8952C44.8942 11.0864 44.8133 11.3254 45.1479 11.3511C45.2876 11.3511 45.2545 11.5056 45.2545 11.6012C45.2545 12.2924 45.2545 12.9836 45.2545 13.6749C45.2545 13.855 45.203 13.9543 45.0045 13.9322H44.8611C43.9971 13.9322 43.9824 13.9322 43.9824 13.0792C43.9824 12.7557 43.8059 12.7704 43.5926 12.7704C42.019 12.7704 40.4453 12.7704 38.8753 12.7704C38.5076 12.7704 38.3642 12.7005 38.3789 12.2961C38.4047 11.296 38.3863 10.2996 38.3826 9.27009Z" fill="#4157A3"/>
<path d="M62.2378 29.5586V31.8933C62.2378 32.0625 62.19 32.261 62.4731 32.261C62.6385 32.261 62.5981 32.4375 62.5981 32.5441C62.5981 33.2354 62.5981 33.9229 62.5981 34.6141C62.5981 34.8568 62.5062 34.9267 62.2856 34.9009C62.2414 34.9009 62.1973 34.9009 62.1532 34.9009C61.3443 34.9009 61.3296 34.9009 61.3186 34.0884C61.3186 33.8163 61.2266 33.7207 60.9509 33.7207C60.2155 33.7207 59.5096 33.7207 58.7926 33.7207C58.5352 33.7207 58.4249 33.7795 58.4249 34.0626C58.4249 34.8936 58.3992 34.8752 57.5572 34.8936C57.2263 34.8936 57.1234 34.8164 57.1381 34.4818C57.1675 33.8383 57.1381 33.1912 57.1381 32.5441C57.1381 32.375 57.1381 32.2242 57.3734 32.2279C57.6087 32.2316 57.5756 32.0036 57.6161 31.8602C58.0117 30.355 58.1948 28.8019 58.1602 27.2459C58.1602 26.8525 58.2595 26.7532 58.6456 26.7642C59.7192 26.79 60.7891 26.7642 61.8627 26.7642C62.1311 26.7642 62.2304 26.8414 62.212 27.1319C62.2267 27.9482 62.2378 28.7534 62.2378 29.5586ZM60.3994 30.2461C60.3994 29.6762 60.3994 29.1027 60.3994 28.5328C60.3994 28.3269 60.3663 28.2019 60.1163 28.2092C59.8662 28.2166 59.8773 28.36 59.8773 28.5291C59.8714 29.6401 59.7606 30.748 59.5464 31.8382C59.5206 31.9926 59.3809 32.2757 59.7302 32.2353C59.9729 32.2059 60.4067 32.4853 60.3994 31.908C60.392 31.3308 60.392 30.8013 60.392 30.2461H60.3994Z" fill="#4157A3"/>
<path d="M48.1701 19.6865C48.1701 19.6571 48.1701 19.5394 48.1701 19.4254C48.2326 18.0614 48.7253 17.5466 50.0931 17.5098C50.5306 17.5098 50.6262 17.3664 50.6152 16.9546C50.5895 16.2193 50.4828 16.3186 51.266 16.3112H51.5307C52.3948 16.3112 52.4021 16.3112 52.4389 17.1826C52.4389 17.4069 52.5087 17.4878 52.7404 17.4951C53.0477 17.498 53.3541 17.5288 53.6559 17.5871C53.9713 17.6368 54.2607 17.7917 54.4769 18.0267C54.6932 18.2616 54.8237 18.5628 54.8472 18.8813C54.9262 19.4182 54.9373 19.963 54.8803 20.5027C54.7847 21.4955 54.3177 21.9734 53.325 22.0948C53.1953 22.1186 53.0631 22.126 52.9316 22.1168C52.5639 22.0801 52.4168 22.1977 52.4315 22.6022C52.4609 23.264 52.5749 23.2346 51.8101 23.2383H51.5013C50.663 23.2383 50.6556 23.2383 50.6078 22.433C50.6078 22.2014 50.5086 22.1205 50.2916 22.1242C48.5636 22.1499 48.104 21.33 48.1701 19.6865ZM50.6005 19.874C50.6005 19.5063 50.6005 19.1717 50.6005 18.8188C50.6005 18.532 50.4314 18.5504 50.2328 18.668C50.1683 18.7167 50.1156 18.7794 50.0786 18.8514C50.0417 18.9233 50.0215 19.0027 50.0196 19.0835C49.9644 19.5648 49.9644 20.0508 50.0196 20.5321C50.0253 20.6135 50.0478 20.6928 50.0858 20.7649C50.1238 20.8371 50.1764 20.9005 50.2402 20.9513C50.3211 21.0101 50.4093 21.08 50.5196 21.0285C50.6299 20.977 50.5931 20.8814 50.5931 20.7969C50.6005 20.488 50.5968 20.1829 50.5968 19.8593L50.6005 19.874ZM53.075 19.8372C53.1098 19.5025 53.0735 19.1642 52.9683 18.8445C52.9427 18.7684 52.893 18.7028 52.8266 18.6576C52.7602 18.6125 52.6808 18.5903 52.6007 18.5945C52.3837 18.6276 52.4573 18.8151 52.4536 18.9622C52.4536 19.5321 52.4536 20.102 52.4536 20.6719C52.4536 20.8042 52.3617 21.0065 52.5455 21.0395C52.7293 21.0726 52.9132 20.9292 52.983 20.7491C53.0733 20.4541 53.1034 20.144 53.0713 19.8372H53.075Z" fill="#4157A3"/>
<path d="M42.8093 19.7671C42.8093 20.7966 42.8093 21.8224 42.8093 22.8483C42.8093 23.1681 42.7064 23.2601 42.4085 23.2417C41.9563 23.2159 41.3717 23.3851 41.0812 23.1608C40.7908 22.9365 40.9893 22.3151 40.9819 21.8666C40.9819 20.6201 40.9819 19.3737 40.9819 18.1273C40.9819 17.9398 41.0371 17.7339 40.7282 17.7265C40.4194 17.7192 40.4782 17.9434 40.4746 18.1162C40.4746 19.2891 40.4746 20.4657 40.4746 21.6386C40.4832 21.9175 40.451 22.1963 40.379 22.4659C40.3353 22.6458 40.2388 22.8084 40.1018 22.9329C39.9648 23.0575 39.7937 23.1381 39.6105 23.1645C39.3929 23.2025 39.1731 23.2258 38.9524 23.2343C38.0332 23.2711 37.9339 23.1571 38.0699 22.2416C38.0699 22.1276 38.0994 22.0394 38.2354 22.0283C38.6288 22.0026 38.6362 21.7158 38.6362 21.4253C38.6362 19.8995 38.6582 18.3736 38.6362 16.8478C38.6362 16.3808 38.7685 16.2889 39.2024 16.2999C40.2576 16.333 41.3165 16.3293 42.3718 16.2999C42.7394 16.2999 42.835 16.4102 42.824 16.7705C42.7909 17.7706 42.8093 18.756 42.8093 19.7671Z" fill="#3F55A2"/>
<path d="M99.9801 19.7819C99.9801 20.8077 99.9801 21.8372 99.9801 22.863C99.9801 23.1425 99.9287 23.2748 99.6125 23.2307C99.1345 23.1829 98.5094 23.4329 98.2116 23.1241C97.9138 22.8152 98.1417 22.2601 98.1381 21.8078C98.1381 20.5871 98.1381 19.3701 98.1381 18.1531C98.1381 17.9729 98.2484 17.7045 97.888 17.7156C97.5277 17.7266 97.6601 17.9656 97.6564 18.1347C97.6564 19.2377 97.6564 20.3408 97.6564 21.4438C97.6587 21.6784 97.6465 21.913 97.6196 22.1461C97.5277 22.8483 97.252 23.1241 96.5387 23.194C96.2188 23.2234 95.8952 23.194 95.5717 23.2344C95.3364 23.2344 95.204 23.1756 95.2297 22.9145C95.2555 22.6535 95.2297 22.4733 95.2297 22.2527C95.2297 22.1534 95.2297 22.0358 95.3658 22.0247C95.8401 21.999 95.818 21.6571 95.818 21.3262C95.818 19.815 95.8364 18.3002 95.818 16.789C95.818 16.3699 95.9467 16.2853 96.3328 16.2963C97.4358 16.3184 98.5057 16.3147 99.5941 16.2963C99.9066 16.2963 99.9912 16.3809 99.9838 16.6897C99.9691 17.7266 99.9801 18.7561 99.9801 19.7819Z" fill="#4157A3"/>
<path d="M63.7888 9.27007C63.7888 8.24057 63.7888 7.21475 63.7888 6.18893C63.7888 5.90214 63.8697 5.79919 64.1565 5.82125C64.5237 5.84717 64.8923 5.84717 65.2595 5.82125C65.5647 5.79919 65.6272 5.9242 65.6272 6.18893C65.6272 6.7478 65.6272 7.29196 65.6272 7.86186C65.6272 8.03835 65.5574 8.26263 65.8772 8.26631C66.1971 8.26999 66.1456 8.07144 66.1456 7.88025C66.1456 7.29196 66.1456 6.70736 66.1456 6.11907C66.1456 5.89111 66.2081 5.80287 66.4435 5.8139C66.8553 5.8139 67.2671 5.8139 67.6789 5.8139C67.9105 5.8139 67.9767 5.89479 67.9767 6.11907C67.9767 8.21974 67.9767 10.3192 67.9767 12.4174C67.9767 12.6601 67.9031 12.763 67.6494 12.752C67.2686 12.7318 66.8869 12.7318 66.506 12.752C66.2045 12.752 66.1383 12.638 66.1383 12.3622C66.1383 11.6269 66.1383 10.9246 66.1383 10.204C66.1383 10.0091 66.1604 9.81423 65.8589 9.83629C65.5574 9.85835 65.6199 10.0348 65.6199 10.204C65.6199 10.9393 65.6199 11.6747 65.6199 12.41C65.6199 12.6821 65.5427 12.7777 65.2743 12.7777C64.8921 12.7575 64.5092 12.7575 64.1271 12.7777C63.844 12.7777 63.7852 12.6711 63.7852 12.41C63.7925 11.3548 63.7888 10.2996 63.7888 9.27007Z" fill="#3F55A2"/>
<path d="M109.793 19.7674C109.793 20.8079 109.793 21.8484 109.793 22.8889C109.793 23.1537 109.724 23.2566 109.448 23.2566C109.08 23.2382 108.687 23.2566 108.304 23.2566C108.051 23.2566 107.977 23.1647 107.985 22.922C107.985 22.1867 107.985 21.4513 107.985 20.716C107.985 20.4954 107.985 20.3042 107.676 20.3152C107.367 20.3262 107.466 20.5505 107.466 20.6829C107.466 21.4182 107.448 22.1536 107.466 22.8889C107.466 23.161 107.382 23.2566 107.117 23.2566C106.723 23.2382 106.326 23.2566 105.929 23.2566C105.705 23.2566 105.624 23.1831 105.624 22.9478C105.624 20.8373 105.624 18.7256 105.624 16.6127C105.624 16.3663 105.723 16.3185 105.937 16.3222C106.348 16.3222 106.76 16.3222 107.172 16.3222C107.407 16.3222 107.47 16.3994 107.466 16.6274C107.466 17.2304 107.466 17.8297 107.466 18.4327C107.466 18.6202 107.466 18.8004 107.727 18.8004C107.988 18.8004 107.988 18.6312 107.988 18.4327C107.988 17.8444 107.988 17.2561 107.988 16.6715C107.988 16.3957 108.073 16.3038 108.356 16.3259C108.723 16.3481 109.092 16.3481 109.459 16.3259C109.764 16.3259 109.827 16.4362 109.827 16.6936C109.782 17.712 109.793 18.7562 109.793 19.7674Z" fill="#3F55A2"/>
<path d="M51.0789 30.0034C51.8731 30.2902 51.9246 30.9373 51.9099 31.6249C51.9215 32.0204 51.9018 32.4163 51.851 32.8088C51.8312 33.0239 51.7376 33.2255 51.5862 33.3796C51.4348 33.5337 51.2348 33.6308 51.0201 33.6544C49.9832 33.7978 48.939 33.6912 47.8985 33.7206C47.7036 33.7206 47.6963 33.603 47.6963 33.4596C47.6963 31.3319 47.6963 29.2031 47.6963 27.073C47.6963 26.8671 47.7588 26.7899 47.972 26.7936C48.7074 26.7936 49.4722 26.7936 50.2186 26.7936C51.2186 26.8414 51.6893 27.3525 51.7628 28.3525V28.5695C51.7959 29.4372 51.7554 29.5217 51.0789 30.0034ZM49.5273 31.5329C49.5273 31.7536 49.5273 31.9742 49.5273 32.1911C49.5273 32.3087 49.4648 32.4889 49.6781 32.4926C49.7191 32.5 49.7612 32.4992 49.802 32.4902C49.8427 32.4813 49.8813 32.4644 49.9155 32.4404C49.9497 32.4165 49.9788 32.3861 50.0011 32.3508C50.0235 32.3156 50.0386 32.2763 50.0457 32.2352C50.1101 31.7705 50.1101 31.2991 50.0457 30.8344C50.0163 30.6358 49.8398 30.5917 49.6781 30.6027C49.5163 30.6138 49.5457 30.7976 49.5384 30.9152C49.5236 31.1211 49.5273 31.327 49.5273 31.5329ZM50.0788 28.6246C50.0768 28.52 50.0682 28.4156 50.0531 28.3121C50.0501 28.2681 50.0379 28.2251 50.0174 28.1861C49.9968 28.147 49.9683 28.1127 49.9336 28.0854C49.899 28.058 49.859 28.0382 49.8163 28.0272C49.7735 28.0162 49.729 28.0143 49.6854 28.0216C49.4611 28.0474 49.5383 28.2349 49.531 28.3672C49.5126 28.5838 49.5126 28.8015 49.531 29.018C49.531 29.1872 49.3802 29.4739 49.7222 29.4923C50.0641 29.5107 50.0899 29.2533 50.0899 29.007C50.0825 28.9224 50.0788 28.8342 50.0788 28.6246Z" fill="#4157A3"/>
<path d="M85.2686 20.6681C85.0553 21.3814 84.8311 22.0873 84.6399 22.8043C84.5553 23.1168 84.434 23.2896 84.0773 23.2455C83.7207 23.2014 83.2096 23.3962 82.9743 23.1646C82.739 22.933 82.9044 22.4292 82.9008 22.0616C82.9008 20.2857 82.9008 18.5061 82.9008 16.7302C82.9008 16.3626 83.0074 16.2964 83.3456 16.3001C84.4487 16.3001 84.4487 16.3001 84.4487 17.4031V18.9767C84.6252 18.9767 84.5957 18.8334 84.6215 18.7525C84.7796 18.2965 84.9267 17.8333 85.0737 17.3737C85.4414 16.2302 85.4414 16.2339 86.6658 16.3074C86.868 16.3074 86.9489 16.3662 86.9489 16.5832C86.9489 18.7132 86.9489 20.8421 86.9489 22.9697C86.9489 23.1499 86.8974 23.2492 86.7025 23.2381H86.6584C85.401 23.3337 85.401 23.3337 85.4046 22.0836V20.6791L85.2686 20.6681Z" fill="#4157A3"/>
<path d="M84.8753 8.50524C85.129 7.72944 85.3974 6.95732 85.6106 6.17784C85.6915 5.8984 85.8165 5.81016 86.1033 5.81016C86.3478 5.83514 86.5942 5.83514 86.8387 5.81016C87.1585 5.77707 87.2725 5.86531 87.2688 6.21461C87.2517 8.25399 87.2517 10.2946 87.2688 12.3364C87.2688 12.6747 87.1696 12.796 86.8423 12.7446C86.7689 12.739 86.6952 12.739 86.6217 12.7446C85.7136 12.7446 85.7136 12.7446 85.7136 11.8143C85.7136 11.2886 85.7136 10.7591 85.7136 10.2296C85.6978 10.1539 85.6744 10.08 85.6437 10.009C85.401 10.8253 85.1694 11.5459 84.9782 12.2739C84.8863 12.6416 84.7429 12.8107 84.3495 12.7519C83.9561 12.6931 83.5259 12.9063 83.2906 12.6637C83.0553 12.421 83.2317 11.9908 83.2281 11.6415C83.2281 9.83255 83.2281 8.02726 83.2281 6.22196C83.2281 5.8837 83.3237 5.80648 83.6509 5.81016C84.7833 5.81016 84.7833 5.81016 84.7797 6.96467V8.48318L84.8753 8.50524Z" fill="#4157A3"/>
<path d="M46.0341 20.5947C45.8098 21.33 45.5634 22.0654 45.3796 22.8007C45.2877 23.1684 45.1259 23.2787 44.7729 23.2346C44.42 23.1905 43.942 23.389 43.7103 23.1574C43.4787 22.9257 43.6442 22.4588 43.6442 22.0985C43.6442 20.2932 43.6442 18.4879 43.6442 16.6826C43.6442 16.37 43.7324 16.2928 44.0376 16.2965C45.2105 16.2965 45.2068 16.2965 45.1811 17.4768C45.1811 17.9547 45.1811 18.4327 45.1811 18.9107L45.2987 18.9328C45.5046 18.3004 45.7142 17.6679 45.9164 17.0355C46.1517 16.3002 46.1517 16.3002 46.9165 16.3002C47.6813 16.3002 47.6923 16.3002 47.6923 17.0907C47.6923 18.9989 47.6923 20.9035 47.6923 22.8118C47.6923 23.1427 47.6004 23.2346 47.2731 23.2346C46.1333 23.2346 46.1333 23.2346 46.1333 22.1316V20.6167L46.0341 20.5947Z" fill="#4157A3"/>
<path d="M61.3589 10.1084C61.1824 10.7004 60.9912 11.296 60.8294 11.8916C60.5757 12.752 60.5794 12.7557 59.6676 12.7557C58.9727 12.7557 58.9727 12.7557 58.9727 12.0608C58.9727 10.1231 58.9727 8.18545 58.9727 6.25146C58.9727 5.88378 59.0683 5.81025 59.4102 5.8176C60.5132 5.8176 60.5132 5.8176 60.5132 6.92064V8.50533C60.686 8.50533 60.6566 8.38399 60.686 8.29943C60.9213 7.56407 61.1677 6.85445 61.3809 6.12278C61.398 6.0325 61.4482 5.95187 61.5216 5.89675C61.5951 5.84163 61.6866 5.81602 61.778 5.82496C63.0245 5.79187 63.0245 5.78451 63.0245 7.02726C63.0245 8.78844 63.0245 10.5496 63.0245 12.3108C63.0245 12.6343 62.9656 12.7741 62.5943 12.7667C61.4912 12.7667 61.4912 12.7667 61.4912 11.6453V10.1268L61.3589 10.1084Z" fill="#4157A3"/>
<path d="M80.8132 10.101C80.5889 10.8584 80.3536 11.6121 80.144 12.3732C80.0668 12.6637 79.9381 12.7997 79.6256 12.7409C79.2395 12.6857 78.7358 12.91 78.4858 12.6416C78.2358 12.3732 78.4196 11.9063 78.4196 11.5386C78.4196 9.77742 78.4196 8.01624 78.4196 6.25139C78.4196 5.92783 78.4711 5.79179 78.8461 5.79915C79.9492 5.82489 79.9492 5.79915 79.9492 6.90218C79.9339 7.4322 79.9659 7.96253 80.0448 8.48687C80.2874 7.75152 80.5485 7.01616 80.7617 6.25139C80.771 6.17827 80.7951 6.10782 80.8326 6.04437C80.8701 5.98091 80.9202 5.92579 80.9797 5.8824C81.0393 5.83901 81.1071 5.80826 81.179 5.79205C81.2509 5.77584 81.3254 5.7745 81.3978 5.78812C82.442 5.81385 82.442 5.78812 82.442 6.84703C82.442 8.66703 82.442 10.487 82.442 12.3107C82.442 12.6379 82.3648 12.7335 82.0302 12.7335C80.9272 12.7335 80.9272 12.7335 80.9272 11.6121V10.1194L80.8132 10.101Z" fill="#4157A3"/>
<path d="M120.349 20.5945C120.118 21.3593 119.875 22.1241 119.662 22.8925C119.592 23.1462 119.493 23.2602 119.213 23.2602C118.823 23.2308 118.32 23.3742 118.062 23.1793C117.805 22.9844 117.97 22.4439 117.97 22.0542C117.97 20.282 117.97 18.5061 117.97 16.7302C117.97 16.3993 118.059 16.3147 118.386 16.3184C119.489 16.3184 119.489 16.3184 119.489 17.4215V18.9657C119.651 18.9657 119.629 18.8444 119.654 18.7635C119.89 18.0539 120.129 17.3479 120.346 16.631C120.35 16.5808 120.366 16.5321 120.39 16.488C120.414 16.4439 120.448 16.4054 120.488 16.3747C120.528 16.344 120.574 16.3218 120.622 16.3096C120.671 16.2974 120.722 16.2954 120.772 16.3037C122 16.2817 122 16.2706 122 17.4876C122 19.2635 122 21.0394 122 22.8116C122 23.1278 121.938 23.2491 121.592 23.2491C120.441 23.2491 120.441 23.2491 120.445 22.102C120.445 21.602 120.445 21.1056 120.445 20.6055L120.349 20.5945Z" fill="#4157A3"/>
<path d="M77.9526 5.82483C77.7581 6.43974 77.6991 7.08951 77.7798 7.7294C77.7798 8.42798 77.6805 9.0273 76.7319 9.281C77.7247 9.56043 77.8055 10.2112 77.7761 10.9392C77.7076 11.4794 77.7527 12.0279 77.9085 12.5496C77.9784 12.7298 77.8607 12.7519 77.7283 12.7519H76.4525C76.2503 12.7519 76.1767 12.6122 76.1216 12.4541C76.0325 12.1587 75.994 11.8504 76.0076 11.5422C76.0076 11.1304 76.0076 10.7186 76.0076 10.3068C76.0076 10.0862 75.8789 9.87663 75.6399 9.89134C75.4009 9.90605 75.4965 10.1524 75.4929 10.2848C75.4929 10.976 75.4708 11.6672 75.4929 12.3548C75.4929 12.6489 75.4377 12.785 75.1252 12.7592C74.7443 12.739 74.3626 12.739 73.9817 12.7592C73.7537 12.7592 73.6729 12.6857 73.6729 12.4541C73.6729 10.3399 73.6729 8.22576 73.6729 6.11529C73.6729 5.87263 73.7648 5.8138 73.9854 5.82115C74.3935 5.82115 74.8053 5.82115 75.2171 5.82115C75.4598 5.82115 75.5112 5.91307 75.5076 6.13C75.5076 6.86535 75.5076 7.60071 75.5076 8.33606C75.5076 8.46475 75.4487 8.68168 75.6436 8.70374C75.8385 8.7258 75.9377 8.53829 75.9745 8.35445C76.0009 8.21009 76.0144 8.06367 76.015 7.91691C76.015 7.54924 76.015 7.18156 76.037 6.81388C76.0738 5.91675 76.1657 5.8285 77.0518 5.8285L77.9526 5.82483Z" fill="#4157A3"/>
<path d="M59.5682 19.7526C59.5682 19.1202 59.5277 18.4878 59.5682 17.8628C59.5676 17.4458 59.7238 17.0439 60.0058 16.7367C60.2877 16.4296 60.6749 16.2396 61.0903 16.2046C61.567 16.1073 62.0611 16.1403 62.5206 16.3002C62.8262 16.3814 63.0992 16.555 63.3025 16.7971C63.5059 17.0392 63.6295 17.3382 63.6567 17.6532C63.7818 19.0549 63.7818 20.465 63.6567 21.8668C63.6358 22.2009 63.5075 22.5192 63.2908 22.7743C63.0741 23.0294 62.7807 23.2076 62.4544 23.2823C61.9178 23.4479 61.3438 23.4479 60.8072 23.2823C60.4733 23.1993 60.1745 23.0119 59.9543 22.7474C59.7341 22.4829 59.604 22.1551 59.5829 21.8116C59.5194 21.127 59.5144 20.4381 59.5682 19.7526ZM61.3661 19.8004C61.3661 20.4292 61.3661 21.0579 61.3661 21.6866C61.3661 21.8668 61.333 22.1168 61.6014 22.1352C61.8698 22.1536 61.8845 21.8815 61.8845 21.6903C61.8845 20.4034 61.8845 19.1166 61.8845 17.826C61.8845 17.6495 61.8845 17.3995 61.6272 17.3995C61.3698 17.3995 61.3661 17.6385 61.3661 17.826C61.3698 18.4842 61.3735 19.1423 61.3735 19.8004H61.3661Z" fill="#4157A3"/>
<path d="M77.9518 19.7305C77.9518 19.2488 77.9518 18.7635 77.9518 18.2819C77.9187 16.5905 79.0291 16.028 80.452 16.1824C80.9006 16.1949 81.326 16.3845 81.6353 16.7096C81.9447 17.0348 82.1127 17.4692 82.1028 17.9179C82.1911 19.1909 82.1911 20.4686 82.1028 21.7417C82.095 22.121 81.9535 22.4854 81.7033 22.7706C81.4531 23.0559 81.1102 23.2436 80.7351 23.3006C80.2511 23.4215 79.7438 23.4126 79.2644 23.2749C78.9328 23.1955 78.6342 23.0147 78.4101 22.7577C78.1861 22.5007 78.0477 22.1803 78.0143 21.841C77.9474 21.1396 77.9265 20.4346 77.9518 19.7305ZM79.7901 19.7526C79.7901 20.4107 79.7901 21.0725 79.7901 21.7307C79.7901 21.8961 79.7718 22.1204 80.0181 22.1351C80.2644 22.1498 80.2975 21.9108 80.3012 21.7307C80.3012 20.4291 80.3012 19.1275 80.3012 17.8259C80.3012 17.6531 80.3012 17.3957 80.0438 17.3957C79.7865 17.3957 79.7865 17.6421 79.7828 17.8223C79.7901 18.4657 79.7901 19.1238 79.7901 19.7526Z" fill="#4157A3"/>
<path d="M56.697 30.2681C56.697 30.9005 56.7191 31.5292 56.697 32.1579C56.697 32.5521 56.5568 32.9335 56.3015 33.2338C56.0463 33.5342 55.6926 33.7341 55.3035 33.7978C54.8181 33.9119 54.3113 33.898 53.8328 33.7573C53.5058 33.6853 53.2102 33.5111 52.9887 33.2599C52.7673 33.0088 52.6315 32.6936 52.6011 32.3601C52.4871 30.9714 52.4871 29.5757 52.6011 28.187C52.6256 27.8385 52.7654 27.5081 52.9984 27.2478C53.2314 26.9875 53.5443 26.8122 53.888 26.7494C54.386 26.6115 54.9121 26.6115 55.4102 26.7494C55.7645 26.8297 56.0823 27.0251 56.3138 27.3052C56.5454 27.5852 56.6775 27.9341 56.6897 28.2973C56.7191 28.9554 56.6897 29.6173 56.6897 30.2754L56.697 30.2681ZM54.3843 30.2423C54.3843 30.9299 54.3843 31.6174 54.3843 32.305C54.3843 32.4557 54.4064 32.6102 54.6013 32.6285C54.7961 32.6469 54.8366 32.4962 54.8623 32.3454C54.8785 32.274 54.8895 32.2015 54.8954 32.1285C54.8954 30.8563 54.8954 29.5805 54.8954 28.3083C54.8954 28.1429 54.9138 27.8782 54.6344 27.8818C54.3549 27.8855 54.3807 28.1282 54.3807 28.312C54.377 28.9554 54.3843 29.5989 54.3843 30.2423Z" fill="#4157A3"/>
<path d="M54.0537 9.25892C54.0537 8.24781 54.0537 7.23302 54.0537 6.22191C54.0537 5.92776 54.1162 5.81011 54.4398 5.81746C55.3761 5.83952 56.3162 5.83952 57.2599 5.81746C57.5614 5.81746 57.6275 5.91673 57.6275 6.18514C57.6275 7.03447 57.6275 7.03447 56.8003 7.03447C56.678 7.04647 56.5549 7.04647 56.4326 7.03447C55.9473 6.94256 55.848 7.17419 55.8737 7.61173C55.9142 8.29929 55.8112 8.18163 56.4657 8.19634H56.6863C57.8996 8.21472 58.2599 8.5824 58.2599 9.7847C58.2599 10.3583 58.2599 10.9319 58.2599 11.5018C58.2342 12.2923 57.929 12.6305 57.1569 12.7077C56.2193 12.7997 55.2781 12.7077 54.3405 12.7482C54.05 12.7482 54.0537 12.5864 54.0537 12.3805C54.0537 11.34 54.0537 10.2995 54.0537 9.25525V9.25892ZM55.8921 10.4355C55.8921 10.7002 55.8921 10.9613 55.8921 11.226C55.8921 11.34 55.8222 11.5165 56.0281 11.5312C56.234 11.5459 56.3738 11.4907 56.3958 11.2995C56.4655 10.733 56.4655 10.16 56.3958 9.59351C56.3774 9.40232 56.2009 9.35452 56.0281 9.3582C55.8553 9.36187 55.8774 9.53468 55.8737 9.64498C55.8921 9.90971 55.8921 10.1708 55.8921 10.4355Z" fill="#4157A3"/>
<path d="M66.2781 19.7929C66.2781 20.4254 66.2781 21.0541 66.2781 21.6865C66.2781 21.8814 66.256 22.1387 66.5612 22.1424C66.8664 22.1461 66.8517 21.8997 66.8664 21.7012C66.8811 21.5026 66.8664 21.2306 66.8664 20.9953C66.8664 20.3592 66.8259 20.4474 67.4399 20.4401C67.7635 20.4401 68.0871 20.4401 68.4069 20.4401C68.6459 20.4401 68.7195 20.521 68.7011 20.7452C68.6753 21.1129 68.7011 21.4806 68.6386 21.8483C68.588 22.2384 68.4067 22.5999 68.1243 22.8737C67.8418 23.1475 67.4748 23.3174 67.0833 23.3557C66.7182 23.4175 66.3454 23.4175 65.9803 23.3557C65.0317 23.194 64.5426 22.7086 64.4654 21.7453C64.3735 20.4135 64.3735 19.0768 64.4654 17.745C64.4956 17.3914 64.6394 17.057 64.8753 16.7919C65.1112 16.5268 65.4266 16.3452 65.7744 16.2743C66.2893 16.142 66.8294 16.142 67.3443 16.2743C67.7094 16.342 68.0398 16.5339 68.2797 16.8173C68.5196 17.1007 68.6541 17.4583 68.6606 17.8296C68.6937 18.3112 68.907 18.9142 68.6312 19.2414C68.3555 19.5687 67.7488 19.2856 67.2892 19.3444C66.9215 19.3885 66.8406 19.2231 66.8627 18.8958C66.8847 18.5686 66.8627 18.131 66.8627 17.7523C66.8627 17.5832 66.8149 17.4178 66.6016 17.4067C66.3884 17.3957 66.2891 17.5501 66.2854 17.7487C66.2854 18.4362 66.2854 19.1275 66.2854 19.815L66.2781 19.7929Z" fill="#4157A3"/>
<path d="M45.0708 26.7974C45.4384 26.8452 45.9642 26.6062 46.2253 26.8893C46.4863 27.1724 46.3944 27.6651 46.4569 28.0695C46.7106 29.7498 46.9643 31.4338 47.2217 33.1104C47.3136 33.7244 47.321 33.7244 46.729 33.7244H46.5084C46.1848 33.7244 45.8024 33.8163 45.5561 33.6766C45.3098 33.5369 45.4311 33.0883 45.398 32.7795C45.3649 32.4706 45.2252 32.4817 45.0083 32.4817C44.7913 32.4817 44.7104 32.5589 44.6884 32.7868C44.6038 33.7244 44.5928 33.7207 43.6442 33.7207C42.6956 33.7207 42.7323 33.7207 42.85 32.8383C43.1 30.9521 43.3721 29.0659 43.6074 27.1761C43.6479 26.8452 43.7729 26.7643 44.078 26.79C44.3832 26.8157 44.6921 26.7974 45.0708 26.7974ZM45.0487 28.6835H44.9899C44.8943 29.4189 44.806 30.1543 44.7068 30.8896C44.6774 31.0992 44.7472 31.2021 44.9641 31.1727C45.1039 31.1727 45.3318 31.2573 45.3024 30.9742C45.2289 30.2315 45.1333 29.463 45.0487 28.6835Z" fill="#4157A3"/>
<path d="M70.4622 9.28852C70.4622 9.84739 70.4622 10.3915 70.4622 10.9614C70.4645 11.1081 70.4781 11.2544 70.5026 11.399C70.5247 11.5608 70.6019 11.6711 70.7894 11.66C70.8268 11.6607 70.8638 11.6535 70.8982 11.6389C70.9326 11.6242 70.9634 11.6025 70.9888 11.575C71.0141 11.5476 71.0334 11.5151 71.0453 11.4797C71.0572 11.4443 71.0615 11.4067 71.0578 11.3696C71.0578 11.0203 71.0836 10.6673 71.0578 10.3143C71.0578 10.0606 71.1056 9.94666 71.3961 9.94666C71.7895 9.96872 72.1866 9.94666 72.5837 9.94666C72.7933 9.94666 72.9109 9.9871 72.9036 10.2334C72.9067 10.6891 72.8711 11.1442 72.7969 11.5939V11.6343C72.5874 12.4505 71.7527 12.9065 70.521 12.877C69.5614 12.855 68.8628 12.377 68.7414 11.5571C68.5644 10.0567 68.5508 8.5416 68.701 7.03833C68.7404 6.75976 68.8695 6.50161 69.0687 6.30297C69.8518 5.39849 71.8336 5.45364 72.5543 6.40225C72.8233 6.84312 72.9444 7.35841 72.8999 7.87296C72.933 8.82524 72.9293 8.82524 71.9844 8.82524C71.0394 8.82524 71.0688 8.82524 71.0688 7.90973C71.0688 7.68912 71.0688 7.46851 71.0688 7.24791C71.0688 7.0273 71.0321 6.917 70.8225 6.88023C70.6129 6.84346 70.4989 7.00892 70.4879 7.20011C70.4659 7.64132 70.4659 8.07886 70.4585 8.52007C70.4585 8.77009 70.4585 9.01643 70.4585 9.25542L70.4622 9.28852Z" fill="#4157A3"/>
<path d="M41.6921 29.7866C41.8992 29.8847 42.0728 30.0416 42.1911 30.2378C42.3095 30.434 42.3674 30.6607 42.3576 30.8896C42.4178 31.4592 42.4005 32.0343 42.3062 32.5993C42.2737 32.8556 42.1696 33.0976 42.0056 33.2973C41.8417 33.497 41.6247 33.6463 41.3796 33.7281C40.7232 33.9606 40.0084 33.9696 39.3464 33.7538C39.0736 33.6811 38.8304 33.5252 38.6504 33.3077C38.4705 33.0902 38.3629 32.822 38.3426 32.5405C38.3426 32.4964 38.3426 32.4522 38.3426 32.4081C38.1588 30.9374 38.2176 30.8712 39.714 30.9374C39.9751 30.9374 40.0817 31.0183 40.0817 31.3051C40.0633 31.6728 40.0817 32.0662 40.0817 32.4486C40.0817 32.6067 40.1075 32.8162 40.3207 32.8162C40.534 32.8162 40.6038 32.6545 40.6259 32.4669C40.6737 32.0147 40.6737 31.5587 40.6259 31.1065C40.5928 30.7389 40.3979 30.4962 40.0045 30.5182C39.4309 30.5513 39.6368 30.1506 39.6037 29.8601C39.5706 29.5696 39.6773 29.4189 39.9824 29.4189C40.5046 29.4189 40.6185 29.2792 40.6296 28.7497C40.6346 28.5041 40.6236 28.2585 40.5965 28.0144C40.5979 27.9775 40.5912 27.9407 40.5769 27.9066C40.5626 27.8726 40.541 27.8421 40.5137 27.8172C40.4864 27.7923 40.454 27.7737 40.4188 27.7627C40.3835 27.7517 40.3463 27.7485 40.3097 27.7533C40.2765 27.7547 40.244 27.7627 40.2139 27.7768C40.1839 27.791 40.1569 27.8109 40.1347 27.8356C40.1124 27.8602 40.0953 27.889 40.0843 27.9204C40.0733 27.9517 40.0687 27.9849 40.0707 28.018C40.0439 28.2067 40.0353 28.3976 40.045 28.5879C40.078 28.9078 39.942 28.9961 39.6442 28.9814C39.3062 28.9611 38.9674 28.9611 38.6294 28.9814C38.3757 28.9814 38.2617 28.9299 38.2617 28.6431C38.2617 27.0621 38.6662 26.4775 40.8355 26.6907C41.1171 26.7221 41.3871 26.8207 41.6227 26.9783C41.8583 27.1358 42.0526 27.3477 42.1892 27.596C42.3258 27.8443 42.4007 28.1218 42.4076 28.4052C42.4145 28.6885 42.3533 28.9693 42.229 29.224C42.115 29.4483 41.9201 29.566 41.6921 29.7866Z" fill="#4157A3"/>
<path d="M110.609 19.7525C110.609 18.7414 110.609 17.7266 110.609 16.7155C110.609 16.3772 110.709 16.2779 111.032 16.3037C111.369 16.3294 111.707 16.3294 112.043 16.3037C112.345 16.2816 112.462 16.3662 112.444 16.6713C112.418 17.1971 112.444 17.7266 112.444 18.256C112.444 18.5722 112.507 18.7083 112.852 18.6789C113.188 18.6432 113.528 18.6593 113.86 18.7267C114.121 18.7445 114.366 18.8619 114.544 19.0548C114.722 19.2476 114.819 19.5012 114.816 19.7635C114.885 20.5684 114.885 21.3779 114.816 22.1828C114.817 22.3166 114.791 22.4493 114.739 22.5727C114.687 22.6961 114.611 22.8076 114.514 22.9005C114.418 22.9934 114.304 23.0657 114.178 23.113C114.053 23.1603 113.92 23.1816 113.786 23.1756C112.834 23.2601 111.878 23.2013 110.922 23.2234C110.635 23.2234 110.628 23.0689 110.628 22.8557C110.618 21.8384 110.612 20.804 110.609 19.7525ZM112.429 20.896C112.429 21.157 112.429 21.4181 112.429 21.6828C112.429 21.8078 112.348 22.0027 112.591 22.0137C112.764 22.0137 112.915 21.9732 112.959 21.7747C113.042 21.2115 113.042 20.6392 112.959 20.076C112.937 19.8738 112.735 19.8113 112.551 19.8334C112.367 19.8554 112.429 20.0356 112.422 20.1496C112.422 20.3996 112.429 20.6459 112.429 20.896Z" fill="#3F55A2"/>
<path d="M100.748 19.7561C100.748 18.7303 100.748 17.7045 100.748 16.6787C100.748 16.3956 100.822 16.2853 101.116 16.311C101.467 16.3367 101.82 16.3367 102.171 16.311C102.472 16.311 102.59 16.3735 102.572 16.6971C102.546 17.164 102.572 17.6346 102.572 18.1016C102.572 18.7891 102.498 18.6862 103.145 18.6972C103.438 18.6868 103.732 18.7077 104.02 18.7597C104.274 18.7839 104.508 18.9032 104.677 19.0936C104.845 19.284 104.935 19.5313 104.929 19.7855C104.965 20.5761 104.969 21.3702 104.929 22.1607C104.899 22.8446 104.561 23.1719 103.862 23.2013C102.925 23.2417 101.987 23.227 101.05 23.2491C100.759 23.2491 100.755 23.0946 100.755 22.8814C100.748 21.8372 100.748 20.7967 100.748 19.7561ZM102.557 20.9033C102.557 21.1643 102.557 21.4291 102.557 21.6901C102.557 21.8151 102.483 22.01 102.726 22.0137C102.895 22.0137 103.05 21.9696 103.094 21.7673C103.171 21.205 103.171 20.6347 103.094 20.0723C103.068 19.8811 102.903 19.8297 102.726 19.8333C102.487 19.8333 102.561 20.0282 102.557 20.1606C102.557 20.4069 102.561 20.6533 102.561 20.9033H102.557Z" fill="#3F55A2"/>
<path d="M49.5826 9.22227C49.5826 8.22586 49.5826 7.22578 49.5826 6.22938C49.5826 5.89111 49.6818 5.80655 50.0054 5.81758C50.6635 5.84331 51.329 5.81758 51.9872 5.81758C53.002 5.85067 53.4321 6.26614 53.4873 7.2699C53.513 7.73895 53.513 8.20906 53.4873 8.67811C53.4432 9.50171 53.0792 9.85835 52.2556 9.93556C51.432 10.0128 51.4173 10.0128 51.4173 10.8584C51.4173 11.3695 51.4173 11.8843 51.4173 12.399C51.4173 12.6748 51.329 12.7667 51.0496 12.7409C50.713 12.7171 50.3751 12.7171 50.0385 12.7409C49.6708 12.7704 49.5531 12.6637 49.5642 12.285C49.6009 11.2776 49.5826 10.2518 49.5826 9.22227ZM51.4209 7.89128C51.4209 8.06776 51.4209 8.24057 51.4209 8.41706C51.4209 8.53471 51.3511 8.70752 51.5533 8.72958C51.5938 8.7398 51.6359 8.74139 51.677 8.73427C51.7182 8.72715 51.7573 8.71147 51.792 8.68824C51.8266 8.66502 51.856 8.63476 51.8783 8.59945C51.9005 8.56413 51.915 8.52454 51.921 8.48324C51.9798 8.09325 51.9798 7.69666 51.921 7.30667C51.8989 7.10812 51.7408 7.04562 51.5533 7.06033C51.3658 7.07503 51.4136 7.24417 51.4099 7.3655C51.4062 7.48683 51.4099 7.72582 51.4099 7.89128H51.4209Z" fill="#4157A3"/>
<path d="M73.54 19.7525C73.54 18.7267 73.54 17.7009 73.54 16.6751C73.54 16.3919 73.6136 16.3074 73.9077 16.3074C74.5805 16.3294 75.2571 16.3074 75.9299 16.3074C76.9741 16.3441 77.4006 16.8037 77.4337 17.8443C77.4337 18.2414 77.4337 18.6348 77.4337 19.0319C77.4337 19.9805 77.066 20.3629 76.1138 20.429C75.3784 20.4805 75.3784 20.4805 75.3784 21.2269C75.3784 21.7821 75.3784 22.3299 75.3784 22.8962C75.3784 23.1425 75.3159 23.2638 75.0585 23.2307C74.5805 23.2013 73.9555 23.4183 73.6503 23.1499C73.3452 22.8814 73.5694 22.2674 73.5584 21.8078C73.5584 21.1203 73.5584 20.429 73.5584 19.7415L73.54 19.7525ZM75.338 18.3884C75.338 18.5612 75.338 18.7561 75.338 18.9105C75.338 19.065 75.3012 19.1973 75.4924 19.2194C75.5284 19.2281 75.5657 19.2296 75.6023 19.2237C75.6388 19.2179 75.6739 19.2048 75.7054 19.1853C75.7368 19.1658 75.7641 19.1403 75.7856 19.1101C75.8071 19.08 75.8224 19.0459 75.8306 19.0098C75.9097 18.5956 75.9097 18.1702 75.8306 17.756C75.8012 17.5759 75.6395 17.5391 75.4961 17.5317C75.2938 17.5317 75.3269 17.6935 75.3233 17.8185C75.3343 18.0208 75.338 18.1972 75.338 18.3884Z" fill="#3F55A2"/>
<path d="M45.8724 9.22231C45.8724 8.21119 45.8724 7.20008 45.8724 6.18897C45.8724 5.8985 45.9606 5.82129 46.2401 5.82129C47.0195 5.84335 47.7953 5.82129 48.5748 5.82129C48.8175 5.82129 48.9425 5.88012 48.8984 6.13749C48.8984 6.18161 48.8984 6.22573 48.8984 6.26986C48.8984 7.19273 48.8984 7.20376 47.9939 7.24052C47.7586 7.24052 47.674 7.32509 47.7034 7.54937C47.7034 7.5935 47.7034 7.63762 47.7034 7.68174C47.7034 8.50533 47.7034 8.51269 48.5307 8.54946C48.7586 8.54946 48.8579 8.62667 48.8285 8.85463C48.8285 8.89875 48.8285 8.94287 48.8285 8.98699C48.8285 9.84 48.8285 9.85839 47.9902 9.89148C47.663 9.89148 47.6519 10.1047 47.7108 10.2922C47.8247 10.6379 47.3909 11.1158 47.9681 11.3365C47.9939 11.3365 48.027 11.3365 48.0564 11.3365C48.3689 11.3695 48.8322 11.182 48.9609 11.4284C49.119 11.7299 49.0123 12.1637 49.0197 12.5498C49.0197 12.741 48.8947 12.752 48.755 12.752C47.8909 12.752 47.0232 12.752 46.1592 12.752C45.8724 12.752 45.865 12.5939 45.8687 12.3843C45.8687 11.3291 45.8687 10.2739 45.8687 9.21863L45.8724 9.22231Z" fill="#4157A3"/>
<path d="M91.7881 19.7342C91.7881 18.7084 91.7881 17.6789 91.7881 16.6531C91.7881 16.3847 91.8579 16.2854 92.1337 16.2854C92.9083 16.305 93.6865 16.305 94.4685 16.2854C94.7479 16.2854 94.8361 16.3773 94.803 16.6531C94.7994 16.7118 94.7994 16.7708 94.803 16.8296C94.803 17.6936 94.803 17.7083 93.9574 17.7193C93.6743 17.7193 93.5897 17.826 93.6228 18.087C93.6228 18.1311 93.6228 18.1753 93.6228 18.2194C93.6228 19.0062 93.6228 19.0172 94.4133 19.0356C94.667 19.0356 94.7589 19.1275 94.7332 19.3665C94.7332 19.4401 94.7332 19.5136 94.7332 19.5871C94.7332 20.3556 94.7332 20.3666 93.9647 20.3777C93.6816 20.3777 93.5971 20.4806 93.6265 20.7453C93.63 20.7746 93.63 20.8043 93.6265 20.8336C93.6265 21.8079 93.6265 21.8153 94.5935 21.83C94.8545 21.83 94.9611 21.8998 94.9611 22.1977C94.9611 23.2676 94.9869 23.2676 93.9169 23.2676C93.3581 23.2676 92.8139 23.2676 92.244 23.2676C91.9131 23.2676 91.7881 23.2014 91.7954 22.8374C91.8065 21.7895 91.7881 20.76 91.7881 19.7342Z" fill="#3F55A2"/>
<path d="M71.9669 20.4584C71.9669 21.2637 71.9669 22.0725 71.9669 22.8778C71.9669 23.194 71.8382 23.2454 71.5734 23.2454C71.2219 23.2271 70.8697 23.2271 70.5182 23.2454C70.2057 23.2675 70.1211 23.1498 70.1211 22.8447C70.1211 21.2894 70.1211 19.7341 70.1395 18.1788C70.1395 17.8112 70.0292 17.7082 69.6689 17.7192C68.974 17.745 69.0622 17.8075 69.0622 17.1199C69.0622 16.311 69.0622 16.311 69.8601 16.311C70.8013 16.311 71.7389 16.311 72.6802 16.311C72.9486 16.311 73.0478 16.3846 73.0258 16.653C73.0184 16.7558 73.0184 16.859 73.0258 16.9618C73.0258 17.6972 73.0258 17.6972 72.2904 17.7266C72.022 17.7266 71.9227 17.8148 71.9411 18.0943C71.9411 18.8885 71.9411 19.679 71.9411 20.4731L71.9669 20.4584Z" fill="#3F55A2"/>
<path d="M56.2226 20.4585C56.2226 19.6827 56.2226 18.9032 56.2226 18.1237C56.2226 17.8185 56.1454 17.6825 55.8292 17.7266C55.7263 17.7266 55.6233 17.7266 55.5204 17.7266C55.2078 17.7707 55.127 17.6384 55.127 17.3332C55.127 16.3074 55.127 16.3074 56.116 16.3074C56.9837 16.3074 57.8478 16.3074 58.7155 16.3074C59.0317 16.3074 59.142 16.403 59.0832 16.7045C59.0758 16.7926 59.0758 16.8811 59.0832 16.9692C59.0832 17.7045 59.0832 17.7045 58.3662 17.7045C58.0463 17.7045 58.0169 17.8516 58.0169 18.109C58.0169 19.6643 58.0169 21.2195 58.0169 22.7748C58.0169 23.1094 57.9434 23.2638 57.583 23.2271C57.1382 23.1793 56.5535 23.4146 56.2704 23.1315C55.9873 22.8484 56.2079 22.2932 56.1969 21.8519C56.1859 21.4107 56.2226 20.9291 56.2226 20.4585Z" fill="#3F55A2"/>
<path d="M88.4124 20.4143C88.4124 19.6496 88.4124 18.8885 88.4124 18.1237C88.4124 17.8259 88.3462 17.6788 88.0264 17.7266C87.9124 17.7266 87.791 17.7266 87.6587 17.7266C87.4234 17.7487 87.3278 17.6715 87.3167 17.4104C87.2689 16.3074 87.2579 16.3074 88.3609 16.3074C89.2287 16.3074 90.0964 16.3074 90.9604 16.3074C91.2104 16.3074 91.3281 16.3736 91.2766 16.6309C91.2711 16.7191 91.2711 16.8075 91.2766 16.8957C91.2766 17.6678 91.2766 17.6862 90.4935 17.7229C90.1479 17.7229 90.214 17.9546 90.214 18.1458C90.214 19.6716 90.214 21.1975 90.214 22.727C90.214 23.1351 90.1037 23.2712 89.703 23.2307C89.3799 23.205 89.0553 23.205 88.7323 23.2307C88.4639 23.2307 88.3646 23.1499 88.383 22.8631C88.4234 22.0652 88.4124 21.2379 88.4124 20.4143Z" fill="#3F55A2"/>
<path d="M117.242 19.782C117.242 20.7931 117.242 21.8043 117.242 22.8154C117.242 23.1316 117.176 23.2786 116.83 23.2455C116.522 23.2161 116.212 23.2161 115.904 23.2455C115.514 23.286 115.37 23.1647 115.374 22.7529C115.392 20.7564 115.374 18.7599 115.374 16.7671C115.374 16.4215 115.451 16.2634 115.834 16.3038C116.185 16.3332 116.538 16.3332 116.889 16.3038C117.168 16.3038 117.238 16.392 117.235 16.6715C117.235 17.6973 117.242 18.7562 117.242 19.782Z" fill="#4157A3"/>
<path d="M85.2547 5.62648C84.9963 5.64585 84.7395 5.57137 84.5315 5.41672C84.3235 5.26206 84.1782 5.0376 84.1223 4.7845C84.0819 4.64846 83.9458 4.41682 84.1627 4.37637C84.3797 4.33593 84.6591 4.21092 84.8356 4.49035C85.1812 5.02349 85.3981 5.03084 85.7143 4.49035C85.8872 4.19621 86.1666 4.32122 86.3798 4.36167C86.5931 4.40211 86.4718 4.62272 86.4313 4.76611C86.3734 5.02808 86.222 5.25995 86.0054 5.41832C85.7888 5.57669 85.5219 5.65069 85.2547 5.62648Z" fill="#4157A3"/>
<path d="M119.985 16.1125C119.719 16.1325 119.454 16.0552 119.241 15.895C119.027 15.7347 118.879 15.5024 118.823 15.2411C118.79 15.105 118.669 14.8734 118.912 14.8513C119.154 14.8293 119.386 14.7043 119.548 14.9763C119.875 15.5131 120.11 15.5205 120.419 14.9947C120.588 14.7006 120.871 14.8256 121.085 14.855C121.298 14.8844 121.184 15.1197 121.151 15.2484C121.094 15.509 120.944 15.7402 120.73 15.899C120.516 16.0579 120.251 16.1337 119.985 16.1125Z" fill="#4157A3"/>
<path d="M12.4763 48.3769L12.4688 48.3542H12.4876L12.4763 48.3769Z" fill="#3F55A2"/>
<path d="M60.3922 30.2462C60.3922 30.8014 60.3922 31.3492 60.3922 31.9155C60.3922 32.4817 59.9657 32.2133 59.723 32.2427C59.3553 32.2831 59.5134 32 59.5392 31.8456C59.7534 30.7554 59.8642 29.6475 59.8701 28.5365C59.8701 28.3674 59.8701 28.224 60.1091 28.2166C60.3481 28.2093 60.3959 28.3343 60.3922 28.5402C60.3885 29.1027 60.3922 29.6763 60.3922 30.2462Z" fill="#FDFDFE"/>
<path d="M50.5974 19.8592C50.5974 20.1681 50.5974 20.4732 50.5974 20.7821C50.5974 20.8666 50.6231 20.9696 50.5238 21.0137C50.4245 21.0578 50.3253 21.0137 50.2444 20.9365C50.1806 20.8857 50.128 20.8223 50.09 20.7501C50.0521 20.678 50.0295 20.5987 50.0238 20.5174C49.9686 20.036 49.9686 19.55 50.0238 19.0687C50.0257 18.9879 50.0459 18.9085 50.0829 18.8366C50.1198 18.7646 50.1725 18.7019 50.237 18.6532C50.4209 18.5356 50.5826 18.5172 50.6047 18.804C50.6047 19.1717 50.5974 19.5209 50.5974 19.8592Z" fill="#FDFDFE"/>
<path d="M53.0716 19.837C53.1008 20.1431 53.0683 20.4519 52.976 20.7452C52.8877 20.9253 52.7443 21.0871 52.5384 21.0356C52.3325 20.9842 52.4465 20.7893 52.4465 20.668C52.4465 20.0981 52.4465 19.5282 52.4465 18.9583C52.4465 18.8259 52.3766 18.6384 52.5936 18.5906C52.6738 18.5864 52.7531 18.6086 52.8195 18.6537C52.8859 18.6989 52.9357 18.7645 52.9613 18.8406C53.0682 19.1612 53.1058 19.5008 53.0716 19.837Z" fill="#FDFDFE"/>
<path d="M49.5271 31.5331C49.5271 31.3272 49.5271 31.1213 49.5271 30.9154C49.5271 30.7977 49.4646 30.6212 49.6668 30.6028C49.869 30.5845 50.0087 30.6359 50.0345 30.8345C50.0988 31.2992 50.0988 31.7706 50.0345 32.2353C50.0274 32.2764 50.0122 32.3157 49.9898 32.351C49.9675 32.3862 49.9384 32.4166 49.9042 32.4406C49.87 32.4645 49.8315 32.4814 49.7907 32.4903C49.75 32.4993 49.7078 32.5001 49.6668 32.4927C49.4535 32.4927 49.5234 32.3089 49.516 32.1912C49.5197 31.9927 49.5271 31.7537 49.5271 31.5331Z" fill="#FDFDFE"/>
<path d="M50.0789 28.6245C50.0789 28.8341 50.0789 28.9223 50.0789 28.9922C50.0789 29.2385 50.0311 29.4922 49.7113 29.4775C49.3914 29.4628 49.5384 29.1723 49.5201 29.0032C49.5017 28.7866 49.5017 28.5689 49.5201 28.3524C49.5201 28.22 49.4502 28.0325 49.6745 28.0068C49.718 27.9995 49.7626 28.0014 49.8053 28.0124C49.8481 28.0234 49.8881 28.0432 49.9227 28.0705C49.9573 28.0979 49.9859 28.1322 50.0064 28.1712C50.027 28.2103 50.0392 28.2532 50.0422 28.2972C50.0616 28.4054 50.0739 28.5147 50.0789 28.6245Z" fill="#FDFDFE"/>
<path d="M61.3732 19.8003C61.3732 19.1422 61.3732 18.4841 61.3732 17.8259C61.3732 17.6384 61.3732 17.3994 61.6343 17.3994C61.8953 17.3994 61.888 17.6494 61.8916 17.8259C61.8916 19.1128 61.8916 20.3997 61.8916 21.6902C61.8916 21.8814 61.9174 22.1535 61.6085 22.1351C61.2997 22.1167 61.3769 21.8667 61.3732 21.6865C61.3732 21.0578 61.3732 20.4291 61.3732 19.8003Z" fill="#FDFDFE"/>
<path d="M79.791 19.7526C79.791 19.1091 79.791 18.4657 79.791 17.8223C79.791 17.6421 79.791 17.3958 80.0521 17.3958C80.3131 17.3958 80.3094 17.6531 80.3094 17.8259C80.3094 19.1275 80.3094 20.4291 80.3094 21.7307C80.3094 21.9108 80.3094 22.1572 80.0263 22.1351C79.7432 22.1131 79.802 21.8961 79.7984 21.7307C79.791 21.0725 79.791 20.4107 79.791 19.7526Z" fill="#FDFDFE"/>
<path d="M54.3838 30.2424C54.3838 29.5989 54.3838 28.9555 54.3838 28.3121C54.3838 28.1282 54.3838 27.8856 54.6375 27.8819C54.8912 27.8782 54.8949 28.1429 54.8985 28.3084C54.8985 29.5805 54.8985 30.8564 54.8985 32.1286C54.8926 32.2016 54.8816 32.274 54.8655 32.3455C54.8397 32.4962 54.8066 32.6433 54.6044 32.6286C54.4022 32.6139 54.3875 32.4558 54.3875 32.305C54.3875 31.6175 54.3875 30.9299 54.3875 30.2424H54.3838Z" fill="#FDFDFE"/>
<path d="M55.8911 10.4354C55.8911 10.1707 55.8911 9.90967 55.8911 9.64494C55.8911 9.53464 55.825 9.35815 56.0456 9.35815C56.2662 9.35815 56.3949 9.40228 56.4132 9.59347C56.4829 10.16 56.4829 10.733 56.4132 11.2995C56.3838 11.4907 56.2073 11.5422 56.0456 11.5311C55.8838 11.5201 55.9132 11.3399 55.9095 11.226C55.8911 10.9612 55.8911 10.7002 55.8911 10.4354Z" fill="#FDFDFE"/>
<path d="M45.0485 28.6833C45.1331 29.4555 45.2213 30.2239 45.3022 30.9924C45.3316 31.2755 45.1037 31.1725 44.964 31.1909C44.747 31.2203 44.6772 31.1174 44.7066 30.9078C44.8059 30.1724 44.8941 29.4371 44.9897 28.7017L45.0485 28.6833Z" fill="#FDFDFE"/>
<path d="M112.429 20.896C112.429 20.6459 112.429 20.3996 112.429 20.1606C112.429 20.0466 112.356 19.8701 112.558 19.8444C112.76 19.8187 112.944 19.8848 112.966 20.0871C113.049 20.6503 113.049 21.2225 112.966 21.7857C112.929 21.9843 112.778 22.0358 112.598 22.0247C112.356 22.0247 112.444 21.8188 112.436 21.6938C112.422 21.4181 112.429 21.157 112.429 20.896Z" fill="#FDFDFE"/>
<path d="M102.561 20.9034C102.561 20.6534 102.561 20.407 102.561 20.1681C102.561 20.0357 102.491 19.8482 102.73 19.8408C102.907 19.8408 103.072 19.8886 103.098 20.0798C103.175 20.6422 103.175 21.2124 103.098 21.7748C103.065 21.977 102.911 22.0248 102.73 22.0211C102.488 22.0211 102.565 21.8226 102.561 21.6976C102.561 21.4365 102.561 21.1718 102.561 20.9108V20.9034Z" fill="#FDFDFE"/>
<path d="M51.4093 7.89126C51.4093 7.71478 51.4093 7.52359 51.4093 7.36548C51.4093 7.20738 51.3505 7.0787 51.5527 7.06031C51.7549 7.04193 51.8873 7.10811 51.9204 7.30666C51.9792 7.69664 51.9792 8.09324 51.9204 8.48322C51.9145 8.52453 51.8999 8.56412 51.8777 8.59943C51.8555 8.63475 51.8261 8.665 51.7914 8.68823C51.7567 8.71145 51.7176 8.72713 51.6764 8.73426C51.6353 8.74138 51.5932 8.73978 51.5527 8.72957C51.3505 8.70751 51.4277 8.5347 51.4204 8.41704C51.402 8.24056 51.4093 8.06775 51.4093 7.89126Z" fill="#FDFDFE"/>
<path d="M75.3384 18.3884C75.3384 18.1972 75.3384 18.0207 75.3384 17.8185C75.3384 17.6935 75.309 17.5244 75.5112 17.5317C75.6546 17.5317 75.8164 17.5758 75.8458 17.756C75.9248 18.1702 75.9248 18.5956 75.8458 19.0098C75.8376 19.0459 75.8223 19.08 75.8008 19.1101C75.7793 19.1403 75.752 19.1658 75.7205 19.1853C75.689 19.2048 75.654 19.2179 75.6174 19.2237C75.5809 19.2296 75.5435 19.2281 75.5075 19.2194C75.3163 19.1973 75.3568 19.0355 75.3531 18.9105C75.3494 18.7855 75.3384 18.5612 75.3384 18.3884Z" fill="#FDFDFE"/>
</svg>
