<svg width="99" height="83" viewBox="0 0 99 83" fill="none" xmlns="http://www.w3.org/2000/svg">
<path d="M49.0803 59.9201C53.5381 59.9201 57.9893 59.9201 62.4405 59.9201C63.1583 59.9201 63.3426 59.8609 63.0134 59.097C58.5885 48.6714 54.1768 38.2106 49.7783 27.7147C49.64 27.3789 49.6137 26.9641 49.054 26.9509C48.4943 26.9377 48.4416 27.3525 48.3033 27.6818C43.9136 38.1645 39.5238 48.645 35.1341 59.1234C34.8049 59.9069 35.0353 59.9596 35.7333 59.953C40.1647 59.9201 44.6291 59.9201 49.0803 59.9201ZM83.9789 59.9201C88.4893 59.9201 92.9998 59.9201 97.5103 59.9201C98.1687 59.9201 98.2675 59.8148 98.0041 59.1958C93.5792 48.7131 89.1675 38.2303 84.769 27.7476C84.6176 27.392 84.6044 26.9114 83.9986 26.9048C83.3928 26.8982 83.3401 27.3789 83.2282 27.7279C78.8384 38.193 74.4487 48.656 70.0589 59.1168C69.7561 59.8345 69.9207 59.9267 70.6055 59.9201C75.0633 59.9201 79.5276 59.953 83.9854 59.953L83.9789 59.9201ZM14.1028 59.9201C18.5606 59.9201 23.0118 59.9201 27.463 59.9201C28.1215 59.9201 28.4046 59.9201 28.0622 59.1036C23.6285 48.6385 19.2059 38.1557 14.7942 27.6554C14.6625 27.3394 14.6032 26.997 14.0962 26.997C13.5892 26.997 13.5167 27.346 13.3785 27.6554L0.24214 59.018C-0.146353 59.953 -0.146353 59.953 0.834757 59.953L14.1028 59.9201ZM45.8143 0.052677C45.5246 0.052677 45.36 0.0131693 45.1954 0.0131693C36.1349 0.00438975 27.0855 0 18.047 0C17.3095 0 17.3885 0.223877 17.619 0.744063C22.0087 11.2092 26.3985 21.6766 30.7882 32.1462C30.9331 32.4886 30.9463 32.9626 31.5586 32.9692C32.171 32.9758 32.2171 32.5083 32.3422 32.1593C35.6652 24.2578 38.9817 16.3562 42.2916 8.45466C43.4571 5.70229 44.6028 2.93674 45.8143 0.052677ZM66.5559 0H53.334C52.2344 0 52.2409 0 52.6755 1.00745C56.1873 9.32603 59.6728 17.6402 63.1319 25.95L65.8448 32.4227C65.9633 32.7058 66.0555 32.9626 66.5033 32.9692C66.6678 32.9831 66.8316 32.9346 66.9621 32.8334C67.0926 32.7321 67.1803 32.5856 67.2078 32.4227C67.2671 32.2383 67.3658 32.0606 67.4383 31.8828C71.7929 21.523 76.1497 11.1675 80.5088 0.816494C80.7985 0.118523 80.68 0 79.9622 0C75.4715 0 71.0137 0 66.5559 0ZM26.7979 73.5042C26.9757 73.9585 27.0943 74.268 27.2062 74.5775C28.0095 76.8294 28.7997 79.088 29.6096 81.3399C30.1364 82.8214 30.1495 82.7951 31.6903 82.7556C31.771 82.7657 31.8528 82.7589 31.9307 82.7357C32.0086 82.7124 32.0808 82.6733 32.1427 82.6206C32.2046 82.568 32.2549 82.5031 32.2904 82.4299C32.3259 82.3568 32.3458 82.2771 32.3488 82.1959L34.581 70.3963C34.581 70.2448 34.7522 70.0012 34.581 69.9419C34.096 69.8244 33.5929 69.802 33.0994 69.8761C32.757 69.8761 32.7834 70.2119 32.7373 70.4489C32.5134 71.6473 32.2939 72.8501 32.0788 74.0573C31.7496 75.822 31.4204 77.5801 31.0648 79.404C30.8214 79.129 30.6595 78.7915 30.5973 78.4295C29.7018 75.7956 28.8063 73.1618 27.9634 70.5279C27.8186 70.0802 27.6605 69.83 27.114 69.8695C26.9126 69.8482 26.7106 69.9044 26.5491 70.0267C26.3877 70.149 26.2789 70.3283 26.2448 70.5279C25.481 72.8523 24.6843 75.1701 23.9007 77.4813C23.6702 78.1398 23.4398 78.7982 23.1303 79.6806C22.5904 76.7702 22.0768 74.0968 21.5895 71.4169C21.3064 69.83 21.3195 69.8431 19.6865 69.8761C19.2059 69.8761 19.0808 69.9748 19.1861 70.495C19.9565 74.3931 20.694 78.3044 21.4512 82.2025C21.4907 82.4132 21.4512 82.7227 21.7541 82.7358C22.3591 82.8216 22.9731 82.8216 23.5781 82.7358C23.96 82.6502 23.9402 82.0774 24.0587 81.735C24.9345 79.0155 25.8366 76.329 26.7979 73.5042ZM76.2551 76.2368C77.5127 75.7627 78.3885 75.203 78.6716 74.0705C79.1787 72.0227 78.1383 70.4753 75.9983 70.0539C74.4838 69.7575 72.9496 69.9287 71.389 69.8563C70.7767 69.8563 70.5857 69.9946 70.5923 70.6333C70.5923 74.1363 70.5923 77.6393 70.5923 81.1687C70.5923 82.7885 70.5923 82.749 72.2121 82.7819C72.8706 82.7819 72.9957 82.5712 72.9759 81.972C72.9364 80.5827 72.9759 79.1933 72.9759 77.804C72.9759 77.5142 72.8838 77.1982 73.3578 77.1455C73.8949 77.019 74.4599 77.1009 74.9389 77.3746C75.418 77.6483 75.7754 78.0936 75.939 78.6205C76.18 79.4747 76.3778 80.3406 76.5316 81.2148C76.8806 82.8544 76.874 82.828 78.5729 82.8083C79.1655 82.8083 79.2313 82.5712 79.1128 82.1037C78.8494 80.9382 78.6058 79.7728 78.3556 78.6073C78.2868 78.0459 78.0491 77.5187 77.674 77.0954C77.2989 76.6721 76.8041 76.3727 76.2551 76.2368ZM59.0297 74.9199H59.1219C59.1219 76.4475 59.0626 77.9817 59.1219 79.5291C59.1013 80.3251 59.3746 81.1007 59.8896 81.708C60.4046 82.3153 61.1251 82.7117 61.9138 82.8214C62.9254 83.0402 63.9702 83.0581 64.9888 82.8741C66.9642 82.5515 68.0309 81.4255 68.0967 79.4238C68.1889 76.4212 68.0967 73.412 68.1494 70.4094C68.1494 70.0012 67.998 69.8629 67.6095 69.8892C67.3592 69.8892 67.109 69.8892 66.8588 69.8892C65.6143 69.8892 65.7921 69.7246 65.7658 71.0152C65.7065 73.9388 65.9106 76.8624 65.6538 79.7794C65.5419 81.0963 64.9098 81.6955 63.7179 81.7547C62.5261 81.814 61.8018 81.2675 61.5516 79.944C61.4757 79.4761 61.4427 79.0022 61.4528 78.5283C61.4528 76.2171 61.4528 73.919 61.4528 71.5947C61.4528 69.8431 61.4528 69.8629 59.6882 69.8827C59.1746 69.8827 59.0297 70.0209 59.0297 70.5411C59.0494 71.9831 59.0297 73.4581 59.0297 74.9331V74.9199ZM43.1344 76.9611V81.1358C43.1344 82.7424 43.1344 82.7029 44.7674 82.749C45.4588 82.749 45.5905 82.5251 45.5839 81.893C45.5575 79.1406 45.5575 76.3839 45.5839 73.6227C45.5839 72.8852 45.2481 71.9371 45.7485 71.463C46.2489 70.9889 47.1313 71.3774 47.849 71.3444C47.8771 71.3377 47.9065 71.3377 47.9346 71.3444C48.5404 71.4432 48.5931 71.0942 48.5931 70.607C48.5931 70.1197 48.5931 69.8234 47.9346 69.83C45.5444 69.8695 43.1476 69.8695 40.7574 69.83C40.0989 69.83 40.0989 70.1131 40.0989 70.5872C40.0989 71.0613 40.0989 71.4169 40.7574 71.351C41.4158 71.2852 41.8702 71.351 42.4299 71.351C42.9895 71.351 43.1542 71.4959 43.141 72.049C43.1146 73.6886 43.1344 75.3281 43.1344 76.9743V76.9611ZM54.888 77.0731C54.888 75.4532 54.888 73.84 54.888 72.2268C54.888 71.5683 55.0328 71.2523 55.7571 71.3313C56.3037 71.3905 56.8699 71.3313 57.423 71.3313C58.0815 71.3313 57.8971 70.8703 57.9235 70.5279C57.9498 70.1855 57.9696 69.8168 57.3967 69.8234C54.9143 69.8234 52.4385 69.8234 49.9627 69.8234C49.7783 69.8234 49.5873 69.7839 49.482 70.0407C49.3965 70.178 49.3524 70.337 49.3549 70.4987C49.3573 70.6604 49.4062 70.818 49.4958 70.9526C49.5853 71.0873 49.7117 71.1934 49.8599 71.2582C50.008 71.323 50.1717 71.3438 50.3314 71.3181C50.8055 71.3181 51.2862 71.3181 51.7537 71.3181C52.3463 71.2588 52.4977 71.4893 52.4977 72.0687C52.4977 75.045 52.4977 78.0278 52.4977 81.0041C52.4977 82.7622 52.4977 82.7424 54.2624 82.7293C54.7629 82.7293 54.9209 82.5844 54.9209 82.0708C54.8682 80.4246 54.888 78.7521 54.888 77.0862V77.0731ZM36.451 76.2039V81.1226C36.451 82.7358 36.451 82.7029 38.0577 82.7424C38.7161 82.7424 38.9005 82.5646 38.8939 81.9128C38.861 78.469 38.8939 75.0252 38.8939 71.5815C38.8939 69.8102 38.8939 69.8366 37.1556 69.8366C36.5959 69.8366 36.4444 70.0012 36.451 70.5411C36.4444 72.4309 36.4247 74.3339 36.4247 76.2171L36.451 76.2039Z" fill="#FEFEFE"/>
<path d="M49.0807 59.9202C44.6295 59.9202 40.1783 59.9202 35.7205 59.9202C35.0225 59.9202 34.7921 59.8741 35.1213 59.0905C39.5111 48.621 43.9008 38.1404 48.2906 27.6489C48.4288 27.3197 48.4749 26.9049 49.0412 26.918C49.6075 26.9312 49.6273 27.346 49.7655 27.6818C54.186 38.1734 58.6021 48.6561 63.0138 59.13C63.343 59.8938 63.1587 59.9597 62.4409 59.9531C57.9897 59.9202 53.5385 59.9202 49.0807 59.9202Z" fill="#028C99"/>
<path d="M83.986 59.9528C79.5282 59.9528 75.077 59.9528 70.6192 59.9528C69.9608 59.9528 69.7698 59.8672 70.0727 59.1495C74.4625 48.6931 78.8522 38.2302 83.242 27.7606C83.3868 27.4116 83.4066 26.9243 84.0124 26.9375C84.6182 26.9507 84.6313 27.4248 84.7828 27.7803C89.1725 38.2543 93.5842 48.737 98.0179 59.2285C98.2813 59.8475 98.1496 59.9528 97.524 59.9528C93.007 59.9199 88.4965 59.9528 83.986 59.9528Z" fill="#807F83"/>
<path d="M14.1094 59.9531H0.834757C-0.146353 59.9531 -0.146353 59.9531 0.24214 59.0181L13.3785 27.6555C13.5167 27.3329 13.5958 26.9971 14.0962 26.9971C14.5966 26.9971 14.6625 27.3658 14.7942 27.6555C19.219 38.1514 23.6439 48.6495 28.0688 59.1498C28.4112 59.9597 28.1478 59.9729 27.4696 59.9663C23.0447 59.9202 18.5672 59.9531 14.1094 59.9531Z" fill="#807F83"/>
<path d="M45.8147 0.052677C44.6031 2.93674 43.4574 5.70229 42.2787 8.46783C38.9689 16.3694 35.6524 24.2709 32.3294 32.1725C32.1845 32.5215 32.1582 32.989 31.5458 32.9824C30.9334 32.9758 30.9203 32.5017 30.7754 32.1593C26.3856 21.6898 21.9959 11.2224 17.6061 0.757232C17.3954 0.223877 17.3098 0 18.0473 0C27.0858 0 36.1353 0 45.1957 0C45.3603 0 45.525 0.0329231 45.8147 0.052677Z" fill="#807F83"/>
<path d="M66.5565 0C71.0143 0 75.4721 0 79.9233 0C80.641 0 80.7595 0.118523 80.4698 0.816494C76.0801 11.1631 71.7232 21.5186 67.3993 31.8828C67.3269 32.0606 67.2281 32.2383 67.1689 32.4227C67.1414 32.5856 67.0537 32.7321 66.9232 32.8334C66.7927 32.9346 66.6289 32.9831 66.4643 32.9692C66.0495 32.9692 65.9573 32.7058 65.8058 32.4227L63.0996 25.95C59.6624 17.6402 56.1879 9.33042 52.6761 1.02062C52.2678 0 52.2613 0 53.3346 0H66.5565Z" fill="#807F83"/>
<path d="M26.7972 73.5043C25.8359 76.3291 24.9338 79.009 24.0053 81.6758C23.8868 82.0314 23.9066 82.5911 23.5247 82.6767C22.9197 82.7624 22.3057 82.7624 21.7007 82.6767C21.4308 82.6767 21.4373 82.354 21.3978 82.1433C20.6406 78.2452 19.9031 74.334 19.1327 70.4359C19.0274 69.9157 19.1327 69.8301 19.6332 69.8169C21.2661 69.8169 21.253 69.7708 21.5361 71.3577C22.0234 74.0376 22.537 76.711 23.0769 79.6214C23.3864 78.7457 23.6169 78.0872 23.8473 77.4221C24.6309 75.1109 25.4276 72.8129 26.1914 70.4688C26.2255 70.2691 26.3343 70.0899 26.4957 69.9676C26.6572 69.8452 26.8592 69.789 27.0606 69.8103C27.6071 69.8103 27.7652 70.0539 27.91 70.4688C28.7858 73.1026 29.6813 75.7365 30.5439 78.3703C30.6061 78.7323 30.768 79.0698 31.0114 79.3449C31.3604 77.5209 31.6699 75.7628 32.0254 73.9981C32.2581 72.791 32.4776 71.5882 32.6839 70.3898C32.73 70.1527 32.6839 69.8367 33.046 69.8169C33.5395 69.7428 34.0426 69.7652 34.5276 69.8827C34.6988 69.942 34.5276 70.1856 34.5276 70.3371L32.2954 82.1367C32.2924 82.218 32.2725 82.2977 32.237 82.3708C32.2015 82.4439 32.1512 82.5088 32.0893 82.5615C32.0274 82.6141 31.9552 82.6533 31.8773 82.6765C31.7994 82.6997 31.7176 82.7065 31.6369 82.6964C30.0961 82.7359 30.083 82.7623 29.5562 81.2807C28.7463 79.0288 27.9561 76.7703 27.1528 74.5183C27.0935 74.2681 26.9948 73.9586 26.7972 73.5043Z" fill="#807F83"/>
<path d="M76.2554 76.2369C76.8054 76.3613 77.3048 76.6493 77.688 77.063C78.0712 77.4767 78.3201 77.9968 78.4019 78.5547C78.6522 79.7202 78.8958 80.8857 79.1592 82.0512C79.258 82.5187 79.2119 82.7491 78.6192 82.7557C76.9204 82.7557 76.927 82.8018 76.578 81.1622C76.4241 80.2881 76.2263 79.4222 75.9854 78.5679C75.8217 78.041 75.4643 77.5958 74.9853 77.322C74.5063 77.0483 73.9412 76.9664 73.4042 77.0929C72.9301 77.172 73.0223 77.488 73.0223 77.7514C73.0223 79.1408 72.9894 80.5301 73.0223 81.9195C73.0223 82.5187 72.917 82.7491 72.2585 82.7294C70.6387 82.6965 70.6387 82.7294 70.6387 81.1162C70.6387 77.6131 70.6387 74.1101 70.6387 70.5807C70.6387 69.9223 70.823 69.7708 71.4354 69.8038C72.963 69.8762 74.4973 69.705 76.0447 70.0013C78.1847 70.4227 79.225 71.9767 78.718 74.0179C78.3888 75.2032 77.513 75.7628 76.2554 76.2369ZM73.0223 73.4253C73.0223 74.0113 73.0223 74.5974 73.0223 75.1834C73.0223 75.3875 72.963 75.6114 73.2659 75.7233C73.5993 75.8179 73.9488 75.8407 74.2916 75.7902C74.6344 75.7397 74.9625 75.617 75.2544 75.4303C75.5462 75.2436 75.7952 74.9971 75.9848 74.7071C76.1743 74.4171 76.3002 74.0902 76.3541 73.748C76.4727 72.0162 75.7681 71.3051 73.9507 71.2129C73.2923 71.18 72.8906 71.2985 73.0091 72.0952C73.0399 72.5379 73.0443 72.9821 73.0223 73.4253Z" fill="#807F83"/>
<path d="M59.0303 74.9333C59.0303 73.4583 59.0303 71.9833 59.0303 70.5084C59.0303 69.9882 59.1883 69.8499 59.6887 69.8499C61.4534 69.8499 61.4534 69.8104 61.4534 71.5619C61.4534 73.8731 61.4534 76.1712 61.4534 78.4955C61.4432 78.9695 61.4763 79.4433 61.5522 79.9112C61.8024 81.2282 62.474 81.7813 63.7185 81.722C64.963 81.6627 65.5425 81.0635 65.6544 79.7466C65.9112 76.8296 65.7071 73.9061 65.7663 70.9825C65.7663 69.6656 65.6149 69.8763 66.8594 69.8565C67.1096 69.8565 67.3598 69.8565 67.61 69.8565C67.9985 69.8565 68.1566 69.9684 68.15 70.3767C68.15 73.3793 68.1895 76.3885 68.0973 79.3911C68.0315 81.3664 66.9516 82.5187 64.9894 82.8414C63.9708 83.0254 62.926 83.0075 61.9143 82.7887C61.1257 82.6789 60.4051 82.2826 59.8902 81.6753C59.3752 81.068 59.1019 80.2924 59.1225 79.4964C59.05 77.9688 59.1225 76.4346 59.1225 74.8872L59.0303 74.9333Z" fill="#807F83"/>
<path d="M43.1339 76.9743C43.1339 75.3281 43.1339 73.6819 43.1339 72.0424C43.1339 71.4893 42.9561 71.3115 42.4228 71.3444C41.8894 71.3773 41.3034 71.3444 40.7503 71.3444C40.1972 71.3444 40.0918 71.0481 40.0918 70.5806C40.0918 70.1131 40.0918 69.8168 40.7503 69.8233C43.1405 69.8629 45.5373 69.8629 47.9275 69.8233C48.586 69.8233 48.586 70.1526 48.586 70.6003C48.586 71.0481 48.5333 71.4366 47.9275 71.3378C47.8994 71.3311 47.87 71.3311 47.8419 71.3378C47.1242 71.3378 46.1892 71.0349 45.7414 71.4563C45.2937 71.8778 45.5834 72.8786 45.5768 73.6161C45.5505 76.3729 45.5505 79.1296 45.5768 81.8864C45.5768 82.5449 45.4517 82.7556 44.7603 82.7424C43.1273 82.6963 43.1273 82.7424 43.1273 81.1292L43.1339 76.9743Z" fill="#807F83"/>
<path d="M54.8874 77.0861C54.8874 78.752 54.8874 80.4245 54.8874 82.097C54.8874 82.6106 54.7228 82.7555 54.229 82.7555C52.4643 82.7555 52.4643 82.7555 52.4643 81.0303C52.4643 78.054 52.4643 75.1041 52.4643 72.095C52.4643 71.5155 52.3128 71.285 51.7202 71.3443C51.2527 71.3904 50.772 71.3443 50.2979 71.3443C50.1383 71.37 49.9746 71.3492 49.8264 71.2844C49.6782 71.2196 49.5518 71.1135 49.4623 70.9789C49.3727 70.8442 49.3238 70.6866 49.3214 70.5249C49.3189 70.3632 49.3631 70.2042 49.4485 70.0669C49.5539 69.8101 49.7448 69.8496 49.9292 69.8496C52.405 69.8496 54.8808 69.8496 57.3632 69.8496C57.9361 69.8496 57.9163 70.1788 57.89 70.5542C57.8637 70.9295 58.0678 71.3904 57.3896 71.3575C56.8365 71.3575 56.2702 71.4036 55.7237 71.3575C54.9994 71.2785 54.8413 71.5814 54.8545 72.253C54.9138 73.8531 54.8874 75.4663 54.8874 77.0861Z" fill="#807F83"/>
<path d="M36.4248 76.2172C36.4248 74.334 36.4248 72.4442 36.4248 70.5544C36.4248 70.0145 36.5697 69.8499 37.1294 69.8499C38.8677 69.8499 38.8677 69.8499 38.8677 71.5948C38.8677 75.0385 38.8677 78.4823 38.8677 81.9261C38.8677 82.5845 38.6965 82.7755 38.0315 82.7557C36.4248 82.7162 36.4248 82.7557 36.4248 81.1359V76.2172Z" fill="#807F83"/>
</svg>
