<svg width="115" height="48" viewBox="0 0 115 48" fill="none" xmlns="http://www.w3.org/2000/svg">
<path d="M25.6838 48C22.376 46.3111 19.4574 44.7779 16.5077 43.3303C15.4959 42.8555 15.5659 42.1006 15.5659 41.2522C15.5659 38.5593 15.4881 35.8664 15.6048 33.1735C15.6671 31.7103 15.1457 31.2044 13.7603 31.399C13.3783 31.4535 12.9904 31.4535 12.6084 31.399C10.6471 31.0799 9.73649 31.7103 10.0634 33.8506C10.2424 34.9791 9.89993 36.1855 10.1334 37.2985C11.0518 41.7192 9.12164 44.1008 4.97332 45.276C3.26118 45.8808 1.59844 46.6171 0 47.4786L0 8.50928L9.51857 13.0934C10.2502 13.4437 10.0634 14.113 10.0712 14.6967C10.0712 16.5491 10.1879 18.4014 10.0712 20.2382C9.93106 21.9349 10.6004 22.2696 12.1492 22.2384C15.5737 22.1606 15.9317 22.1917 15.4881 18.8373C14.9277 14.5333 16.3909 12.0661 20.5626 11.0076C21.7403 10.6489 22.8695 10.1471 23.9248 9.51328C25.3102 8.73498 25.7461 9.0463 25.7383 10.6652C25.6838 19.3587 25.6838 28.0601 25.6838 36.7537V48Z" fill="#243F7A"/>
<path d="M52.1458 16.0976C52.1458 11.2488 52.2159 6.6491 52.1458 2.08828C52.1458 0.625083 52.5739 0.197019 53.967 0.321547C56.5276 0.508338 59.9288 -0.775851 61.4854 0.780742C62.7384 2.04937 61.8745 5.45052 61.8823 7.89437C61.8823 17.2884 61.8045 26.6902 61.9446 36.0843C61.9835 38.3024 61.2674 38.8317 59.2439 38.6527C57.4927 38.4892 55.7026 38.6527 53.9359 38.5982C53.2821 38.5982 52.3248 39.0652 52.138 37.8199C52.0446 37.1817 51.6243 37.5864 51.2897 37.6798C44.6197 39.5321 39.8098 36.6913 38.4322 29.8968C37.5216 25.406 38.1909 21.1098 41.4831 17.6231C44.4874 14.4009 48.0597 13.9262 52.1458 16.0976ZM52.2081 26.5424C52.2585 25.6939 51.9789 24.8588 51.4276 24.2118C50.8764 23.5648 50.0963 23.1561 49.2505 23.0712C47.5539 23.0167 46.0673 24.7056 46.1374 26.6358C46.1163 27.4859 46.4314 28.3101 47.0143 28.9293C47.5971 29.5486 48.4007 29.913 49.2505 29.9435C50.9394 29.9202 52.2158 28.4725 52.2158 26.5424H52.2081Z" fill="#243F7A"/>
<path d="M87.208 36.4735C82.7017 39.0886 80.0788 39.0574 77.8685 36.6058C75.2845 33.7806 75.2145 28.8228 77.705 25.2349C79.8298 22.1684 82.0479 21.6858 86.1496 23.3981C86.2819 20.1292 84.3439 19.6545 78.0864 21.5691C78.5378 19.8257 79.0437 18.2458 79.3317 16.6269C79.5185 15.5762 80.2578 15.4828 80.9739 15.3272C83.4463 14.7341 85.9943 14.5189 88.5311 14.689C92.2436 14.9769 94.3217 16.7514 94.4618 20.4639C94.6875 26.0754 94.5396 31.7025 94.5863 37.3218C94.5863 38.357 94.1427 38.6605 93.1854 38.6294C91.8894 38.5489 90.5898 38.5489 89.2939 38.6294C87.7451 38.7772 86.9045 38.3647 87.208 36.4735ZM85.2156 32.4575C85.6388 32.4432 86.0394 32.2629 86.3307 31.9556C86.622 31.6483 86.7806 31.2386 86.7722 30.8153C86.8734 29.6945 86.4064 28.7528 85.2156 28.7139C84.2583 28.7139 83.7913 29.5622 83.7446 30.4495C83.7081 30.678 83.7173 30.9116 83.7717 31.1366C83.826 31.3616 83.9244 31.5736 84.0612 31.7603C84.198 31.947 84.3705 32.1048 84.5686 32.2245C84.7668 32.3441 84.9867 32.4233 85.2156 32.4575Z" fill="#243F7A"/>
<path d="M107.997 38.6293C104.471 38.6293 101.568 38.7616 98.6571 38.5826C96.3222 38.4425 95.7852 36.6291 95.7852 34.5977V19.1252C95.7852 17.2028 95.8319 15.2804 95.7852 13.358C95.7852 12.1516 96.1821 11.7314 97.3884 11.8014C99.6222 11.8715 101.856 11.9182 104.082 11.8014C105.701 11.7158 106.175 12.2528 106.152 13.8717C106.066 20.0981 106.113 26.3244 106.152 32.5508C106.137 34.5822 105.763 36.7147 107.997 38.6293Z" fill="#F26F25"/>
<path d="M63.2754 26.6979C63.2754 23.3902 63.3299 20.0824 63.2754 16.7824C63.2754 15.4749 63.6256 15.0157 64.9487 15.0935C66.7155 15.1947 68.49 15.0935 70.2567 15.1324C70.7937 15.1324 71.572 14.8056 71.6966 15.7862C71.7977 16.5645 72.1869 16.331 72.5994 16.043C73.0191 15.7092 73.467 15.4123 73.9381 15.1558C75.2923 14.5409 76.9267 13.9105 78.1019 14.7666C78.8802 15.3426 77.9463 16.8603 77.7751 17.9499C77.6272 18.8605 77.3159 19.74 77.2225 20.6583C77.0824 22.0515 76.7944 22.9932 75.051 23.2501C73.3076 23.5069 72.5916 24.9078 72.5994 26.6746C72.5994 30.0602 72.5527 33.4458 72.6383 36.7924C72.6383 38.17 72.3192 38.7304 70.8482 38.6448C68.8519 38.5436 66.8517 38.5436 64.8553 38.6448C63.6256 38.6993 63.2598 38.2634 63.2987 37.0882C63.3143 33.617 63.2754 30.1613 63.2754 26.6979Z" fill="#243F7A"/>
<path d="M36.9299 26.7212C36.9299 30.1769 36.8832 33.6325 36.9299 37.0882C36.9299 38.2789 36.5953 38.7148 35.3733 38.6447C33.3031 38.5513 31.225 38.5591 29.147 38.6447C27.964 38.6914 27.5437 38.349 27.5904 37.0882C27.6371 30.0212 27.6371 22.9543 27.5904 15.8873C27.5904 14.7899 27.925 14.4008 29.0302 14.4397C31.1783 14.5098 33.3342 14.5331 35.4823 14.4397C36.7976 14.3774 36.9844 14.9767 36.9689 16.0897C36.891 19.6465 36.9299 23.1878 36.9299 26.7212Z" fill="#243F7A"/>
<path d="M114.954 30.5195C114.954 31.9048 114.993 33.2824 114.954 34.6678C114.869 36.7925 113.11 38.6371 111.234 38.6215C110.227 38.5973 109.266 38.1932 108.545 37.4902C107.823 36.7872 107.394 35.8374 107.343 34.8312C107.257 31.9204 107.343 28.994 107.343 26.0754C107.343 25.0325 107.786 24.7134 108.728 24.8068C108.881 24.8184 109.034 24.8184 109.187 24.8068C115.04 24.6744 115.04 24.6744 114.954 30.5195Z" fill="#243F7A"/>
<path d="M35.895 9.19402C35.895 9.55204 32.1825 13.3657 32.0035 13.1789C30.6571 11.9414 29.3418 10.6572 28.1121 9.28742C27.8786 9.03836 31.6144 5.28697 32.0658 5.30254C33.492 6.44323 34.7775 7.74957 35.895 9.19402Z" fill="#243F7A"/>
</svg>
