<svg width="132" height="27" viewBox="0 0 132 27" fill="none" xmlns="http://www.w3.org/2000/svg">
<path d="M84.569 14.8647C83.6919 12.6579 82.893 10.6356 82.0941 8.60206C82.0468 8.38104 81.9171 8.18634 81.7313 8.05764C81.5455 7.92893 81.3176 7.87589 81.0941 7.90932C79.9768 7.95401 78.8594 7.97077 77.7421 7.90932C77.0103 7.86462 76.8762 8.14396 76.8874 8.80876C76.9209 11.3674 76.8874 13.9261 76.8874 16.4848C76.8874 17.2446 76.541 18.2278 77.0438 18.7194C77.5466 19.2111 78.5186 18.7921 79.2784 18.8759C80.0382 18.9597 80.217 18.7083 80.189 17.9764C80.1332 16.3004 80.189 14.5853 80.189 12.8926C80.8016 14.0417 81.3409 15.2284 81.8036 16.4457C82.798 18.9317 82.7924 18.915 85.4852 18.887C85.6943 18.9108 85.905 18.8575 86.0777 18.7372C86.2505 18.6169 86.3735 18.4378 86.4237 18.2334C87.0383 16.6245 87.6863 15.0267 88.3344 13.4345C88.3958 13.2725 88.3679 12.9931 88.7087 13.0099C88.7087 14.0993 88.6807 15.1775 88.7087 16.2557C88.7087 17.1049 88.312 18.239 88.8874 18.7194C89.4629 19.1999 90.6025 18.8144 91.4908 18.8759C91.9321 18.8759 92.0495 18.7418 92.0495 18.3172C92.0495 15.077 92.0495 11.8423 92.0495 8.60206C92.0495 8.0434 91.8204 7.94284 91.34 7.95401C90.2226 7.98194 89.1053 7.9987 87.988 7.95401C87.7495 7.91941 87.5069 7.97784 87.3104 8.11719C87.1138 8.25655 86.9784 8.46616 86.9321 8.70262C86.2673 10.6691 85.4461 12.6579 84.569 14.8647ZM128.592 13.0602L128.357 13.1216C127.491 12.1013 126.7 11.0203 125.988 9.88698C125.066 8.17747 123.754 7.61881 121.921 7.92049H121.832C121.329 7.85345 121.117 8.03781 121.122 8.57971C121.122 11.7864 121.122 14.9932 121.122 18.1999C121.122 18.6692 121.262 18.8703 121.748 18.8479C122.393 18.806 123.041 18.806 123.687 18.8479C124.368 18.9038 124.586 18.6859 124.564 17.9764C124.502 16.4289 124.564 14.8758 124.564 13.3228C125.678 14.4544 126.669 15.7017 127.519 17.0434C127.843 17.7156 128.383 18.2603 129.052 18.5912C129.72 18.9221 130.481 19.0203 131.212 18.8703C131.865 18.7865 132.011 18.6189 131.999 18.0043C131.971 15.3898 131.999 12.7697 131.999 10.1496C131.999 7.9149 131.999 7.96518 129.765 7.88697C128.821 7.85345 128.558 8.12161 128.614 9.05458C128.653 10.3898 128.592 11.7194 128.592 13.0602ZM115.117 13.0602L114.882 13.1328C114.011 12.1064 113.215 11.0178 112.502 9.87581C111.58 8.15513 110.267 7.64116 108.435 7.92049C108.374 7.92898 108.312 7.92898 108.251 7.92049C107.798 7.86462 107.692 8.09368 107.692 8.51267C107.692 11.7827 107.692 15.0472 107.692 18.306C107.692 18.7027 107.82 18.8647 108.251 18.8647C108.958 18.8283 109.666 18.8283 110.374 18.8647C110.988 18.9038 111.145 18.6692 111.133 18.077C111.089 16.496 111.133 14.9094 111.133 13.049C112.21 14.3416 113.209 15.6958 114.128 17.1049C115.016 18.6412 116.2 19.0826 117.848 18.8703C118.407 18.8032 118.569 18.7139 118.564 18.1384C118.53 15.5798 118.564 13.0267 118.564 10.468C118.564 9.64676 118.927 8.55737 118.402 8.0825C117.876 7.60764 116.754 7.99312 115.904 7.9149C115.307 7.86462 115.178 8.11602 115.189 8.66351C115.139 10.1272 115.117 11.5965 115.117 13.0602ZM33.2893 11.7194C33.2893 10.5294 33.2893 9.55737 33.2893 8.5853C33.2893 8.11602 33.1664 7.9149 32.6636 7.93725C31.8983 7.97077 31.1273 7.97636 30.3564 7.93725C29.7977 7.90373 29.686 8.12161 29.6916 8.6244C29.6916 11.8311 29.6916 15.0379 29.6916 18.2446C29.6916 18.7194 29.8089 18.9038 30.3061 18.8814C31.077 18.8423 31.848 18.8423 32.6134 18.8814C33.172 18.8814 33.3061 18.7306 33.2893 18.2055C33.2558 17.0881 33.2893 15.9708 33.2893 14.6803L37.0324 18.3842C37.2447 18.5909 37.4179 18.8759 37.7754 18.8703H41.7251L41.8704 18.6189C41.6091 18.4489 41.3591 18.2623 41.1218 18.0602C39.5519 16.5798 38.01 15.077 36.4178 13.5909C35.9542 13.1607 35.9877 12.9373 36.4514 12.5406C37.9989 11.2222 39.5073 9.85905 41.0212 8.5015C41.1832 8.36183 41.4793 8.27245 41.3899 7.90373C40.4402 7.90373 39.4849 7.94284 38.5408 7.90373C38.2334 7.88015 37.9247 7.92505 37.6368 8.03518C37.3489 8.14531 37.0891 8.31793 36.8759 8.54061C35.7586 9.57413 34.6022 10.5518 33.2893 11.7194ZM53.8593 13.3228C53.8593 14.8926 53.8593 16.468 53.8593 18.0379C53.8593 18.7027 54.066 18.8703 54.6973 18.8591C57.0716 18.8312 59.4403 18.8591 61.8091 18.8591C63.6135 18.8591 63.5968 18.8591 63.485 17.0826C63.485 16.63 63.3174 16.5239 62.8873 16.5239C61.5632 16.5239 60.2392 16.5239 58.9152 16.5239C57.4012 16.5239 57.4291 16.5239 57.4403 14.9876C57.4403 14.4568 57.6023 14.2948 58.1219 14.3172C59.0102 14.3563 59.9152 14.2613 60.7979 14.3507C61.6806 14.4401 61.9152 14.0993 61.7811 13.3228C61.7583 13.1372 61.7583 12.9496 61.7811 12.7641C61.8258 12.2781 61.6135 12.1328 61.1387 12.1552C60.3398 12.1887 59.5409 12.1552 58.7364 12.1552C57.4012 12.1552 57.4347 12.1552 57.4459 10.8144C57.4459 10.2557 57.6582 10.1496 58.1498 10.1607C59.3509 10.1887 60.5521 10.1607 61.7532 10.1607C63.3063 10.1607 63.2839 10.1607 63.256 8.56854C63.256 8.03781 63.0828 7.89814 62.5688 7.90373C59.8873 7.92608 57.2075 7.92608 54.5297 7.90373C53.999 7.90373 53.8425 8.08809 53.8481 8.60206C53.876 10.1775 53.8593 11.7529 53.8593 13.3228ZM65.3677 13.3954C65.3677 14.9652 65.3957 16.5351 65.3677 18.1049C65.3677 18.725 65.5465 18.8814 66.1443 18.8759C68.5745 18.8423 71.0046 18.8759 73.4069 18.8759C75.2281 18.8759 74.9209 19.2613 74.9823 17.2557C74.9823 16.6971 74.8147 16.5127 74.2561 16.5295C72.96 16.563 71.6694 16.5295 70.3789 16.5295C68.8761 16.5295 68.9041 16.5295 68.9152 14.9932C68.9152 14.468 69.0605 14.3004 69.5856 14.3228C70.541 14.3619 71.4963 14.2948 72.446 14.3507C73.094 14.3842 73.3566 14.1775 73.2672 13.5295C73.2393 13.2844 73.2393 13.037 73.2672 12.792C73.3119 12.306 73.1052 12.144 72.6248 12.1663C71.8259 12.1998 71.027 12.1663 70.2281 12.1663C68.8817 12.1663 68.9097 12.1663 68.9152 10.8535C68.9152 10.3451 69.0493 10.1551 69.5856 10.1719C70.7812 10.2054 71.9823 10.1719 73.1834 10.1719C74.8203 10.1719 74.798 10.1719 74.7309 8.52385C74.7309 8.02105 74.5242 7.9149 74.0717 7.92049C71.3957 7.92049 68.7141 7.92049 66.0381 7.92049C65.4236 7.92049 65.3342 8.16072 65.3454 8.68586C65.3677 10.2445 65.3677 11.8144 65.3677 13.3954ZM93.3344 18.8591H95.1835C96.9154 18.8591 96.921 18.8591 97.5243 17.239C97.664 16.8647 97.7311 16.4848 98.2953 16.5015C99.3679 16.5407 100.446 16.5295 101.524 16.5015C101.6 16.4906 101.676 16.4951 101.749 16.5148C101.823 16.5344 101.891 16.5688 101.951 16.6159C102.011 16.663 102.06 16.7217 102.096 16.7885C102.132 16.8552 102.154 16.9287 102.161 17.0043C102.351 18.7976 103.496 19.0882 104.994 18.8535C105.179 18.8279 105.367 18.8279 105.552 18.8535C106.334 18.9541 106.564 18.8088 106.2 17.9597C104.938 14.9932 103.731 11.9987 102.558 9.02106C102.251 8.23334 101.876 7.8311 100.977 7.94284C99.9154 8.07133 98.6082 7.5406 97.8428 8.14396C97.0774 8.74731 96.9378 9.97078 96.5467 10.9373C95.4741 13.5071 94.4182 16.1161 93.3288 18.8479L93.3344 18.8591ZM43.4291 13.3954C43.4291 14.9652 43.4291 16.5407 43.4291 18.1105C43.4291 18.7139 43.5855 18.8926 44.1944 18.887C46.5017 18.8535 48.809 18.887 51.1218 18.887C52.6693 18.887 52.6302 18.887 52.6526 17.3004C52.6526 16.6636 52.4403 16.5183 51.8593 16.5351C50.5632 16.5686 49.2727 16.5071 47.9486 16.563C47.2336 16.563 46.9933 16.3842 47.0101 15.6412C47.0548 13.3339 47.0101 11.0211 47.0101 8.7082C47.0101 8.17747 46.9095 7.90932 46.3006 7.94842C45.5566 7.99973 44.8099 7.99973 44.0659 7.94842C43.4626 7.90932 43.3508 8.15513 43.362 8.69703C43.4458 10.2278 43.4291 11.7976 43.4291 13.3954ZM3.68581 7.46239C3.57806 7.40198 3.4589 7.36471 3.33593 7.35296C3.21297 7.3412 3.0889 7.35523 2.97166 7.39413C2.85442 7.43304 2.74659 7.49597 2.65504 7.5789C2.5635 7.66184 2.49025 7.76296 2.44 7.8758C1.73162 9.02903 1.12594 10.2423 0.62993 11.5015C0.1038 12.8222 -0.0972447 14.25 0.0437299 15.6646C0.184705 17.0792 0.66357 18.4392 1.43999 19.6301C1.87769 20.335 2.36103 21.0106 2.88693 21.6524C4.29082 23.2884 5.84926 24.7851 7.54058 26.1217C7.86461 26.3955 8.23891 26.6804 8.5797 26.267C8.92048 25.8536 8.63556 25.4904 8.27243 25.1999C7.9093 24.9094 7.61321 24.6413 7.28919 24.3619C5.80481 23.1132 4.45315 21.7147 3.25564 20.1887C0.870155 17.0826 0.507024 13.7697 2.23888 10.2389C2.65787 9.31156 3.17743 8.41211 3.68581 7.46239ZM19.887 19.0323C20.3786 19.0993 20.7753 19.2334 21.0044 18.8368C22.6356 16.1831 24.0993 13.4568 23.4569 10.1887C22.5574 5.60763 19.077 2.92605 15.8032 0.132736C15.7443 0.0827631 15.6757 0.0455399 15.6017 0.0234161C15.5278 0.00129237 15.45 -0.00525137 15.3733 0.00419804C15.2967 0.0136474 15.2228 0.0388847 15.1564 0.0783166C15.09 0.117749 15.0325 0.170518 14.9876 0.233295C14.9043 0.348884 14.8683 0.491919 14.887 0.633148C14.9057 0.774377 14.9776 0.90313 15.0881 0.993076C15.2651 1.16539 15.4516 1.32766 15.6468 1.47911C17.4746 2.94088 19.1212 4.61569 20.5518 6.46797C22.6524 9.33949 23.0882 12.3898 21.6692 15.6915C21.1501 16.8394 20.5624 17.955 19.9094 19.0323H19.887ZM2.41765 14.5127C2.41765 14.6803 2.41765 14.9596 2.4791 15.2334C2.73609 17.6077 3.96514 19.496 5.49588 21.2334C6.75616 22.6289 8.12752 23.9199 9.59646 25.0938C9.90373 25.3508 10.2501 25.5128 10.5685 25.1496C10.887 24.7865 10.6747 24.4737 10.373 24.2055L9.66909 23.6021C8.06251 22.305 6.62153 20.8152 5.37856 19.1664C3.98749 17.239 3.27799 15.1328 3.70257 12.7362C4.06289 11.0799 4.71759 9.50181 5.63555 8.07692C5.75286 7.88138 6.1551 7.61881 5.7808 7.40652C5.63061 7.31987 5.45252 7.29532 5.28449 7.33811C5.11646 7.3809 4.9718 7.48764 4.88135 7.63557C3.56849 9.70821 2.50145 11.8702 2.41765 14.5127ZM17.6803 18.982C17.7898 19.0495 17.9129 19.0917 18.0407 19.1057C18.1685 19.1196 18.2978 19.1049 18.4193 19.0627C18.5407 19.0204 18.6512 18.9516 18.7427 18.8613C18.8343 18.771 18.9045 18.6615 18.9485 18.5407C19.3116 17.8312 19.7529 17.1552 20.0993 16.4401C21.8535 12.8535 21.5295 9.47916 19.0658 6.31154C17.635 4.53342 16.0125 2.91845 14.2278 1.49587C13.8702 1.19978 13.4736 0.808717 13.0602 1.34503C12.6468 1.88135 13.1496 2.12157 13.4736 2.38973C14.8785 3.53713 16.1865 4.79839 17.3842 6.1607C20.468 9.73614 20.8423 13.0434 18.6412 17.2166C18.3507 17.82 18.0155 18.4233 17.6803 18.982ZM15.373 18.982C15.4974 19.0445 15.6338 19.0795 15.7728 19.0847C15.9119 19.0899 16.0505 19.0652 16.1792 19.0123C16.3079 18.9593 16.4237 18.8793 16.5189 18.7777C16.614 18.6761 16.6862 18.5553 16.7306 18.4233C16.9987 17.8647 17.3395 17.3507 17.6189 16.8032C19.401 13.3283 19.1328 10.0602 16.6803 6.97635C15.3755 5.38394 13.9055 3.93447 12.2948 2.6523C11.9428 2.3618 11.5518 1.92604 11.116 2.42325C10.6803 2.92046 11.1831 3.25566 11.5238 3.54058C12.8172 4.58914 14.0223 5.74198 15.1272 6.98752C18.0267 10.3395 18.3842 13.4401 16.3004 17.3507C16.0155 17.8926 15.7082 18.4233 15.373 19.0099V18.982ZM8.28919 7.45121C8.16498 7.38779 8.02851 7.35201 7.88915 7.34631C7.7498 7.34062 7.61087 7.36515 7.48189 7.41823C7.35292 7.4713 7.23696 7.55166 7.14197 7.65379C7.04699 7.75592 6.97524 7.8774 6.93164 8.00988C6.68024 8.53502 6.37298 9.02664 6.08248 9.5462C4.25565 13.0378 4.47353 16.3395 6.97634 19.4569C8.28399 21.0551 9.75367 22.5135 11.3618 23.8089C11.7138 24.0994 12.1049 24.5351 12.535 24.0323C12.9652 23.5295 12.4736 23.2055 12.1328 22.915C10.8174 21.8435 9.59173 20.6664 8.46796 19.3954C5.67465 16.1217 5.29476 12.9987 7.30595 9.18307C7.60762 8.61882 7.93723 8.07133 8.28919 7.45121ZM10.5238 7.45121C10.0937 7.38417 9.70819 7.23334 9.43445 7.68027C8.38746 9.17272 7.68349 10.8783 7.37299 12.6747C7.15215 14.4039 7.56063 16.1548 8.52383 17.6077C9.95617 19.7332 11.7551 21.5871 13.8367 23.0826C13.8904 23.121 13.9514 23.1481 14.0159 23.1622C14.0804 23.1763 14.1471 23.1771 14.2119 23.1645C14.2767 23.152 14.3383 23.1263 14.3929 23.0892C14.4475 23.0521 14.494 23.0042 14.5295 22.9485C14.613 22.8571 14.6637 22.7406 14.6739 22.6173C14.684 22.4939 14.6528 22.3707 14.5853 22.2669C14.409 22.0576 14.2083 21.87 13.9876 21.7083C12.5269 20.5318 11.2139 19.1831 10.0769 17.6915C8.3283 15.2892 8.00986 12.7417 9.26685 10.0266C9.61322 9.15514 10.0602 8.32831 10.5294 7.43445L10.5238 7.45121ZM13.1496 18.982C13.9931 19.1384 13.9987 19.1384 14.3674 18.563C14.8663 17.7854 15.2945 16.9646 15.6468 16.1105C16.1983 14.9152 16.4276 13.5965 16.3119 12.2853C16.1963 10.9741 15.7397 9.71585 14.9876 8.63558C13.6669 6.77164 12.078 5.11312 10.2724 3.71376C9.93725 3.42884 9.5406 3.0713 9.15512 3.52382C8.76964 3.97633 9.18305 4.34505 9.55177 4.64114C11.0492 5.83033 12.3995 7.19377 13.5741 8.70262C14.4484 9.77202 14.9948 11.0714 15.1474 12.4443C15.3001 13.8171 15.0525 15.2048 14.4345 16.4401C14.0378 17.306 13.5797 18.1384 13.1496 18.982Z" fill="#00619F"/>
<path d="M93.3291 18.8478C94.4464 16.116 95.4744 13.507 96.5358 10.9037C96.9269 9.93718 97.0945 8.66901 97.8319 8.11035C98.5694 7.55169 99.9046 8.03773 100.966 7.90923C101.865 7.7975 102.24 8.19974 102.547 8.98745C103.72 11.9931 104.927 14.9875 106.19 17.9261C106.553 18.7752 106.324 18.9205 105.541 18.8199C105.356 18.7943 105.168 18.7943 104.983 18.8199C103.486 19.0546 102.34 18.764 102.15 16.9707C102.144 16.8951 102.121 16.8216 102.085 16.7549C102.049 16.6881 102 16.6294 101.94 16.5823C101.881 16.5352 101.812 16.5008 101.739 16.4812C101.665 16.4615 101.589 16.457 101.514 16.4679C100.435 16.4679 99.3571 16.5015 98.2844 16.4679C97.7258 16.4679 97.6531 16.8311 97.5135 17.2054C96.9101 18.8255 96.9045 18.8255 95.1727 18.8255L93.3291 18.8478ZM101.363 14.5461L99.871 10.5294C99.385 11.859 98.9716 12.9763 98.5582 14.0992C98.4465 14.4009 98.5582 14.5517 98.8822 14.5517C99.6699 14.5406 100.458 14.5461 101.363 14.5461Z" fill="#00619F"/>
<path d="M101.334 13.9987C100.435 13.9987 99.6583 13.9987 98.8538 13.9987C98.5075 13.9987 98.4181 13.8535 98.5298 13.5462L99.8482 9.98193C100.379 11.4121 100.837 12.6468 101.334 13.9987Z" fill="white"/>
</svg>
