<svg width="116" height="22" viewBox="0 0 116 22" fill="none" xmlns="http://www.w3.org/2000/svg">
<path d="M97.9573 0.0561378H86.1588C85.5099 0.0561378 85.0237 0.113096 85.0258 0.947128C85.0393 5.01557 85.0393 9.08402 85.0258 13.1525C85.0258 13.8339 85.3268 14.1391 86.0083 14.1391C88.9539 14.1309 91.9021 14.1309 94.8531 14.1391C95.5569 14.1391 95.8153 13.7871 95.8051 13.122C95.7909 12.2411 95.7746 11.3583 95.8051 10.4775C95.8397 9.6475 95.4837 9.30778 94.6619 9.32609C93.3417 9.35457 92.0174 9.30778 90.6972 9.34847C90.0645 9.36678 89.7838 9.21828 89.8306 8.51444C89.8896 7.56605 89.8896 6.61491 89.8306 5.66652C89.7899 4.97896 89.975 4.74299 90.7114 4.74502C96.6758 4.77553 102.64 4.75926 108.613 4.76536C110.183 4.76536 111.202 5.66042 111.208 7.00301C111.214 8.3456 110.191 9.24065 108.619 9.24065C106.314 9.24065 104.011 9.25286 101.702 9.24065C101.027 9.24065 100.559 9.40746 100.557 10.1784C100.549 13.6339 100.544 17.0921 100.541 20.553C100.541 21.2365 100.909 21.507 101.58 21.4867C102.461 21.4602 103.344 21.446 104.225 21.4867C105.055 21.5253 105.384 21.1978 105.368 20.3577C105.331 18.5269 105.352 16.6961 105.368 14.8653C105.368 14.609 105.244 14.2998 105.504 14.1045C106.029 13.7098 107.758 14.194 108.033 14.8022C108.545 15.9434 109.026 17.1029 109.575 18.2279C110.089 19.2816 110.197 20.732 111.202 21.3056C112.207 21.8793 113.521 21.446 114.703 21.4684C115.885 21.4907 116.111 21.1226 115.635 20.0444C114.758 18.0631 113.9 16.0716 112.964 14.1187C112.612 13.3884 112.655 13.008 113.35 12.4751C115.883 10.5365 116.509 7.55835 115.614 4.71247C114.689 1.81371 112.061 0.0561378 108.938 0.0561378H97.9573ZM31.1697 0.0561378H23.34C21.257 0.0561378 20.3761 0.92882 20.3721 3.02V18.0732C20.3721 20.614 21.2366 21.4928 23.7733 21.4968L39.1012 21.5131C40.755 21.5131 41.8738 20.4024 41.8779 18.6774C41.8901 13.3233 41.886 7.96655 41.8657 2.60705C41.8657 1.12614 40.7855 0.07648 39.3026 0.0663089C36.593 0.0568159 33.882 0.0534255 31.1697 0.0561378ZM0.955414 13.8889C0.955414 16.0207 0.979824 18.1607 0.943208 20.2885C0.928969 21.149 1.21986 21.5091 2.11696 21.5091C4.0454 21.4663 5.98198 21.5518 7.90635 21.4846C12.2454 21.3321 15.492 19.3263 17.398 15.4247C20.7993 8.47579 15.9537 0.633857 8.86854 0.111062C6.20778 -0.0923605 3.52057 0.0825827 0.845566 0.0602063C0.235299 0.0602063 -0.0108421 0.279902 0.00339747 0.894238C0.0339108 1.84219 0.0501846 2.79217 0.00339747 3.74215C-0.0393212 4.55584 0.320736 4.79995 1.08764 4.79181C3.3558 4.76333 5.62599 4.74909 7.89415 4.79181C9.11394 4.82172 10.2951 5.2254 11.2781 5.94829C12.2611 6.67119 12.9984 7.67843 13.3904 8.8339C13.7824 9.98936 13.8103 11.2373 13.4702 12.4091C13.13 13.5809 12.4384 14.62 11.4886 15.386C10.0647 16.5578 8.38236 16.7551 6.60648 16.7408C5.87416 16.7408 5.7155 16.513 5.72567 15.8173C5.76432 13.1097 5.7155 10.4002 5.75211 7.69058C5.75211 6.83824 5.43884 6.53514 4.61295 6.58192C3.7673 6.62668 2.91988 6.62668 2.07424 6.58192C1.23817 6.53514 0.9249 6.85858 0.943208 7.70075C0.981859 9.76548 0.955414 11.8221 0.955414 13.8889ZM86.7508 21.4826C90.4124 21.4826 94.074 21.4643 97.7234 21.4968C98.6083 21.4968 98.9683 21.1734 98.9195 20.3028C98.8829 19.6274 98.9073 18.948 98.9093 18.2685C98.9093 16.7551 98.8666 16.7083 97.3898 16.7083C91.7692 16.7083 86.1466 16.6798 80.524 16.7327C79.5557 16.7327 79.3706 16.4438 79.3788 15.5467C79.4215 10.7724 79.3788 5.9859 79.4113 1.21971C79.4113 0.3511 79.157 -0.0272653 78.2477 0.0439325C77.4354 0.109028 76.6191 0.109028 75.8067 0.0439325C74.8425 -0.0374364 74.5963 0.375511 74.6004 1.28074C74.6289 7.54615 74.6126 13.8136 74.6126 20.079C74.6126 21.3972 74.6899 21.4765 75.9776 21.4765C79.5673 21.4765 83.1611 21.4765 86.7589 21.4765L86.7508 21.4826ZM58.8291 16.6391V20.5041C58.8291 21.1836 59.1199 21.505 59.8034 21.4948C60.7528 21.4826 61.7021 21.4826 62.6514 21.4948C63.3227 21.4948 63.6542 21.21 63.64 20.5164C63.6217 19.5684 63.6868 18.6144 63.6176 17.6684C63.5607 16.9036 63.8007 16.6879 64.5676 16.7144C67.1022 16.8019 69.3236 15.9719 71.0405 14.0821C73.3676 11.521 73.9759 8.52461 72.7248 5.3085C71.5389 2.25717 69.2361 0.391785 65.9305 0.102925C63.878 -0.0781209 61.8011 0.07648 59.7343 0.0520694C59.0671 0.0520694 58.8229 0.336861 58.8352 0.96747C58.8514 1.84829 58.8677 2.73114 58.8352 3.61196C58.8026 4.49278 59.1911 4.80605 60.0557 4.78367C61.6465 4.73892 63.2413 4.75723 64.832 4.78367C66.9253 4.81012 68.5282 6.34392 68.5465 8.30695C68.5669 10.3412 66.9883 11.8933 64.8361 11.9177C63.2779 11.934 61.7176 11.9543 60.1574 11.9055C59.2095 11.877 58.7802 12.2004 58.827 13.1931C58.8697 14.3323 58.8291 15.4878 58.8291 16.6391ZM43.849 16.6391V20.5041C43.849 21.1714 44.1135 21.5213 44.8153 21.4989C45.7632 21.4806 46.7112 21.4826 47.6632 21.4989C48.3426 21.5111 48.664 21.2182 48.6539 20.5265C48.6376 19.5786 48.7007 18.6266 48.6335 17.6786C48.5806 16.9158 48.8166 16.6859 49.5876 16.7185C51.7119 16.8282 53.7966 16.1141 55.4075 14.7249C56.6725 13.6377 57.5854 12.1987 58.0303 10.5911C58.4751 8.98349 58.4317 7.2799 57.9055 5.69704C56.8681 2.62129 53.9388 0.204636 50.9505 0.100891C48.8878 0.0134191 46.819 0.0907196 44.7563 0.0602063C44.0911 0.0602063 43.8429 0.338895 43.8551 0.969504C43.8714 1.8849 43.8755 2.8003 43.8551 3.71367C43.8389 4.48871 44.1765 4.80401 44.9597 4.78571C46.5505 4.75112 48.1433 4.7613 49.7361 4.78571C52.0022 4.81215 53.5543 6.3012 53.5401 8.40459C53.5258 10.4388 51.9534 11.9075 49.7524 11.9218C48.2613 11.9218 46.7702 11.9218 45.2771 11.9218C43.9955 11.9218 43.8531 12.0499 43.8531 13.2908C43.8531 14.3954 43.8531 15.5162 43.8531 16.631L43.849 16.6391Z" fill="#FEFEFE"/>
<path d="M97.9572 0.0546875H108.942C112.065 0.0546875 114.693 1.81022 115.608 4.72119C116.503 7.56911 115.877 10.5452 113.344 12.4838C112.648 13.0168 112.606 13.3972 112.958 14.1274C113.893 16.0803 114.752 18.0718 115.628 20.0531C116.104 21.1272 115.877 21.4974 114.697 21.4771C113.517 21.4567 112.174 21.8839 111.196 21.3144C110.217 20.7448 110.093 19.2801 109.569 18.2366C109.019 17.1116 108.539 15.9521 108.027 14.8109C107.752 14.2007 106.023 13.7186 105.498 14.1132C105.238 14.3166 105.362 14.6177 105.362 14.874C105.362 16.7048 105.331 18.5356 105.362 20.3664C105.378 21.2065 105.048 21.534 104.219 21.4954C103.34 21.4527 102.457 21.4669 101.574 21.4954C100.903 21.5157 100.535 21.2452 100.535 20.5617C100.535 17.1062 100.54 13.648 100.551 10.1872C100.551 9.41618 101.021 9.24531 101.696 9.24938C104.001 9.26768 106.304 9.26362 108.612 9.24938C110.181 9.24938 111.21 8.34415 111.202 7.01173C111.194 5.67931 110.185 4.77409 108.606 4.77409C102.64 4.77409 96.6756 4.78426 90.7052 4.75374C89.9688 4.75374 89.7837 4.98768 89.8244 5.67525C89.8834 6.62363 89.8834 7.57477 89.8244 8.52316C89.7776 9.227 90.0583 9.3755 90.6909 9.35719C92.0112 9.31651 93.3354 9.35719 94.6556 9.33481C95.4693 9.31651 95.8335 9.65622 95.7989 10.4862C95.7643 11.367 95.7806 12.2499 95.7989 13.1307C95.8091 13.7898 95.5507 14.1478 94.8469 14.1478C91.8972 14.1369 88.949 14.1369 86.0021 14.1478C85.3206 14.1478 85.0195 13.8427 85.0195 13.1612C85.029 9.09274 85.029 5.02429 85.0195 0.955848C85.0195 0.121817 85.5037 0.0607902 86.1526 0.0648586C90.0949 0.0648586 94.025 0.0546875 97.9572 0.0546875Z" fill="#082661"/>
<path d="M31.1692 0.0546047H39.3061C40.789 0.0546047 41.8631 1.11443 41.8692 2.59535C41.8896 7.95214 41.8936 13.3089 41.8814 18.6657C41.8814 20.3907 40.7585 21.5014 39.1047 21.5014L23.7768 21.4851C21.2402 21.4851 20.3736 20.6023 20.3756 18.0615C20.3756 13.0452 20.3654 8.03079 20.3756 3.0083C20.3756 0.917115 21.2605 0.0505363 23.3435 0.0444336H31.1733L31.1692 0.0546047ZM31.1265 18.4094C32.8555 18.404 34.5116 17.7127 35.7313 16.4873C36.9511 15.2618 37.6346 13.6025 37.6319 11.8735C37.6292 10.1445 36.9405 8.48724 35.717 7.26562C34.4934 6.044 32.8351 5.35786 31.1061 5.35786C29.3772 5.35786 27.7188 6.044 26.4953 7.26562C25.2718 8.48724 24.5831 10.1445 24.5804 11.8735C24.5777 13.6025 25.2612 15.2618 26.4809 16.4873C27.7007 17.7127 29.3568 18.404 31.0858 18.4094H31.1265Z" fill="#FABD12"/>
<path d="M0.955802 13.888C0.955802 11.8213 0.982247 9.75451 0.943597 7.68977C0.925289 6.8476 1.23856 6.52416 2.07462 6.57095C2.92027 6.6157 3.76769 6.6157 4.61333 6.57095C5.43923 6.52416 5.76267 6.82726 5.7525 7.6796C5.71588 10.3892 5.7647 13.0988 5.72605 15.8165C5.71588 16.5122 5.87455 16.7339 6.60687 16.74C8.37461 16.7543 10.0488 16.5569 11.489 15.3852C12.4424 14.6205 13.1376 13.581 13.4802 12.4078C13.8228 11.2346 13.7964 9.98438 13.4044 8.82671C13.0125 7.66903 12.274 6.65991 11.2891 5.93617C10.3042 5.21243 9.1205 4.80908 7.89861 4.78083C5.63045 4.73404 3.36025 4.74828 1.09209 4.78083C0.325193 4.78083 -0.0348646 4.553 0.00378567 3.73117C0.0587097 2.78526 0.0424359 1.83121 0.00378567 0.883259C-0.0104539 0.272992 0.235687 0.0451591 0.845954 0.0492276C3.52096 0.071604 6.20817 -0.0972365 8.86893 0.100083C15.9541 0.622878 20.7996 8.46481 17.3984 15.4137C15.4924 19.3052 12.2457 21.313 7.90674 21.4737C5.98033 21.5408 4.04172 21.4554 2.11734 21.4981C1.22025 21.5164 0.929357 21.1482 0.943597 20.2775C0.980213 18.1436 0.955802 16.0057 0.955802 13.8779V13.888Z" fill="#082661"/>
<path d="M86.7508 21.479H75.9817C74.694 21.479 74.6167 21.3997 74.6167 20.0815C74.6167 13.8161 74.633 7.54864 74.6045 1.28323C74.6045 0.378002 74.8466 -0.0349453 75.8108 0.0464236C76.6232 0.111519 77.4395 0.111519 78.2519 0.0464236C79.1612 -0.0247742 79.4215 0.353591 79.4154 1.2222C79.3869 5.99856 79.4256 10.7831 79.3829 15.5492C79.3829 16.4463 79.5599 16.7433 80.5281 16.7352C86.1507 16.6823 91.7733 16.7087 97.3939 16.7108C98.8707 16.7108 98.9135 16.7576 98.9135 18.271C98.9135 18.9484 98.887 19.6279 98.9135 20.3052C98.9623 21.1759 98.6022 21.5054 97.7173 21.4993C94.0659 21.4627 90.4084 21.481 86.7508 21.479Z" fill="#062560"/>
<path d="M58.8292 16.6376C58.8292 15.4863 58.8699 14.3308 58.815 13.1795C58.7682 12.1868 59.1974 11.8633 60.1454 11.8918C61.7036 11.9406 63.2638 11.9203 64.8241 11.904C66.9763 11.8796 68.5548 10.3315 68.5345 8.29325C68.5162 6.33023 66.9071 4.79642 64.82 4.76998C63.2292 4.74964 61.6344 4.73133 60.0436 4.76998C59.1791 4.79235 58.7824 4.49332 58.8231 3.59827C58.8638 2.70321 58.8475 1.83663 58.8231 0.953776C58.8109 0.323166 59.055 0.0302383 59.7222 0.0383752C61.789 0.0627859 63.8782 -0.091815 65.9124 0.0892308C69.2241 0.37809 71.5268 2.23737 72.7128 5.2887C73.9638 8.50481 73.3556 11.5012 71.0284 14.0623C69.3116 15.9521 67.0902 16.7821 64.5555 16.6946C63.7886 16.6681 63.5486 16.8838 63.6056 17.6486C63.6747 18.5925 63.6056 19.5466 63.6279 20.4966C63.6422 21.1902 63.3106 21.4811 62.6393 21.475C61.69 21.4655 60.7407 21.4655 59.7914 21.475C59.1079 21.4852 58.8089 21.1638 58.817 20.4843C58.8394 19.213 58.8292 17.9253 58.8292 16.6376Z" fill="#0A2862"/>
<path d="M43.8487 16.6295V13.2751C43.8487 12.0342 43.9891 11.9061 45.2727 11.9061C46.7617 11.9061 48.2528 11.9061 49.748 11.9061C51.949 11.8918 53.5215 10.4231 53.5357 8.3889C53.5499 6.28551 51.9978 4.79646 49.7317 4.77002C48.1389 4.75171 46.5461 4.74154 44.9554 4.77002C44.1722 4.78833 43.8345 4.47302 43.8508 3.69798C43.8711 2.78462 43.867 1.86718 43.8508 0.953815C43.8386 0.323206 44.0867 0.0343463 44.7519 0.0445174C46.8187 0.0689281 48.8875 -0.00226969 50.9502 0.0750308C53.9385 0.186913 56.8678 2.59543 57.9052 5.67118C58.4336 7.25542 58.4781 8.96113 58.0332 10.5708C57.5883 12.1805 56.6741 13.6212 55.4072 14.7092C53.7963 16.0984 51.7116 16.8125 49.5873 16.7028C48.8163 16.6702 48.5803 16.9062 48.6332 17.6629C48.7004 18.6068 48.6332 19.5588 48.6536 20.5108C48.6536 21.2025 48.3423 21.4954 47.6629 21.4832C46.715 21.4669 45.767 21.4649 44.815 21.4832C44.1132 21.4974 43.8426 21.1557 43.8487 20.4885C43.8609 19.2008 43.8487 17.9152 43.8487 16.6234V16.6295Z" fill="#082661"/>
<path d="M31.1278 18.4175C29.1191 18.4049 27.1973 17.5964 25.7836 16.1693C24.3699 14.7422 23.5796 12.8128 23.586 10.8041C23.5923 8.79531 24.3947 6.87098 25.8174 5.4528C27.24 4.03463 29.1669 3.23828 31.1756 3.23828C33.1844 3.23828 35.1112 4.03463 36.5339 5.4528C37.9565 6.87098 38.7589 8.79531 38.7653 10.8041C38.7716 12.8128 37.9813 14.7422 36.5676 16.1693C35.1539 17.5964 33.2322 18.4049 31.2234 18.4175H31.1278Z" fill="#07245F"/>
</svg>
