<svg width="100" height="30" viewBox="0 0 100 30" fill="none" xmlns="http://www.w3.org/2000/svg">
<path d="M0 29.83C0.76 28.83 1.41 28.01 2.07 27.18L13.58 12.77C13.9 12.38 13.94 12.15 13.58 11.77C10.2667 8.02334 6.96667 4.27667 3.68 0.530002L3.42 0.230002C3.51 1.83284e-06 3.7 0.0600018 3.84 0.0600018H14.19C14.3452 0.0560963 14.4993 0.0884028 14.6399 0.154361C14.7805 0.220319 14.9038 0.318116 15 0.440002C16.29 1.94 17.62 3.44 18.91 4.9C19.27 5.32 19.47 5.39 19.84 4.9C20.94 3.49 22.1 2.15 23.15 0.730002C23.3059 0.475237 23.5361 0.274407 23.8097 0.154602C24.0833 0.0347957 24.3871 0.00177794 24.68 0.0600018C25.11 0.120002 25.68 -0.169998 25.9 0.210002C26.12 0.590002 25.49 0.870002 25.23 1.21C23.87 2.95 22.48 4.68 21.1 6.41C21.0227 6.52317 20.9716 6.65219 20.9505 6.78762C20.9295 6.92305 20.9389 7.06148 20.9782 7.19279C21.0175 7.3241 21.0857 7.44497 21.1777 7.54656C21.2697 7.64816 21.3832 7.72792 21.51 7.78C21.79 7.88 21.87 7.64 22 7.49C23.52 5.58 25 3.66 26.57 1.75C26.6809 1.6288 26.7813 1.49832 26.87 1.36C27.112 0.841412 27.5306 0.425845 28.0509 0.187663C28.5712 -0.0505195 29.1593 -0.0957724 29.71 0.0600018C29.86 0.0600018 30.06 -0.0299982 30.14 0.170002C30.22 0.370002 30.02 0.460002 29.93 0.580002L25.18 6.58C24.53 7.39 23.89 8.22 23.18 9.03C22.47 9.84 23.36 9.92 23.63 10.24C23.9 10.56 24.14 10.17 24.29 9.98L31.87 0.490002C32.04 0.280002 32.17 0.0500018 32.53 0.0500018H42C42.12 0.350002 41.88 0.460002 41.76 0.600002C37.76 5.66667 33.72 10.7267 29.64 15.78C29.24 16.28 29.22 16.57 29.64 17.06C33.23 21.06 36.79 25.16 40.35 29.22C40.48 29.37 40.75 29.5 40.64 29.72C40.53 29.94 40.27 29.81 40.07 29.81C36.76 29.81 33.45 29.81 30.14 29.81C29.9231 29.8175 29.7076 29.7733 29.5111 29.6812C29.3147 29.589 29.1429 29.4515 29.01 29.28C27.41 27.43 25.78 25.61 24.18 23.76C23.77 23.28 23.57 23.34 23.18 23.81C21.74 25.67 20.25 27.49 18.8 29.34C18.697 29.4926 18.5564 29.616 18.3917 29.6984C18.227 29.7807 18.0439 29.8191 17.86 29.81C14.97 29.81 12.08 29.81 9.19 29.81C9 29.81 8.73 29.94 8.64 29.68C8.55 29.42 8.78 29.36 8.89 29.22C11.9033 25.4533 14.9033 21.68 17.89 17.9C17.9889 17.7827 18.0595 17.6443 18.0963 17.4953C18.1331 17.3464 18.1351 17.191 18.1022 17.0412C18.0694 16.8913 18.0025 16.751 17.9067 16.6312C17.8109 16.5113 17.6889 16.4151 17.55 16.35C17.26 16.22 17.19 16.47 17.07 16.62L12.61 22.18C10.84 24.5 9 26.82 7.16 29.13C6.95 29.4 6.81 29.79 6.41 29.81C5.78558 29.885 5.15442 29.885 4.53 29.81C4.17 29.75 4.53 29.44 4.61 29.3C5.42 28.25 6.26 27.23 7.09 26.19L15.8 15.24C15.8792 15.1258 15.9319 14.9952 15.954 14.8579C15.9761 14.7207 15.9672 14.5802 15.9279 14.4468C15.8885 14.3135 15.8198 14.1906 15.7267 14.0873C15.6336 13.984 15.5186 13.9029 15.39 13.85C15.07 13.74 15.01 14.05 14.88 14.21C12.98 16.57 11.1 18.94 9.21 21.31C7.12 23.93 5 26.54 3 29.18C2.84153 29.4193 2.61816 29.6085 2.35603 29.7254C2.09391 29.8422 1.80391 29.882 1.52 29.84C1.0139 29.8089 0.506468 29.8055 0 29.83H0Z" fill="#04518B"/>
<path d="M85.9103 0.199951C86.2903 0.399951 86.2803 0.759951 86.2803 1.10995C86.2803 2.76995 86.2803 4.41995 86.2803 6.10995C86.2827 6.50843 86.1938 6.90217 86.0204 7.26098C85.8471 7.61979 85.5939 7.93415 85.2803 8.17995C82.0603 10.94 78.8336 13.6933 75.6003 16.44L68.8503 22.19C68.7003 22.32 68.4203 22.42 68.5203 22.66C68.6203 22.9 68.8903 22.76 69.0903 22.76C74.5703 22.76 80.0403 22.76 85.5203 22.76C86.2003 22.76 86.3903 22.94 86.3803 23.61C86.3803 25.47 86.3803 27.34 86.3803 29.2C86.3803 29.71 86.2503 29.8799 85.7103 29.8799C76.1303 29.8799 66.5503 29.8799 56.9703 29.8799C56.4503 29.8799 56.2803 29.7299 56.2903 29.2099C56.2903 27.5499 56.2903 25.9 56.2903 24.2099C56.2671 23.6613 56.3716 23.1147 56.5954 22.6132C56.8192 22.1118 57.1564 21.6691 57.5803 21.32L66.1703 13.95L73.8403 7.39995C73.9098 7.35868 73.9674 7.30019 74.0077 7.23012C74.048 7.16005 74.0696 7.08077 74.0703 6.99995C73.7161 6.93971 73.3544 6.93971 73.0003 6.99995H57.4703C57.1703 6.99995 56.8503 7.06995 56.8603 6.57995C56.8603 4.45995 56.8603 2.33995 56.8603 0.219951L85.9103 0.199951Z" fill="#02518B"/>
<path d="M97.9997 29.7999H97.6997C97.4641 29.6964 97.2031 29.6651 96.9497 29.7099C95.0564 29.7099 93.1664 29.7099 91.2797 29.7099C90.7297 29.7099 90.4297 29.5599 90.4297 28.91C90.4297 19.5766 90.4297 10.2433 90.4297 0.909951C90.4297 0.329951 90.6297 0.199951 91.1597 0.199951C93.6097 0.199951 96.0497 0.199951 98.4997 0.199951C99.1997 0.199951 99.4097 0.379951 99.4097 1.08995C99.4097 6.46995 99.4097 11.86 99.4097 17.24C99.4097 21.4133 99.4097 25.5833 99.4097 29.75C98.9405 29.6816 98.4629 29.6986 97.9997 29.7999Z" fill="#02518B"/>
<path d="M43.79 14.8501C43.79 10.1901 43.79 5.53009 43.79 0.850087C43.79 0.240087 43.91 0.0100866 44.58 0.0200866C47.14 0.0200866 49.71 0.0200866 52.27 0.0200866C52.79 0.0200866 53 0.110087 53 0.700087C53 10.1534 53 19.6101 53 29.0701C53 29.6601 52.82 29.8201 52.24 29.8101C49.7 29.8101 47.16 29.8101 44.62 29.8101C44 29.8101 43.79 29.6601 43.79 29.0101C43.79 24.2801 43.79 19.5501 43.79 14.8201V14.8501ZM52.69 14.9101C52.69 10.2801 52.69 5.64009 52.69 1.00009C52.69 0.340087 52.48 0.170087 51.85 0.180087C49.4834 0.180087 47.1067 0.180087 44.72 0.180087C44.18 0.180087 43.99 0.330087 43.99 0.900087C43.99 10.2334 43.99 19.5668 43.99 28.9001C43.99 29.4701 44.18 29.6201 44.72 29.6201C47.08 29.6201 49.43 29.6201 51.78 29.6201C52.48 29.6201 52.7 29.4501 52.69 28.7301C52.67 24.1001 52.69 19.5101 52.69 14.9101Z" fill="#04518B"/>
<path d="M99.43 29.7301C99.43 25.5568 99.43 21.3868 99.43 17.2201C99.43 11.8401 99.43 6.45011 99.43 1.07011C99.43 0.360107 99.2199 0.170107 98.5199 0.180107C96.0699 0.180107 93.63 0.180107 91.18 0.180107C90.65 0.180107 90.4499 0.310107 90.4499 0.890107C90.4499 10.2234 90.4499 19.5568 90.4499 28.8901C90.4499 29.5401 90.75 29.6901 91.3 29.6901C93.1866 29.6901 95.0766 29.6901 96.97 29.6901C97.2233 29.6452 97.4844 29.6765 97.72 29.7801C95.43 29.7801 93.15 29.7801 90.87 29.7801C90.28 29.7801 90.3899 29.4101 90.3899 29.0801C90.3899 25.2801 90.3899 21.4801 90.3899 17.6801C90.3899 12.0601 90.3899 6.45011 90.3899 0.830107C90.3899 0.160107 90.54 -0.0298929 91.23 -0.0198929C93.79 -0.0198929 96.3599 -0.0198929 98.9199 -0.0198929C99.3999 -0.0198929 99.5599 0.0901071 99.5599 0.600107C99.5599 10.1134 99.5599 19.6234 99.5599 29.1301C99.5299 29.3801 99.58 29.5801 99.43 29.7301Z" fill="#04518B"/>
<path d="M85.9102 0.200121H56.9102C57.0802 -0.0598789 57.3302 0.0801211 57.5402 0.0801211H85.2602C85.4802 0.0601211 85.7302 0.000121072 85.9102 0.200121Z" fill="#04518B"/>
<path d="M98 29.8C98.4613 29.6886 98.939 29.6615 99.41 29.72C98.9518 29.8513 98.4701 29.8786 98 29.8Z" fill="#04518B"/>
<path d="M52.6902 14.9099C52.6902 19.5099 52.6902 24.0999 52.6902 28.6899C52.6902 29.4099 52.4802 29.5899 51.7802 29.5799C49.4302 29.5799 47.0802 29.5799 44.7202 29.5799C44.1802 29.5799 43.9902 29.4299 43.9902 28.8599C43.9902 19.5266 43.9902 10.1932 43.9902 0.859893C43.9902 0.289893 44.1802 0.139893 44.7202 0.139893C47.1002 0.139893 49.4769 0.139893 51.8502 0.139893C52.4802 0.139893 52.6902 0.299893 52.6902 0.959893C52.6702 5.63989 52.6902 10.2799 52.6902 14.9099Z" fill="#02518B"/>
</svg>
