<svg width="131" height="131" viewBox="0 0 131 131" fill="none" xmlns="http://www.w3.org/2000/svg">
<path d="M126.593 31.9237C124.437 29.7597 121.577 28.5191 118.745 28.5191C117.612 28.5029 116.486 28.7122 115.435 29.1347C114.383 29.5572 113.425 30.1846 112.618 30.9803L107.433 36.1832L44.172 99.6831C43.9599 99.8963 43.8012 100.157 43.7088 100.443L32.565 124.664C32.4012 125.02 32.3505 125.418 32.4199 125.804C32.4893 126.19 32.6753 126.545 32.9529 126.822C33.2306 127.099 33.5865 127.284 33.9726 127.353C34.3588 127.421 34.7566 127.37 35.1125 127.205L46.081 122.121C46.376 122.061 46.6527 121.933 46.8885 121.746L59.2572 116.013C59.2956 115.995 59.332 115.975 59.3687 115.955C59.6009 115.859 59.8119 115.718 59.9897 115.54L123.25 52.0412H123.252L128.435 46.8366C132.024 43.2353 131.608 36.9581 127.509 32.8438L126.593 31.9237ZM59.3717 110.727L57.5638 104.825L115.343 46.8284L119.186 50.6866L59.3717 110.727ZM108.793 40.2534L112.637 44.1116L54.8454 102.12L48.9648 100.305L108.793 40.2534ZM40.1401 117.375L42.3712 119.615L38.2256 121.536L40.1401 117.375ZM46.0744 117.898L41.8505 113.658L46.4973 103.558L53.8615 105.829L56.1296 113.237L46.0744 117.898ZM125.719 44.13L121.893 47.9698L121.495 47.5696L116.701 42.7582L111.499 37.5366L115.334 33.6869C115.786 33.2489 116.32 32.9054 116.906 32.6765C117.492 32.4476 118.118 32.338 118.746 32.354C120.566 32.354 122.436 33.1837 123.877 34.63L124.793 35.5499C127.404 38.1719 127.82 42.0208 125.719 44.13Z" fill="#7AC1F4"/>
<path d="M1.91747 130.206C2.16974 130.206 2.41953 130.156 2.65253 130.059C2.88554 129.962 3.09717 129.821 3.27531 129.642L129.431 3.16326C129.698 2.90591 129.88 2.57362 129.954 2.21035C130.028 1.84707 129.99 1.46993 129.845 1.12883C129.696 0.785024 129.448 0.493693 129.132 0.292571C128.816 0.0914494 128.447 -0.0101941 128.073 0.000807386H1.91747C0.858478 0.000807386 0 0.750263 0 1.80871V128.288C0 128.796 0.202018 129.284 0.561613 129.643C0.921208 130.003 1.40892 130.205 1.91747 130.205V130.206ZM10.4091 3.83574V8.40808C10.4091 8.65989 10.4587 8.90923 10.5551 9.14186C10.6514 9.3745 10.7927 9.58588 10.9707 9.76394C11.1488 9.94199 11.3602 10.0832 11.5928 10.1796C11.8254 10.276 12.0748 10.3255 12.3266 10.3255C12.5784 10.3255 12.8277 10.276 13.0604 10.1796C13.293 10.0832 13.5044 9.94199 13.6824 9.76394C13.8605 9.58588 14.0017 9.3745 14.0981 9.14186C14.1944 8.90923 14.244 8.65989 14.244 8.40808V3.83574H19.9964V11.4327C19.9964 11.9413 20.1985 12.429 20.5581 12.7886C20.9177 13.1482 21.4054 13.3502 21.9139 13.3502C22.4225 13.3502 22.9102 13.1482 23.2698 12.7886C23.6294 12.429 23.8314 11.9413 23.8314 11.4327V3.83574H29.5838V8.40808C29.5838 8.91663 29.7858 9.40434 30.1454 9.76394C30.505 10.1235 30.9927 10.3255 31.5013 10.3255C32.0098 10.3255 32.4975 10.1235 32.8571 9.76394C33.2167 9.40434 33.4187 8.91663 33.4187 8.40808V3.83574H39.1711V11.4327C39.1711 11.9413 39.3731 12.429 39.7327 12.7886C40.0923 13.1482 40.58 13.3502 41.0886 13.3502C41.5971 13.3502 42.0849 13.1482 42.4444 12.7886C42.804 12.429 43.0061 11.9413 43.0061 11.4327V3.83574H48.7585V8.40808C48.7585 8.91663 48.9605 9.40434 49.3201 9.76394C49.6797 10.1235 50.1674 10.3255 50.6759 10.3255C51.1845 10.3255 51.6722 10.1235 52.0318 9.76394C52.3914 9.40434 52.5934 8.91663 52.5934 8.40808V3.83574H58.0719V11.4327C58.0719 11.9413 58.2739 12.429 58.6335 12.7886C58.9931 13.1482 59.4808 13.3502 59.9893 13.3502C60.4979 13.3502 60.9856 13.1482 61.3452 12.7886C61.7048 12.429 61.9068 11.9413 61.9068 11.4327V3.83574H67.9331V8.40808C67.9331 8.91663 68.1352 9.40434 68.4948 9.76394C68.8543 10.1235 69.3421 10.3255 69.8506 10.3255C70.3591 10.3255 70.8469 10.1235 71.2065 9.76394C71.566 9.40434 71.7681 8.91663 71.7681 8.40808V3.83574H77.2466V11.4327C77.2466 11.9413 77.4486 12.429 77.8082 12.7886C78.1678 13.1482 78.6555 13.3502 79.164 13.3502C79.6726 13.3502 80.1603 13.1482 80.5199 12.7886C80.8795 12.429 81.0815 11.9413 81.0815 11.4327V3.83574H86.8339V8.40808C86.8339 8.91663 87.0359 9.40434 87.3955 9.76394C87.7551 10.1235 88.2428 10.3255 88.7514 10.3255C89.2599 10.3255 89.7476 10.1235 90.1072 9.76394C90.4668 9.40434 90.6688 8.91663 90.6688 8.40808V3.83574H96.4212V11.4327C96.4212 11.9413 96.6232 12.429 96.9828 12.7886C97.3424 13.1482 97.8301 13.3502 98.3387 13.3502C98.8472 13.3502 99.3349 13.1482 99.6945 12.7886C100.054 12.429 100.256 11.9413 100.256 11.4327V3.83574H106.009V8.40808C106.009 8.91663 106.211 9.40434 106.57 9.76394C106.93 10.1235 107.417 10.3255 107.926 10.3255C108.435 10.3255 108.922 10.1235 109.282 9.76394C109.641 9.40434 109.843 8.91663 109.843 8.40808V3.83574H123.452L3.83494 123.65V111.488H8.49164C9.00019 111.488 9.4879 111.286 9.8475 110.926C10.2071 110.567 10.4091 110.079 10.4091 109.57C10.4091 109.062 10.2071 108.574 9.8475 108.215C9.4879 107.855 9.00019 107.653 8.49164 107.653H3.83494V93.7047H11.6223C12.1309 93.7047 12.6186 93.5027 12.9782 93.1431C13.3378 92.7835 13.5398 92.2958 13.5398 91.7872C13.5398 91.2787 13.3378 90.791 12.9782 90.4314C12.6186 90.0718 12.1309 89.8698 11.6223 89.8698H3.83466V76.1517H8.49164C9.00019 76.1517 9.4879 75.9496 9.8475 75.59C10.2071 75.2305 10.4091 74.7427 10.4091 74.2342C10.4091 73.7257 10.2071 73.2379 9.8475 72.8783C9.4879 72.5188 9.00019 72.3167 8.49164 72.3167H3.83494V58.0727H11.5048C12.0133 58.0727 12.5011 57.8707 12.8607 57.5111C13.2203 57.1515 13.4223 56.6638 13.4223 56.1552C13.4223 55.6467 13.2203 55.159 12.8607 54.7994C12.5011 54.4398 12.0133 54.2377 11.5048 54.2377H3.83494V40.2676H8.49164C9.00019 40.2676 9.4879 40.0656 9.8475 39.706C10.2071 39.3464 10.4091 38.8587 10.4091 38.3502C10.4091 37.8416 10.2071 37.3539 9.8475 36.9943C9.4879 36.6347 9.00019 36.4327 8.49164 36.4327H3.83494V22.4626H11.5048C12.0133 22.4626 12.5011 22.2605 12.8607 21.901C13.2203 21.5414 13.4223 21.0536 13.4223 20.5451C13.4223 20.0366 13.2203 19.5488 12.8607 19.1892C12.5011 18.8297 12.0133 18.6276 11.5048 18.6276H3.83494V3.83574H10.4091Z" fill="#7AC1F4"/>
<path d="M23.9208 79.7753C24.2713 79.9204 24.6571 79.9581 25.0291 79.8839C25.4011 79.8096 25.7428 79.6267 26.0108 79.3582L79.2852 25.9849C79.5529 25.7184 79.7353 25.3782 79.8088 25.0077C79.8824 24.6372 79.844 24.2532 79.6984 23.9046C79.5527 23.5561 79.3066 23.2588 78.9913 23.0507C78.676 22.8427 78.3059 22.7332 77.9282 22.7364H24.6538C24.4032 22.7338 24.1546 22.7808 23.9223 22.8748C23.6901 22.9687 23.4787 23.1077 23.3004 23.2838C23.1221 23.4599 22.9805 23.6695 22.8837 23.9007C22.7869 24.1318 22.7368 24.3798 22.7363 24.6303V78.0036C22.7363 78.383 22.8489 78.7538 23.0597 79.0692C23.2706 79.3846 23.5702 79.6303 23.9208 79.7753ZM26.5713 26.5714H73.3049L26.5713 73.3683V26.5714Z" fill="#7AC1F4"/>
</svg>
