<svg width="137" height="139" viewBox="0 0 137 139" fill="none" xmlns="http://www.w3.org/2000/svg">
<path d="M44.9029 49.8795H90.3511C90.8333 49.8795 91.2957 49.688 91.6366 49.3471C91.9775 49.0061 92.1691 48.5437 92.1691 48.0616C92.1691 47.5794 91.9775 47.117 91.6366 46.7761C91.2957 46.4352 90.8333 46.2437 90.3511 46.2437H44.9029C44.4207 46.2437 43.9583 46.4352 43.6174 46.7761C43.2765 47.117 43.085 47.5794 43.085 48.0616C43.085 48.5437 43.2765 49.0061 43.6174 49.3471C43.9583 49.688 44.4207 49.8795 44.9029 49.8795Z" fill="#7AC1F4"/>
<path d="M26.5461 47.7248L22.507 51.5864L20.8687 49.9482C20.7007 49.7756 20.5002 49.6381 20.2786 49.5437C20.0571 49.4493 19.819 49.3999 19.5782 49.3983C19.3374 49.3966 19.0987 49.4429 18.8759 49.5343C18.6531 49.6257 18.4507 49.7605 18.2804 49.9308C18.1102 50.101 17.9754 50.3035 17.884 50.5263C17.7927 50.7491 17.7464 50.9878 17.7481 51.2286C17.7497 51.4694 17.7992 51.7075 17.8936 51.929C17.9881 52.1505 18.1256 52.3511 18.2981 52.519L21.1932 55.4144C21.5291 55.7503 21.9832 55.9414 22.4583 55.9467C22.9333 55.952 23.3916 55.7712 23.735 55.4429L29.0588 50.3527C29.233 50.1881 29.3729 49.9907 29.4706 49.7718C29.5682 49.553 29.6216 49.3169 29.6277 49.0774C29.6338 48.8378 29.5924 48.5994 29.506 48.3758C29.4196 48.1523 29.2899 47.948 29.1243 47.7748C28.9586 47.6016 28.7604 47.4629 28.541 47.3665C28.3215 47.2702 28.0852 47.2182 27.8456 47.2136C27.606 47.209 27.3678 47.2517 27.1448 47.3395C26.9218 47.4272 26.7183 47.5582 26.5461 47.7248Z" fill="#7AC1F4"/>
<path d="M23.6938 39.2445C21.2535 39.2445 18.868 39.9681 16.8389 41.3239C14.8099 42.6797 13.2285 44.6067 12.2946 46.8612C11.3608 49.1157 11.1165 51.5966 11.5926 53.99C12.0687 56.3834 13.2438 58.5819 14.9694 60.3074C16.695 62.0329 18.8935 63.208 21.2869 63.684C23.6803 64.1601 26.1611 63.9157 28.4156 62.9818C30.6701 62.0479 32.5971 60.4664 33.9528 58.4374C35.3085 56.4083 36.0321 54.0228 36.032 51.5825C36.0284 48.3113 34.7272 45.1752 32.4142 42.8622C30.1011 40.5492 26.9649 39.2481 23.6938 39.2445ZM23.6938 60.2849C21.9726 60.2849 20.2901 59.7745 18.859 58.8183C17.4278 57.8621 16.3124 56.5029 15.6538 54.9128C14.9951 53.3226 14.8228 51.5728 15.1585 49.8847C15.4943 48.1966 16.3232 46.646 17.5402 45.4289C18.7573 44.2119 20.3079 43.3831 21.996 43.0473C23.6841 42.7115 25.4339 42.8838 27.024 43.5425C28.6142 44.2012 29.9733 45.3166 30.9296 46.7477C31.8858 48.1788 32.3962 49.8613 32.3962 51.5825C32.3939 53.8899 31.4764 56.1023 29.8449 57.734C28.2134 59.3657 26.0012 60.2836 23.6938 60.2861V60.2849Z" fill="#7AC1F4"/>
<path d="M44.9029 80.1782H90.3511C90.8333 80.1782 91.2957 79.9867 91.6366 79.6458C91.9775 79.3048 92.1691 78.8424 92.1691 78.3603C92.1691 77.8781 91.9775 77.4157 91.6366 77.0748C91.2957 76.7339 90.8333 76.5424 90.3511 76.5424H44.9029C44.4207 76.5424 43.9583 76.7339 43.6174 77.0748C43.2765 77.4157 43.085 77.8781 43.085 78.3603C43.085 78.8424 43.2765 79.3048 43.6174 79.6458C43.9583 79.9867 44.4207 80.1782 44.9029 80.1782Z" fill="#7AC1F4"/>
<path d="M26.5461 78.0237L22.507 81.8853L20.8687 80.247C20.7007 80.0744 20.5002 79.937 20.2786 79.8426C20.0571 79.7482 19.819 79.6987 19.5782 79.6971C19.3374 79.6955 19.0987 79.7417 18.8759 79.8331C18.6531 79.9245 18.4507 80.0593 18.2804 80.2296C18.1102 80.3999 17.9754 80.6023 17.884 80.8251C17.7927 81.0479 17.7464 81.2866 17.7481 81.5274C17.7497 81.7682 17.7992 82.0063 17.8936 82.2278C17.9881 82.4494 18.1256 82.6499 18.2981 82.8179L21.1932 85.7132C21.5291 86.0491 21.9832 86.2402 22.4583 86.2455C22.9333 86.2509 23.3916 86.07 23.735 85.7417L29.0588 80.6515C29.233 80.4869 29.3729 80.2895 29.4706 80.0706C29.5682 79.8518 29.6216 79.6158 29.6277 79.3762C29.6338 79.1366 29.5924 78.8982 29.506 78.6747C29.4196 78.4511 29.2899 78.2469 29.1243 78.0736C28.9586 77.9004 28.7604 77.7617 28.541 77.6654C28.3215 77.569 28.0852 77.5171 27.8456 77.5124C27.606 77.5078 27.3678 77.5506 27.1448 77.6383C26.9218 77.726 26.7183 77.857 26.5461 78.0237Z" fill="#7AC1F4"/>
<path d="M23.6938 69.5433C21.2535 69.5433 18.868 70.267 16.8389 71.6227C14.8099 72.9785 13.2285 74.9055 12.2946 77.16C11.3608 79.4146 11.1165 81.8954 11.5926 84.2888C12.0687 86.6822 13.2438 88.8807 14.9694 90.6062C16.695 92.3317 18.8935 93.5068 21.2869 93.9829C23.6803 94.4589 26.1611 94.2145 28.4156 93.2806C30.6701 92.3467 32.5971 90.7652 33.9528 88.7362C35.3085 86.7071 36.0321 84.3216 36.032 81.8813C36.0284 78.6102 34.7272 75.474 32.4142 73.161C30.1011 70.848 26.9649 69.5469 23.6938 69.5433ZM23.6938 90.5837C21.9726 90.5837 20.2901 90.0734 18.859 89.1171C17.4278 88.1609 16.3124 86.8018 15.6538 85.2116C14.9951 83.6214 14.8228 81.8717 15.1585 80.1836C15.4943 78.4955 16.3232 76.9448 17.5402 75.7278C18.7573 74.5107 20.3079 73.6819 21.996 73.3461C23.6841 73.0103 25.4339 73.1827 27.024 73.8413C28.6142 74.5 29.9733 75.6154 30.9296 77.0465C31.8858 78.4776 32.3962 80.1601 32.3962 81.8813C32.3939 84.1888 31.4764 86.4011 29.8449 88.0328C28.2134 89.6645 26.0012 90.5824 23.6938 90.585V90.5837Z" fill="#7AC1F4"/>
<path d="M26.5461 108.323L22.507 112.184L20.8687 110.546C20.7007 110.373 20.5002 110.236 20.2786 110.141C20.0571 110.047 19.819 109.998 19.5782 109.996C19.3374 109.994 19.0987 110.041 18.8759 110.132C18.6531 110.223 18.4507 110.358 18.2804 110.528C18.1102 110.699 17.9754 110.901 17.884 111.124C17.7927 111.347 17.7464 111.585 17.7481 111.826C17.7497 112.067 17.7992 112.305 17.8936 112.527C17.9881 112.748 18.1256 112.949 18.2981 113.117L21.1932 116.012C21.5291 116.348 21.9832 116.539 22.4583 116.544C22.9333 116.55 23.3916 116.369 23.735 116.041L29.0588 110.95C29.233 110.786 29.3729 110.588 29.4706 110.369C29.5682 110.151 29.6216 109.915 29.6277 109.675C29.6338 109.435 29.5924 109.197 29.506 108.973C29.4196 108.75 29.2899 108.546 29.1243 108.372C28.9586 108.199 28.7604 108.061 28.541 107.964C28.3215 107.868 28.0852 107.816 27.8456 107.811C27.606 107.807 27.3678 107.849 27.1448 107.937C26.9218 108.025 26.7183 108.156 26.5461 108.323Z" fill="#7AC1F4"/>
<path d="M23.6938 99.8422C21.2535 99.8422 18.868 100.566 16.8389 101.922C14.8099 103.277 13.2285 105.204 12.2946 107.459C11.3608 109.713 11.1165 112.194 11.5926 114.588C12.0687 116.981 13.2438 119.18 14.9694 120.905C16.695 122.631 18.8935 123.806 21.2869 124.282C23.6803 124.758 26.1611 124.513 28.4156 123.579C30.6701 122.646 32.5971 121.064 33.9528 119.035C35.3085 117.006 36.0321 114.62 36.032 112.18C36.0284 108.909 34.7272 105.773 32.4142 103.46C30.1011 101.147 26.9649 99.8458 23.6938 99.8422ZM23.6938 120.883C21.9726 120.883 20.2901 120.372 18.859 119.416C17.4278 118.46 16.3124 117.101 15.6538 115.51C14.9951 113.92 14.8228 112.17 15.1585 110.482C15.4943 108.794 16.3232 107.244 17.5402 106.027C18.7573 104.81 20.3079 103.981 21.996 103.645C23.6841 103.309 25.4339 103.481 27.024 104.14C28.6142 104.799 29.9733 105.914 30.9296 107.345C31.8858 108.776 32.3962 110.459 32.3962 112.18C32.3939 114.488 31.4764 116.7 29.8449 118.332C28.2134 119.963 26.0012 120.881 23.6938 120.884V120.883Z" fill="#7AC1F4"/>
<path d="M44.9029 55.9392H69.1419C69.6241 55.9392 70.0865 55.7477 70.4274 55.4067C70.7683 55.0658 70.9599 54.6034 70.9599 54.1213C70.9599 53.6391 70.7683 53.1767 70.4274 52.8358C70.0865 52.4949 69.6241 52.3033 69.1419 52.3033H44.9029C44.4207 52.3033 43.9583 52.4949 43.6174 52.8358C43.2765 53.1767 43.085 53.6391 43.085 54.1213C43.085 54.6034 43.2765 55.0658 43.6174 55.4067C43.9583 55.7477 44.4207 55.9392 44.9029 55.9392Z" fill="#7AC1F4"/>
<path d="M44.9029 86.238H69.1419C69.6241 86.238 70.0865 86.0465 70.4274 85.7056C70.7683 85.3646 70.9599 84.9022 70.9599 84.4201C70.9599 83.938 70.7683 83.4756 70.4274 83.1346C70.0865 82.7937 69.6241 82.6022 69.1419 82.6022H44.9029C44.4207 82.6022 43.9583 82.7937 43.6174 83.1346C43.2765 83.4756 43.085 83.938 43.085 84.4201C43.085 84.9022 43.2765 85.3646 43.6174 85.7056C43.9583 86.0465 44.4207 86.238 44.9029 86.238Z" fill="#7AC1F4"/>
<path d="M8.78668 20.2169C8.30453 20.2169 7.84214 20.4085 7.50121 20.7494C7.16028 21.0903 6.96875 21.5527 6.96875 22.0348V23.9437C6.96875 24.4258 7.16028 24.8882 7.50121 25.2291C7.84214 25.5701 8.30453 25.7616 8.78668 25.7616C9.26882 25.7616 9.73122 25.5701 10.0721 25.2291C10.4131 24.8882 10.6046 24.4258 10.6046 23.9437V22.0348C10.6046 21.5527 10.4131 21.0903 10.0721 20.7494C9.73122 20.4085 9.26882 20.2169 8.78668 20.2169Z" fill="#7AC1F4"/>
<path d="M8.78668 27.8798C8.30453 27.8798 7.84214 28.0713 7.50121 28.4122C7.16028 28.7531 6.96875 29.2155 6.96875 29.6977V47.271C6.96875 47.7532 7.16028 48.2155 7.50121 48.5565C7.84214 48.8974 8.30453 49.0889 8.78668 49.0889C9.26882 49.0889 9.73122 48.8974 10.0721 48.5565C10.4131 48.2155 10.6046 47.7532 10.6046 47.271V29.6977C10.6046 29.459 10.5576 29.2226 10.4662 29.002C10.3749 28.7814 10.241 28.581 10.0721 28.4122C9.90334 28.2434 9.70293 28.1095 9.48237 28.0181C9.26181 27.9268 9.02541 27.8798 8.78668 27.8798Z" fill="#7AC1F4"/>
<path d="M129.458 72.8156C128.242 72.5605 126.987 72.5491 125.766 72.7821C124.546 73.0151 123.383 73.4879 122.347 74.173L103.622 86.4701V18.255C103.622 12.2407 98.6793 7.46108 92.6647 7.46108H81.2008V1.81793C81.2008 1.33578 81.0093 0.873387 80.6684 0.532459C80.3275 0.191531 79.8651 0 79.3829 0C78.9008 0 78.4384 0.191531 78.0975 0.532459C77.7565 0.873387 77.565 1.33578 77.565 1.81793V7.46108H62.1126V1.81793C62.1126 1.33578 61.9211 0.873387 61.5801 0.532459C61.2392 0.191531 60.7768 0 60.2947 0C59.8125 0 59.3501 0.191531 59.0092 0.532459C58.6683 0.873387 58.4767 1.33578 58.4767 1.81793V7.46108H43.3273V1.81793C43.3273 1.33578 43.1358 0.873387 42.7949 0.532459C42.4539 0.191531 41.9915 0 41.5094 0C41.0272 0 40.5648 0.191531 40.2239 0.532459C39.883 0.873387 39.6915 1.33578 39.6915 1.81793V7.46108H24.2391V1.81793C24.2391 1.33578 24.0475 0.873387 23.7066 0.532459C23.3657 0.191531 22.9033 0 22.4211 0C21.939 0 21.4766 0.191531 21.1357 0.532459C20.7947 0.873387 20.6032 1.33578 20.6032 1.81793V7.46108H10.8579C9.43456 7.45092 8.02331 7.72271 6.70556 8.26077C5.3878 8.79882 4.18964 9.5925 3.1802 10.596C2.17076 11.5995 1.37003 12.7929 0.824198 14.1075C0.278369 15.422 -0.00174817 16.8317 8.20861e-06 18.255V127.634C8.20861e-06 133.648 4.84327 138.655 10.8579 138.655H92.6647C98.6793 138.655 103.622 133.648 103.622 127.634V109.101L132.735 89.9829C134.298 88.9557 135.522 87.488 136.252 85.7652C136.981 84.0424 137.183 82.1421 136.832 80.3045C136.482 78.4669 135.594 76.7745 134.281 75.4415C132.968 74.1085 131.29 73.1947 129.458 72.8156ZM79.2802 18.8456C79.916 18.8456 80.5375 19.0341 81.0662 19.3873C81.5949 19.7406 82.0069 20.2426 82.2502 20.8301C82.4935 21.4175 82.5572 22.0638 82.4331 22.6874C82.3091 23.311 82.0029 23.8838 81.5533 24.3334C81.1038 24.783 80.531 25.0892 79.9074 25.2132C79.2838 25.3372 78.6374 25.2736 78.05 25.0303C77.4626 24.787 76.9605 24.3749 76.6073 23.8463C76.254 23.3176 76.0655 22.6961 76.0655 22.0603C76.0664 21.2079 76.4054 20.3908 77.008 19.7881C77.6107 19.1854 78.4279 18.8464 79.2802 18.8456ZM60.3365 18.8456C60.9723 18.8456 61.5938 19.0342 62.1224 19.3875C62.651 19.7408 63.063 20.2428 63.3063 20.8303C63.5495 21.4177 63.6131 22.064 63.4891 22.6876C63.365 23.3112 63.0588 23.884 62.6092 24.3335C62.1596 24.7831 61.5868 25.0892 60.9632 25.2132C60.3396 25.3372 59.6933 25.2736 59.1059 25.0302C58.5185 24.7869 58.0164 24.3749 57.6632 23.8462C57.31 23.3176 57.1215 22.6961 57.1215 22.0603C57.1224 21.2079 57.4615 20.3908 58.0642 19.7881C58.6669 19.1854 59.4841 18.8464 60.3365 18.8456ZM41.3921 18.8456C42.0279 18.8457 42.6493 19.0344 43.1779 19.3878C43.7064 19.7411 44.1183 20.2433 44.3615 20.8307C44.6047 21.4181 44.6682 22.0644 44.5441 22.688C44.4199 23.3115 44.1137 23.8842 43.664 24.3337C43.2144 24.7832 42.6416 25.0893 42.0181 25.2133C41.3945 25.3372 40.7482 25.2735 40.1608 25.0302C39.5734 24.7868 39.0714 24.3748 38.7182 23.8462C38.365 23.3175 38.1765 22.696 38.1765 22.0603C38.1775 21.2078 38.5166 20.3906 39.1195 19.7879C39.7223 19.1852 40.5397 18.8463 41.3921 18.8456ZM22.4484 18.8456C23.0842 18.8456 23.7057 19.0342 24.2343 19.3875C24.7629 19.7408 25.1749 20.2428 25.4182 20.8303C25.6615 21.4177 25.7251 22.064 25.601 22.6876C25.4769 23.3112 25.1707 23.884 24.7211 24.3335C24.2715 24.7831 23.6987 25.0892 23.0751 25.2132C22.4516 25.3372 21.8052 25.2736 21.2178 25.0302C20.6304 24.7869 20.1284 24.3749 19.7752 23.8462C19.4219 23.3176 19.2334 22.6961 19.2334 22.0603C19.2344 21.2079 19.5734 20.3908 20.1761 19.7881C20.7789 19.1854 21.5961 18.8464 22.4484 18.8456ZM99.9861 127.634C99.9771 129.579 99.2048 131.442 97.8355 132.823C96.4663 134.205 94.6095 134.993 92.6647 135.019H10.8579C6.84754 135.019 3.63587 131.644 3.63587 127.634V18.255C3.6336 17.309 3.81932 16.3719 4.18226 15.4983C4.54519 14.6246 5.0781 13.8317 5.75002 13.1658C6.42195 12.4998 7.2195 11.974 8.09636 11.6188C8.97322 11.2636 9.9119 11.0863 10.8579 11.0969H20.6032V15.4563C17.8763 16.255 15.5842 18.9122 15.5842 22.0615C15.5842 22.9609 15.7614 23.8515 16.1056 24.6825C16.4498 25.5135 16.9543 26.2685 17.5902 26.9045C18.2262 27.5405 18.9813 28.045 19.8122 28.3892C20.6432 28.7334 21.5338 28.9105 22.4333 28.9105C23.3327 28.9105 24.2233 28.7334 25.0543 28.3892C25.8852 28.045 26.6403 27.5405 27.2763 26.9045C27.9123 26.2685 28.4168 25.5135 28.761 24.6825C29.1051 23.8515 29.2823 22.9609 29.2823 22.0615C29.3039 20.5545 28.8183 19.084 27.9037 17.8862C26.9891 16.6883 25.6985 15.8325 24.2391 15.4563V11.0969H39.6915V15.4563C38.227 15.8303 36.93 16.684 36.0074 17.8812C35.0848 19.0784 34.5897 20.5501 34.6013 22.0615C34.6013 23.8803 35.3238 25.6246 36.6099 26.9107C37.896 28.1968 39.6403 28.9193 41.4591 28.9193C43.2779 28.9193 45.0222 28.1968 46.3083 26.9107C47.5944 25.6246 48.3169 23.8803 48.3169 22.0615C48.2911 20.5742 47.7941 19.1335 46.8975 17.9465C46.0009 16.7596 44.7509 15.8877 43.3273 15.4563V11.0969H58.4767V15.4563C55.7498 16.255 53.465 18.9122 53.465 22.0615C53.465 23.8776 54.1864 25.6193 55.4706 26.9034C56.7548 28.1876 58.4965 28.909 60.3125 28.909C62.1286 28.909 63.8703 28.1876 65.1545 26.9034C66.4386 25.6193 67.1601 23.8776 67.1601 22.0615C67.1806 20.5541 66.6942 19.0836 65.7788 17.8858C64.8635 16.688 63.5724 15.8325 62.1126 15.4563V11.0969H77.565V15.4563C76.1011 15.8304 74.8048 16.6842 73.8832 17.8816C72.9617 19.0789 72.468 20.5506 72.4812 22.0615C72.4812 23.88 73.2036 25.6241 74.4895 26.9101C75.7754 28.196 77.5195 28.9184 79.3381 28.9184C81.1566 28.9184 82.9007 28.196 84.1867 26.9101C85.4726 25.6241 86.195 23.88 86.195 22.0615C86.195 18.9134 83.9277 16.2562 81.2008 15.4563V11.0969H92.6647C96.6741 11.0969 99.9861 14.2456 99.9861 18.255V88.8576L93.1577 93.3419C92.9479 93.4797 92.769 93.6595 92.6321 93.8699C92.4953 94.0803 92.4035 94.3168 92.3625 94.5644C92.3216 94.812 92.3324 95.0655 92.3942 95.3087C92.456 95.552 92.5675 95.7798 92.7217 95.9779C93.0024 96.3381 93.4084 96.5794 93.859 96.6539C94.3096 96.7284 94.7717 96.6306 95.1535 96.3799L122.185 78.6282L124.384 81.975L78.5855 112.053L76.3861 108.705L84.9909 103.056C85.1905 102.925 85.3623 102.756 85.4965 102.558C85.6307 102.361 85.7247 102.139 85.7732 101.905C85.8216 101.671 85.8236 101.43 85.7789 101.196C85.7342 100.961 85.6437 100.738 85.5127 100.538C85.3816 100.339 85.2126 100.167 85.0151 100.033C84.8177 99.8983 84.5957 99.8043 84.362 99.7559C84.1282 99.7074 83.8872 99.7055 83.6526 99.7502C83.4181 99.7949 83.1947 99.8854 82.9951 100.016L72.8787 106.659C72.8602 106.672 72.8432 106.687 72.8244 106.7C72.7784 106.733 72.7335 106.766 72.6893 106.803C72.6748 106.815 72.662 106.829 72.6484 106.842H44.9029C44.4207 106.842 43.9583 107.033 43.6174 107.374C43.2765 107.715 43.0849 108.177 43.0849 108.659C43.0849 109.142 43.2765 109.604 43.6174 109.945C43.9583 110.286 44.4207 110.477 44.9029 110.477H70.5993L69.3119 112.91C69.2558 112.905 69.1995 112.901 69.1419 112.901H44.9029C44.4207 112.901 43.9583 113.093 43.6174 113.434C43.2765 113.775 43.0849 114.237 43.0849 114.719C43.0849 115.201 43.2765 115.664 43.6174 116.005C43.9583 116.346 44.4207 116.537 44.9029 116.537H67.3922L65.2903 120.508C65.1437 120.785 65.0712 121.095 65.0798 121.408C65.0884 121.721 65.1778 122.027 65.3394 122.296C65.501 122.564 65.7292 122.786 66.002 122.941C66.2748 123.095 66.5828 123.176 66.8962 123.176C66.9122 123.176 66.9283 123.176 66.944 123.176L82.3077 122.774C82.3449 122.774 82.3816 122.766 82.4186 122.763C82.4555 122.76 82.4976 122.758 82.537 122.752C82.5852 122.745 82.6319 122.732 82.6785 122.722C82.7131 122.714 82.7479 122.708 82.7824 122.697C82.8618 122.674 82.9395 122.644 83.0148 122.61C83.0333 122.602 83.0506 122.59 83.0688 122.58C83.1276 122.551 83.1848 122.519 83.2403 122.484C83.2463 122.481 83.2527 122.478 83.2581 122.474L99.9861 111.489V127.634ZM78.9469 119.224L69.9582 119.459L74.037 111.752L78.9469 119.224ZM82.7812 118.438L82.6416 118.226L80.5812 115.092L126.38 85.0158L128.579 88.3623L82.7812 118.438ZM131.566 86.285L125.277 76.7139C126.052 76.388 126.888 76.2325 127.728 76.2578C128.569 76.2831 129.394 76.4886 130.147 76.8605C130.584 77.0707 130.989 77.3409 131.351 77.6631C131.964 78.1953 132.459 78.8492 132.805 79.5833C133.15 80.3173 133.34 81.1154 133.36 81.9266C133.38 82.7378 133.231 83.5443 132.922 84.2948C132.613 85.0452 132.152 85.723 131.566 86.285Z" fill="#7AC1F4"/>
</svg>
