<svg width="174" height="130" viewBox="0 0 174 130" fill="none" xmlns="http://www.w3.org/2000/svg">
<path d="M105.216 64.1213L96.0407 65.0043C95.0179 68.8282 93.4745 72.4939 91.4536 75.897L97.28 82.935C98.1814 84.0239 98.1108 85.6179 97.1172 86.6238L86.6683 97.2062C85.6655 98.2229 84.0531 98.3027 82.955 97.392L75.8985 91.5503C72.497 93.5636 68.8374 95.11 65.0228 96.1451L64.1382 105.275C63.9985 106.677 62.8083 107.738 61.4001 107.72H46.3948C44.9866 107.74 43.7964 106.677 43.6567 105.275L42.7737 96.1266C38.9498 95.1085 35.2841 93.5697 31.881 91.5533L24.8429 97.3874C23.7495 98.2935 22.1462 98.2198 21.1419 97.217L10.5579 86.6345C9.55511 85.6302 9.47987 84.0269 10.3844 82.9335L16.2277 75.8785C14.2129 72.477 12.6664 68.819 11.6298 65.0028L2.47404 64.1213C1.06428 63.9831 -0.00763745 62.7945 4.09923e-05 61.3801V46.3748C-0.00610177 44.9605 1.06581 43.7734 2.47404 43.6367L11.6329 42.7521C12.6526 38.9283 14.1944 35.2626 16.2139 31.8595L10.3829 24.8229C9.4768 23.7295 9.55204 22.1263 10.5548 21.1204L21.1404 10.5364C22.1447 9.53206 23.7464 9.45681 24.8414 10.3629L31.8964 16.2046C35.2979 14.1914 38.9575 12.6464 42.7737 11.6099L43.6567 2.46327C43.7949 1.05811 44.9835 -0.0107269 46.3948 2.28882e-05H61.4001C62.8129 -0.0107269 64 1.05811 64.1382 2.46327L65.0228 11.6206C68.8466 12.6388 72.5108 14.1791 75.9154 16.197L82.952 10.3659C84.0454 9.45988 85.6486 9.5336 86.653 10.5379L97.237 21.1204C98.2413 22.1247 98.3166 23.7265 97.4105 24.8214L91.5703 31.8764C93.5836 35.2795 95.13 38.939 96.1666 42.7552L105.219 43.6382C106.632 43.7749 107.712 44.9574 107.72 46.3748V61.3801C107.713 62.8006 106.632 63.9861 105.216 64.1213ZM102.216 48.8719L93.7003 48.0411C92.5086 47.9259 91.5273 47.0551 91.2708 45.885C90.2588 41.3424 88.4344 37.0225 85.8851 33.1295C85.2325 32.1221 85.3108 30.8075 86.0756 29.883L91.5764 23.2396L84.5368 16.1985L77.8919 21.7024C76.9566 22.4779 75.6221 22.5471 74.6101 21.8729C70.7401 19.3113 66.4264 17.4931 61.89 16.5118C60.7228 16.2691 59.8475 15.2971 59.7323 14.11L58.9 5.50394H48.8949L48.0626 14.11C47.9474 15.3001 47.0736 16.2768 45.9049 16.5241C41.3639 17.533 37.0425 19.3543 33.151 21.9005C32.1421 22.5501 30.8275 22.4718 29.903 21.704L23.2596 16.2L16.22 23.2412L21.7239 29.8846C22.4979 30.8214 22.567 32.1543 21.8929 33.1664C19.3329 37.0363 17.5146 41.3501 16.5318 45.885C16.2845 47.0536 15.3094 47.9274 14.1207 48.0426L5.50396 48.8749V58.88L14.1207 59.7123C15.3109 59.8275 16.2891 60.6998 16.5394 61.87C17.5484 66.411 19.3697 70.7324 21.919 74.6239C22.5686 75.6328 22.4902 76.9474 21.7239 77.8719L16.22 84.5153L23.2596 91.5549L29.903 86.051C30.8398 85.2754 32.1728 85.2063 33.1848 85.882C37.0547 88.442 41.3685 90.2603 45.9049 91.2416C47.069 91.475 47.9443 92.4425 48.0626 93.625L48.8949 102.216H58.9L59.7323 93.6265C59.8475 92.4394 60.7213 91.4658 61.89 91.2216C66.431 90.2158 70.7509 88.396 74.6439 85.8498C75.6528 85.2002 76.9674 85.28 77.8903 86.0464L84.5245 91.5426L91.4505 84.5245L85.9404 77.8703C85.1649 76.9336 85.0958 75.6006 85.77 74.5886C88.33 70.7186 90.1482 66.4049 91.1295 61.87C91.3891 60.6967 92.375 59.826 93.5697 59.7123L102.216 58.88V48.8719Z" fill="url(#paint0_linear)"/>
<path d="M53.8996 85.8422C36.2453 85.8437 21.9326 71.5326 21.9326 53.8798C21.9311 36.2255 36.2422 21.9144 53.8965 21.9129C71.5493 21.9129 85.8604 36.224 85.8604 53.8783C85.8404 71.5218 71.5431 85.8207 53.8996 85.8422ZM53.8996 27.4168C39.2844 27.4152 27.4365 39.2616 27.4365 53.8767C27.435 68.4904 39.2813 80.3382 53.8965 80.3382C68.5101 80.3382 80.3565 68.4919 80.3565 53.8783C80.3411 39.2723 68.5055 27.4352 53.8996 27.4168Z" fill="url(#paint1_linear)"/>
<path d="M171.298 88.935L165.96 91.1096C166.016 93.5314 165.792 95.9516 165.292 98.3212L170.043 101.499C171.221 102.286 171.608 103.839 170.94 105.086L166.026 114.252C165.354 115.502 163.846 116.038 162.538 115.492L157.182 113.251C155.491 114.988 153.599 116.518 151.549 117.811L152.688 123.444C152.968 124.829 152.154 126.2 150.804 126.618L140.952 129.66C139.589 130.082 138.13 129.391 137.592 128.069L135.416 122.733C132.996 122.789 130.577 122.565 128.208 122.066L124.984 126.897C124.198 128.077 122.644 128.465 121.395 127.796L112.229 122.881C110.979 122.212 110.443 120.702 110.989 119.394L113.23 114.039C111.495 112.347 109.964 110.455 108.671 108.405L103.038 109.544C101.645 109.827 100.267 109.002 99.8572 107.641L96.858 97.7084C96.448 96.3494 97.1391 94.9012 98.4551 94.3652L103.793 92.1907C103.735 89.7705 103.959 87.3517 104.458 84.9822L99.6284 81.7587C98.4475 80.9725 98.0589 79.4184 98.7285 78.1698L103.643 69.0033C104.314 67.7532 105.822 67.2173 107.13 67.764L112.487 70.0061C114.178 68.2692 116.07 66.7381 118.12 65.4451L116.98 59.8137C116.698 58.4208 117.522 57.0449 118.881 56.6333L128.814 53.6341C130.173 53.2225 131.623 53.9151 132.157 55.2312L134.332 60.5677C136.754 60.5109 139.172 60.7351 141.541 61.2342L144.765 56.4029C145.552 55.2235 147.106 54.835 148.354 55.5046L157.521 60.4188C158.771 61.0883 159.307 62.5979 158.76 63.9048L156.52 69.2613C158.255 70.9536 159.786 72.8441 161.079 74.8957L166.712 73.7547C168.103 73.4737 169.481 74.2984 169.891 75.6574L172.89 85.5888C173.302 86.9478 172.612 88.3975 171.298 88.935ZM165.35 79.6472L160.244 80.6807C159.052 80.9203 157.843 80.3521 157.271 79.2801C155.793 76.542 153.821 74.1018 151.452 72.0854C150.54 71.3099 150.234 70.0322 150.696 68.928L152.72 64.0906L147.958 61.5368L145.05 65.9012C144.385 66.8979 143.153 67.3494 142.001 67.0192C138.994 66.1776 135.858 65.8858 132.747 66.1607C131.551 66.2559 130.43 65.5664 129.977 64.4561L128.011 59.6294L122.876 61.1805L123.908 66.2882C124.149 67.4799 123.579 68.6885 122.507 69.2613C119.769 70.7371 117.329 72.7105 115.312 75.08C114.537 75.9922 113.261 76.2978 112.155 75.8356L107.318 73.8115L104.765 78.5737L109.128 81.4823C110.12 82.1473 110.57 83.3758 110.242 84.5245C109.4 87.5329 109.108 90.6673 109.383 93.7786C109.48 94.9749 108.79 96.096 107.679 96.549L102.852 98.5147L104.403 103.65L109.511 102.618C110.702 102.377 111.911 102.947 112.484 104.019C113.959 106.757 115.933 109.197 118.302 111.213C119.215 111.989 119.519 113.267 119.058 114.371L117.034 119.208L121.795 121.762L124.705 117.398C125.368 116.401 126.601 115.949 127.753 116.28C130.76 117.121 133.896 117.413 137.006 117.138C138.203 117.04 139.326 117.731 139.778 118.843L141.737 123.654L146.8 122.091L145.765 116.966C145.524 115.774 146.094 114.567 147.166 113.994C149.904 112.517 152.344 110.544 154.36 108.176C155.136 107.264 156.412 106.958 157.518 107.42L162.355 109.443L164.911 104.679L160.626 101.815C159.631 101.15 159.181 99.9183 159.51 98.7681C160.353 95.7612 160.643 92.6253 160.37 89.514C160.273 88.3177 160.962 87.1966 162.074 86.7436L166.899 84.7779L165.35 79.6472Z" fill="url(#paint2_linear)"/>
<path d="M141.525 113.67C131.019 116.843 119.736 112.152 114.576 102.468C109.416 92.7835 111.815 80.802 120.307 73.8515C128.798 66.9009 141.018 66.9163 149.49 73.8883C157.964 80.8619 160.332 92.848 155.148 102.52C152.277 107.907 147.372 111.923 141.525 113.67ZM151.628 86.5931C149.214 78.6014 141.492 73.4276 133.184 74.2354C124.876 75.0432 118.294 81.6067 117.466 89.9133C116.637 98.2198 121.791 105.955 129.776 108.389C137.761 110.822 146.353 107.277 150.298 99.9198C152.503 95.8334 152.981 91.0343 151.626 86.5931H151.628Z" fill="url(#paint3_linear)"/>
<defs>
<linearGradient id="paint0_linear" x1="53.8599" y1="-24.3012" x2="53.8599" y2="153.948" gradientUnits="userSpaceOnUse">
<stop offset="0.322" stop-color="#4C4C4C"/>
</linearGradient>
<linearGradient id="paint1_linear" x1="53.897" y1="-24.3011" x2="53.897" y2="153.948" gradientUnits="userSpaceOnUse">
<stop offset="0.322" stop-color="#4C4C4C"/>
</linearGradient>
<linearGradient id="paint2_linear" x1="134.876" y1="-24.3012" x2="134.876" y2="153.948" gradientUnits="userSpaceOnUse">
<stop offset="0.322" stop-color="#4C4C4C"/>
</linearGradient>
<linearGradient id="paint3_linear" x1="134.875" y1="-24.3012" x2="134.875" y2="153.948" gradientUnits="userSpaceOnUse">
<stop offset="0.322" stop-color="#4C4C4C"/>
</linearGradient>
</defs>
</svg>
