<svg width="155" height="95" viewBox="0 0 155 95" fill="none" xmlns="http://www.w3.org/2000/svg">
<path d="M112.359 52.4108C112.854 52.4108 113.329 52.2141 113.679 51.8639C114.029 51.5137 114.226 51.0387 114.226 50.5434V48.5826C114.226 48.0873 114.029 47.6123 113.679 47.2621C113.329 46.9118 112.854 46.7151 112.359 46.7151C111.863 46.7151 111.388 46.9118 111.038 47.2621C110.688 47.6123 110.491 48.0873 110.491 48.5826V50.5434C110.491 51.0387 110.688 51.5137 111.038 51.8639C111.388 52.2141 111.863 52.4108 112.359 52.4108Z" fill="#4C4C4C"/>
<path d="M112.359 70.463C112.854 70.463 113.329 70.2663 113.679 69.916C114.029 69.5658 114.226 69.0908 114.226 68.5955V56.4571C114.226 55.9618 114.029 55.4868 113.679 55.1366C113.329 54.7863 112.854 54.5896 112.359 54.5896C111.863 54.5896 111.388 54.7863 111.038 55.1366C110.688 55.4868 110.491 55.9618 110.491 56.4571V68.5955C110.491 69.0908 110.688 69.5658 111.038 69.916C111.388 70.2663 111.863 70.463 112.359 70.463Z" fill="#4C4C4C"/>
<path d="M154.586 40.2976L138.551 22.839C137.791 22.0158 136.87 21.359 135.844 20.9101C134.818 20.4612 133.71 20.2299 132.59 20.2308H103.871C103.631 20.2297 103.394 20.2771 103.173 20.3701C102.953 20.4631 102.753 20.5998 102.586 20.7719C102.42 20.9441 102.29 21.1481 102.204 21.3719C102.118 21.5956 102.079 21.8343 102.088 22.0737V51.6664H96.4855V11.1752C96.4843 9.70626 96.1938 8.25195 95.6306 6.89531C95.0673 5.53867 94.2423 4.30629 93.2026 3.26854C92.163 2.23079 90.9291 1.40801 89.5715 0.847188C88.2138 0.286367 86.759 -0.00150706 85.2901 5.93302e-06H11.1271C9.66173 -0.000172534 8.2108 0.289112 6.85759 0.851249C5.50438 1.41339 4.27554 2.2373 3.24164 3.27568C2.20774 4.31406 1.38915 5.54645 0.832875 6.90208C0.276598 8.25771 -0.00640778 9.70988 0.000110072 11.1752V81.8881C0.000522176 82.375 0.194125 82.8418 0.538415 83.1861C0.882705 83.5304 1.34954 83.724 1.83644 83.7244H14.218C14.6639 86.7542 16.1846 89.5226 18.5024 91.5242C20.8202 93.5259 23.7805 94.6272 26.843 94.6272C29.9054 94.6272 32.8657 93.5259 35.1835 91.5242C37.5013 89.5226 39.022 86.7542 39.4679 83.7244H115.687C116.136 86.7516 117.657 89.5167 119.974 91.5158C122.291 93.5148 125.25 94.6146 128.31 94.6146C131.37 94.6146 134.329 93.5148 136.646 91.5158C138.963 89.5167 140.485 86.7516 140.933 83.7244H146.985C148.041 83.725 149.088 83.5166 150.063 83.1112C151.039 82.7057 151.925 82.1112 152.67 81.3619C153.415 80.6126 154.004 79.7233 154.404 78.7453C154.804 77.7673 155.006 76.7198 154.999 75.6632V41.5603C155.013 41.0976 154.851 40.6469 154.545 40.2991L154.586 40.2976ZM77.4996 3.73492H85.2901C86.2687 3.73288 87.2381 3.92378 88.1428 4.29672C89.0476 4.66965 89.8699 5.2173 90.5628 5.90833C91.2558 6.59937 91.8056 7.42024 92.181 8.32397C92.5564 9.22771 92.75 10.1966 92.7506 11.1752V51.6664H77.4996V3.73492ZM58.8251 3.73492H73.7647V51.6664H58.8251V3.73492ZM40.1505 3.73492H55.0901V51.6664H40.1505V3.73492ZM21.4759 3.73492H36.4156V51.6664H21.4759V3.73492ZM3.73503 11.1752C3.728 10.2002 3.91405 9.2335 4.28245 8.33079C4.65085 7.42807 5.19431 6.60722 5.88149 5.91555C6.56867 5.22389 7.38597 4.6751 8.28627 4.30084C9.18657 3.92658 10.1521 3.73424 11.1271 3.73492H17.741V51.6664H3.73503V11.1752ZM26.8448 90.9141C25.0596 90.9141 23.3146 90.3848 21.8302 89.393C20.3459 88.4012 19.189 86.9915 18.5058 85.3422C17.8227 83.6929 17.6439 81.8781 17.9922 80.1272C18.3405 78.3763 19.2001 76.768 20.4624 75.5057C21.7248 74.2434 23.3331 73.3837 25.0839 73.0355C26.8348 72.6872 28.6497 72.8659 30.2989 73.5491C31.9482 74.2322 33.3579 75.3891 34.3497 76.8735C35.3415 78.3578 35.8709 80.1029 35.8709 81.8881C35.8682 84.2811 34.9163 86.5753 33.2242 88.2674C31.5321 89.9596 29.2379 90.9114 26.8448 90.9141ZM102.088 62.5599H84.9695C84.4742 62.5599 83.9992 62.7566 83.649 63.1068C83.2988 63.4571 83.102 63.932 83.102 64.4273C83.102 64.9226 83.2988 65.3976 83.649 65.7478C83.9992 66.098 84.4742 66.2948 84.9695 66.2948H102.088V79.9895H39.4679C39.0161 76.9653 37.4935 74.2039 35.1771 72.2079C32.8608 70.2119 29.9047 69.114 26.847 69.114C23.7893 69.114 20.8332 70.2119 18.5169 72.2079C16.2005 74.2039 14.6779 76.9653 14.2261 79.9895H3.73503V66.2948H72.5198C73.015 66.2948 73.49 66.098 73.8402 65.7478C74.1905 65.3976 74.3872 64.9226 74.3872 64.4273C74.3872 63.932 74.1905 63.4571 73.8402 63.1068C73.49 62.7566 73.015 62.5599 72.5198 62.5599H3.73503V55.4013H102.088V62.5599ZM128.855 23.9657H132.59C133.197 23.9778 133.796 24.1147 134.348 24.3679C134.9 24.6211 135.394 24.9852 135.8 25.4376L148.961 39.8391H128.855V23.9657ZM121.385 23.9657H125.12V39.8391H121.385V23.9657ZM105.823 23.9657H117.65V39.8391H105.823V23.9657ZM128.31 90.9141C126.525 90.9141 124.78 90.3848 123.295 89.393C121.811 88.4012 120.654 86.9915 119.971 85.3422C119.288 83.6929 119.109 81.8781 119.457 80.1272C119.806 78.3763 120.665 76.768 121.928 75.5057C123.19 74.2434 124.798 73.3837 126.549 73.0355C128.3 72.6872 130.115 72.8659 131.764 73.5491C133.413 74.2322 134.823 75.3891 135.815 76.8735C136.807 78.3578 137.336 80.1029 137.336 81.8881C137.333 84.2811 136.382 86.5753 134.689 88.2674C132.997 89.9596 130.703 90.9114 128.31 90.9141ZM151.264 57.8912H145.973V51.9776H151.264V57.8912ZM151.264 48.2427H145.482C144.632 48.2621 143.822 48.6064 143.219 49.2048C142.616 49.8032 142.265 50.61 142.238 51.4594V58.3649C142.263 59.2189 142.612 60.0314 143.215 60.6371C143.817 61.2429 144.628 61.5965 145.482 61.6261H151.264V75.6632C151.272 76.2294 151.166 76.7915 150.954 77.3166C150.742 77.8417 150.428 78.3195 150.03 78.7221C149.632 79.1246 149.157 79.444 148.635 79.6616C148.112 79.8792 147.551 79.9907 146.985 79.9895H140.933C140.485 76.9623 138.963 74.1971 136.646 72.1981C134.329 70.1991 131.37 69.0993 128.31 69.0993C125.25 69.0993 122.291 70.1991 119.974 72.1981C117.657 74.1971 116.136 76.9623 115.687 79.9895H105.823V43.574H151.264V48.2427Z" fill="#4C4C4C"/>
</svg>
