<svg width="179" height="116" viewBox="0 0 179 116" fill="none" xmlns="http://www.w3.org/2000/svg">
<path d="M154.271 1.56507C154.034 1.06023 153.608 0.669093 153.084 0.476522C152.561 0.283951 151.983 0.305484 151.476 0.536452L115.559 16.88C114.931 17.1364 114.362 17.5179 113.887 18.0012C113.412 18.4845 113.04 19.0595 112.794 19.6911C112.548 20.3228 112.434 20.9979 112.457 21.6753C112.481 22.3527 112.642 23.0183 112.931 23.6314L114.053 26.0098L113.439 26.271C109.796 27.0296 107.262 26.923 103.502 25.8662L94.1291 23.2318C91.4025 22.4631 88.5104 22.5098 85.8101 23.3663L76.7639 26.2276C74.9362 26.8063 73.2413 27.7412 71.7769 28.9785C69.2014 28.1981 66.4946 27.9473 63.8197 28.2415L64.7279 26.5118C65.316 25.3874 65.4547 24.0815 65.116 22.8586C64.7773 21.6357 63.9864 20.5873 62.9037 19.9256C62.8888 19.9168 62.8737 19.9076 62.8585 19.8992L30.1713 1.10124C29.924 0.959009 29.6504 0.868236 29.3671 0.834368C29.0837 0.800499 28.7965 0.824234 28.5225 0.904149C28.2486 0.984065 27.9936 1.11851 27.7729 1.29942C27.5523 1.48033 27.3704 1.70396 27.2383 1.9569L0.240711 53.6453C-0.0144841 54.1338 -0.0691945 54.7026 0.0881993 55.2308C0.245593 55.759 0.602693 56.205 1.08366 56.4742L33.6236 74.683C34.3683 75.1055 35.2097 75.328 36.066 75.329C36.5474 75.3284 37.0262 75.2586 37.4878 75.1217C38.1295 74.9348 38.7268 74.6198 39.2435 74.1959C39.7603 73.772 40.1858 73.2478 40.4946 72.655L40.795 72.0832L43.9758 75.2852L39.2457 81.8508C38.0615 83.4949 37.5787 85.5419 37.9037 87.5418C38.2287 89.5417 39.3347 91.3307 40.9786 92.5151L41.7297 93.0563C43.0269 93.9926 44.5865 94.4956 46.1863 94.4936C46.6593 94.4929 47.1312 94.4486 47.5961 94.3613C47.6043 94.4199 47.6064 94.4785 47.6159 94.5378C47.7741 95.5289 48.1273 96.4789 48.6551 97.3326C49.1829 98.1864 49.8749 98.9269 50.6908 99.5114L51.442 100.053C52.7388 100.989 54.2981 101.493 55.8978 101.491C56.3708 101.49 56.8428 101.446 57.3077 101.359C57.3158 101.417 57.3179 101.476 57.3274 101.535C57.4856 102.526 57.8388 103.476 58.3667 104.33C58.8945 105.184 59.5864 105.924 60.4024 106.509L61.1535 107.05C62.4503 107.986 64.0095 108.49 65.609 108.488C66.0828 108.488 66.5554 108.443 67.021 108.355C67.16 109.379 67.5058 110.363 68.0374 111.248C68.5689 112.134 69.2751 112.902 70.1128 113.505L70.864 114.047C72.5086 115.229 74.5552 115.711 76.5546 115.386C78.554 115.061 80.3428 113.956 81.5283 112.314L83.7027 109.296L87.1864 112.08C88.3978 113.117 89.8717 113.801 91.4463 114.055C93.0209 114.31 94.6351 114.125 96.1116 113.522C97.588 112.918 98.8695 111.919 99.8152 110.635C100.761 109.351 101.334 107.83 101.472 106.241C102.718 106.672 104.045 106.812 105.353 106.653C106.662 106.493 107.916 106.037 109.022 105.319C110.127 104.602 111.055 103.641 111.733 102.512C112.412 101.382 112.823 100.112 112.937 98.7987C114.159 99.2209 115.46 99.3644 116.745 99.2186C118.03 99.0728 119.266 98.6415 120.362 97.9563C121.459 97.2711 122.388 96.3493 123.082 95.2584C123.777 94.1676 124.218 92.9352 124.374 91.6517C125.467 92.1354 126.648 92.3858 127.843 92.3866C128.062 92.3866 128.283 92.3785 128.504 92.3619C129.645 92.2784 130.759 91.9699 131.78 91.4542C132.802 90.9384 133.712 90.2257 134.457 89.3569L134.565 89.2312C135.331 88.35 135.905 87.3197 136.252 86.2053C136.598 85.091 136.71 83.9168 136.58 82.757C136.317 80.5689 135.235 78.5615 133.553 77.138L131.44 75.3145C132.976 74.2489 134.365 72.9857 135.57 71.5576C136.012 72.2866 136.635 72.8894 137.377 73.3081C138.12 73.7267 138.958 73.947 139.81 73.9477C140.498 73.9469 141.178 73.8048 141.809 73.5301L141.865 73.505L177.778 56.6945C178.157 56.5167 178.475 56.2308 178.692 55.8728C178.909 55.5148 179.016 55.1007 178.998 54.6824C178.982 54.3867 178.906 54.0973 178.776 53.8313L154.271 1.56507ZM36.9996 70.1975C36.9195 70.3502 36.8095 70.4853 36.6763 70.5948C36.543 70.7043 36.3892 70.7861 36.2239 70.8351C36.0585 70.8842 35.885 70.8997 35.7136 70.8806C35.5422 70.8616 35.3764 70.8084 35.2258 70.7242L4.94787 53.7805L29.9705 5.87406L60.2573 23.2914C60.5414 23.455 60.7511 23.7223 60.8425 24.0371C60.9339 24.3519 60.8999 24.6899 60.7476 24.9802L36.9996 70.1975ZM48.9573 88.8461C48.4288 89.5777 47.6318 90.0698 46.7411 90.2145C45.8503 90.3592 44.9385 90.1448 44.2056 89.6181L43.4545 89.077C43.0917 88.8157 42.784 88.4856 42.5488 88.1054C42.3137 87.7252 42.1558 87.3023 42.0841 86.8611C42.0124 86.4198 42.0283 85.9688 42.131 85.5337C42.2337 85.0986 42.4211 84.688 42.6825 84.3253L52.2514 71.0433C52.7796 70.3114 53.5766 69.819 54.4675 69.6743C55.3584 69.5296 56.2703 69.7443 57.003 70.2713L57.7542 70.8124C58.117 71.0736 58.4247 71.4037 58.6598 71.7839C58.895 72.1641 59.0529 72.5869 59.1246 73.0281C59.1963 73.4693 59.1803 73.9204 59.0777 74.3554C58.975 74.7905 58.7876 75.2011 58.5262 75.5637L48.9573 88.8461ZM58.6716 95.8428C58.1426 96.5744 57.3451 97.0666 56.4539 97.2113C55.5627 97.356 54.6505 97.1415 53.9172 96.6148L53.166 96.0736C52.4336 95.5459 51.9408 94.7489 51.7961 93.8579C51.6513 92.9668 51.8664 92.0548 52.394 91.3223L59.4803 81.4862C60.0088 80.7547 60.8058 80.2626 61.6965 80.1178C62.5873 79.973 63.4991 80.1874 64.232 80.7139L64.9832 81.255C65.7152 81.783 66.2078 82.5798 66.3531 83.4706C66.4983 84.3614 66.2843 85.2734 65.758 86.0066L58.6716 95.8428ZM68.3789 102.839C67.8506 103.571 67.0536 104.063 66.1628 104.208C65.272 104.353 64.3602 104.138 63.6273 103.612L62.8761 103.07C62.1437 102.543 61.651 101.746 61.5062 100.855C61.3614 99.9635 61.5765 99.0515 62.1041 98.319L67.1594 91.3019C67.6879 90.5705 68.4849 90.0785 69.3757 89.9338C70.2664 89.7892 71.1782 90.0037 71.911 90.5302L72.6622 91.0714C73.3938 91.5997 73.886 92.3968 74.0307 93.2876C74.1754 94.1784 73.9609 95.0902 73.4342 95.823L68.3789 102.839ZM81.1142 105.639L78.0905 109.836C77.5621 110.568 76.7651 111.06 75.8744 111.205C74.9836 111.35 74.0717 111.135 73.3389 110.608L72.5877 110.067C71.8561 109.539 71.364 108.742 71.2193 107.851C71.0746 106.96 71.289 106.049 71.8157 105.316L74.8398 101.119C75.368 100.387 76.165 99.8947 77.0557 99.7499C77.9464 99.6051 78.8583 99.8196 79.5911 100.346L80.3422 100.887C81.074 101.416 81.5664 102.213 81.7114 103.103C81.8564 103.994 81.6421 104.906 81.1156 105.639H81.1142ZM128.031 72.3426L128.269 72.5791L121.94 67.1155C121.164 66.4451 120.411 65.7491 119.681 65.0276L107.254 52.7392C107.066 52.5538 106.827 52.4282 106.568 52.378C106.308 52.3279 106.04 52.3554 105.796 52.4572C105.552 52.559 105.344 52.7305 105.197 52.9502C105.051 53.1699 104.972 53.4281 104.972 53.6923C105.066 55.4297 105.756 57.0816 106.925 58.3705L116.761 68.0944C117.487 68.8128 118.237 69.5059 119.01 70.1735L130.921 80.4615C131.36 80.8384 131.717 81.3015 131.97 81.8221C132.223 82.3426 132.366 82.9095 132.391 83.4877C132.425 84.6178 132.025 85.7181 131.273 86.5626L131.252 86.5873C130.869 87.0351 130.401 87.4026 129.875 87.6687C129.35 87.9348 128.776 88.0941 128.189 88.1377C127.606 88.1835 127.021 88.1127 126.466 87.9294C125.911 87.7461 125.399 87.454 124.958 87.0702L112.21 76.0568C111.791 75.6834 111.243 75.4865 110.682 75.5073C110.121 75.5281 109.589 75.7649 109.199 76.1684C109.007 76.3773 108.859 76.6226 108.764 76.8898C108.669 77.1569 108.628 77.4405 108.645 77.7236C108.661 78.0067 108.734 78.2837 108.86 78.538C108.985 78.7923 109.16 79.0188 109.375 79.2041L109.4 79.2249L118.683 87.246C119.574 88.0188 120.12 89.1137 120.204 90.2897C120.287 91.4657 119.899 92.6266 119.126 93.5169C118.353 94.4072 117.259 94.9541 116.083 95.0372C114.907 95.1202 113.746 94.7327 112.855 93.9599L103.562 85.9318C103.352 85.7445 103.108 85.6007 102.842 85.509C102.576 85.4173 102.295 85.3794 102.014 85.3975C101.734 85.4156 101.46 85.4894 101.208 85.6146C100.956 85.7398 100.732 85.9138 100.548 86.1266C100.364 86.3393 100.225 86.5866 100.137 86.8538C100.05 87.1211 100.017 87.403 100.04 87.6833C100.063 87.9635 100.141 88.2363 100.271 88.4859C100.4 88.7355 100.578 88.9568 100.794 89.137L107.203 94.6733C107.649 95.0538 108.015 95.5186 108.28 96.0411C108.546 96.5636 108.705 97.1334 108.75 97.7177C108.794 98.3021 108.722 98.8894 108.539 99.446C108.356 100.003 108.064 100.517 107.681 100.961C107.298 101.404 106.831 101.768 106.307 102.03C105.783 102.292 105.212 102.448 104.627 102.489C104.043 102.53 103.456 102.455 102.9 102.269C102.345 102.082 101.832 101.787 101.39 101.401L95.0486 95.9236C94.6292 95.5502 94.0817 95.3533 93.5205 95.3741C92.9593 95.3949 92.4279 95.6317 92.0372 96.0352C91.8454 96.2441 91.6976 96.4894 91.6024 96.7566C91.5072 97.0237 91.4666 97.3073 91.4831 97.5904C91.4995 97.8735 91.5727 98.1504 91.6982 98.4048C91.8237 98.6591 91.999 98.8856 92.2137 99.0709L95.7401 102.117C96.6322 102.889 97.1812 103.983 97.2664 105.159C97.3517 106.336 96.9661 107.498 96.1946 108.39C95.4231 109.282 94.3288 109.831 93.1525 109.916C91.9762 110.001 90.8142 109.616 89.9221 108.844L85.7568 105.513C86.1297 104.03 86.0491 102.469 85.5256 101.032C85.002 99.5947 84.0595 98.3476 82.8199 97.4517L82.0687 96.9106C80.9137 96.0795 79.5482 95.5902 78.1283 95.4986C78.4527 94.0394 78.3425 92.5171 77.8113 91.1197C77.2802 89.7224 76.3513 88.5113 75.1395 87.636L74.3883 87.0949C73.2333 86.2638 71.8678 85.7745 70.4478 85.6829C70.7723 84.2238 70.6621 82.7016 70.131 81.3043C69.5999 79.9071 68.6711 78.696 67.4594 77.8207L66.7079 77.2796C65.6296 76.5027 64.366 76.0229 63.0438 75.8884C63.5323 74.3544 63.5232 72.7052 63.0179 71.1767C62.5126 69.6481 61.537 68.3184 60.2305 67.3778L59.4793 66.8366C57.8345 65.6545 55.788 65.1731 53.7887 65.4979C51.7894 65.8228 50.0006 66.9274 48.8147 68.5695L46.4849 71.8022L42.8593 68.1526L61.3399 32.9649C63.7428 32.3264 66.2522 32.1947 68.7086 32.5783C68.3429 33.1811 68.0209 33.8094 67.7453 34.4584L60.2862 54.8677C60.123 55.3659 60.1504 55.9069 60.363 56.3861C60.5756 56.8653 60.9584 57.2486 61.4373 57.4619L62.0311 57.7266C64.1928 58.7158 66.5706 59.139 68.9408 58.9566C71.3111 58.7742 73.5961 57.9921 75.5811 56.6839C77.296 55.5513 78.736 54.0496 79.7956 52.2886C80.8552 50.5277 81.5077 48.552 81.7051 46.5064V46.5018C81.7386 46.1334 81.8061 45.7688 81.9067 45.4128C82.2244 44.3076 82.9989 42.2712 84.533 41.6005C84.9337 41.4284 85.3817 41.4007 85.8006 41.5221L89.2493 42.495C90.7288 42.9122 92.0783 43.698 93.1714 44.7788L98.4356 49.9834C99.6862 51.2188 100.911 51.3438 101.759 50.6798C101.997 50.4949 102.193 50.2613 102.334 49.9945C102.474 49.7278 102.556 49.4341 102.574 49.133C102.592 48.832 102.546 48.5306 102.438 48.249C102.33 47.9674 102.163 47.712 101.949 47.5L96.1517 41.7689C94.5472 40.1843 92.5678 39.0314 90.3979 38.4175L86.1581 37.2216C85.9689 37.1653 85.7721 37.1384 85.5746 37.1418C82.8118 37.1531 80.4527 38.7112 78.932 41.5285C78.3435 42.6372 77.9059 43.8196 77.6309 45.0443C77.5814 45.2696 77.546 45.4979 77.525 45.7277L77.4897 46.1011C77.3516 47.5207 76.8978 48.8914 76.1615 50.1129C75.4252 51.3345 74.4251 52.3759 73.2344 53.161C72.0186 53.9479 70.6447 54.4578 69.2099 54.6544C67.7751 54.851 66.3146 54.7296 64.932 54.2987L71.6568 36.0888C72.236 34.7146 73.107 33.4827 74.2095 32.4785C75.312 31.4743 76.6196 30.7217 78.0418 30.2729L87.0879 27.4112C89.0015 26.8045 91.0508 26.7713 92.9829 27.3159L102.356 29.9506C106.881 31.2214 110.065 31.3337 114.527 30.3771L115.861 29.85L133.487 67.2239C132.145 69.3754 130.265 71.1396 128.032 72.3426H128.031ZM141.393 69.0474C140.88 69.288 140.292 69.3149 139.758 69.1223C139.225 68.9299 138.789 68.5339 138.547 68.0209L117.47 23.3292C117.308 22.9853 117.23 22.6077 117.242 22.2277C117.254 21.8476 117.357 21.4759 117.541 21.1431C117.806 20.6803 118.214 20.3155 118.703 20.1029L151.32 5.2595L174.057 53.7568L141.393 69.0474Z" fill="#4C4C4C"/>
</svg>
