<svg width="127" height="127" viewBox="0 0 127 127" fill="none" xmlns="http://www.w3.org/2000/svg">
<path d="M126.264 51.3157L105.833 33.7096V29.6351C105.83 26.8292 104.714 24.1392 102.73 22.1552C100.746 20.1711 98.0559 19.0551 95.25 19.052H88.8243L69.206 2.14698C67.6301 0.765397 65.6063 0.00253651 63.5105 6.31412e-06C61.4147 -0.00252388 59.3891 0.755448 57.8099 2.13322L38.1757 19.052H23.2833C20.4774 19.0551 17.7873 20.1711 15.8033 22.1552C13.8192 24.1392 12.7032 26.8292 12.7 29.6351V38.1016C12.7002 38.4949 12.81 38.8803 13.0171 39.2145C13.2243 39.5488 13.5205 39.8187 13.8726 39.9939L0.735014 51.3144C0.504071 51.5128 0.318804 51.7589 0.191931 52.0357C0.0650581 52.3125 -0.000416306 52.6135 1.99171e-06 52.918V124.883H0.00529378C0.00297502 125.161 0.055965 125.437 0.161185 125.695C0.266404 125.952 0.421754 126.186 0.618207 126.383C0.814659 126.58 1.0483 126.736 1.30554 126.842C1.56278 126.948 1.8385 127.002 2.11667 127H124.883C125.161 127.002 125.437 126.948 125.694 126.842C125.952 126.736 126.185 126.58 126.382 126.383C126.578 126.186 126.734 125.952 126.839 125.695C126.944 125.437 126.997 125.161 126.995 124.883H127V52.918C127 52.6136 126.934 52.3129 126.807 52.0363C126.68 51.7597 126.495 51.5139 126.264 51.3157ZM105.833 55.0346H119.773L105.833 68.9742V55.0346ZM122.767 58.0281V120.265L89.3358 91.4583L122.767 58.0281ZM119.184 50.8014H105.833V39.2967L119.184 50.8014ZM95.25 23.2852C96.9273 23.3072 98.5297 23.9833 99.7158 25.1694C100.902 26.3555 101.578 27.9578 101.6 29.6351V73.2075L86.12 88.6871L69.206 74.1123C67.6301 72.7307 65.6063 71.9679 63.5105 71.9653C61.4147 71.9628 59.3891 72.7208 57.8099 74.0986L40.88 88.6871L25.4 73.2075V40.2182H86.7833C87.3447 40.2182 87.8831 39.9952 88.28 39.5983C88.677 39.2013 88.9 38.663 88.9 38.1016V29.4808C88.9 26.0646 91.7488 23.2852 95.25 23.2852ZM21.1667 40.2182V50.8014H7.81553L20.0972 40.2182H21.1667ZM7.22683 55.0346H21.1667V68.9742L7.22683 55.0346ZM37.664 91.4581L4.23334 120.265V58.0281L37.664 91.4581ZM60.5896 5.32615C61.3984 4.61936 62.4368 4.23101 63.511 4.23359C64.5851 4.23617 65.6216 4.6295 66.4271 5.34017L82.3383 19.052H44.6617L60.5896 5.32615ZM16.9333 29.6351C16.9353 27.9516 17.6049 26.3376 18.7954 25.1472C19.9858 23.9568 21.5998 23.2872 23.2833 23.2852H86.7415C85.3942 25.0696 84.6657 27.2449 84.6667 29.4808V35.985H16.9333V29.6351ZM7.81553 122.767L60.5896 77.2915C61.3985 76.5848 62.4368 76.1965 63.511 76.1991C64.5851 76.2017 65.6216 76.5949 66.4271 77.3055L119.184 122.767H7.81553Z" fill="#7AC1F4"/>
<path d="M54.9902 52.8076C54.9902 53.3864 55.2125 53.9414 55.6081 54.3506C56.0036 54.7598 56.5402 54.9897 57.0996 54.9897H90.8499C91.4094 54.9897 91.9459 54.7598 92.3415 54.3506C92.7371 53.9414 92.9593 53.3864 92.9593 52.8076C92.9593 52.2289 92.7371 51.6738 92.3415 51.2646C91.9459 50.8554 91.4094 50.6255 90.8499 50.6255H57.0996C56.5402 50.6255 56.0036 50.8554 55.6081 51.2646C55.2125 51.6738 54.9902 52.2289 54.9902 52.8076Z" fill="#7AC1F4"/>
<path d="M78.1994 59.354H36.1438C35.5861 59.354 35.0513 59.5839 34.6569 59.9931C34.2626 60.4024 34.041 60.9574 34.041 61.5361C34.041 62.1149 34.2626 62.6699 34.6569 63.0791C35.0513 63.4884 35.5861 63.7183 36.1438 63.7183H78.1994C78.7571 63.7183 79.2919 63.4884 79.6863 63.0791C80.0806 62.6699 80.3022 62.1149 80.3022 61.5361C80.3022 60.9574 80.0806 60.4024 79.6863 59.9931C79.2919 59.5839 78.7571 59.354 78.1994 59.354Z" fill="#7AC1F4"/>
<path d="M36.114 54.9897H48.5522C49.102 54.9897 49.6293 54.7598 50.018 54.3506C50.4068 53.9414 50.6252 53.3864 50.6252 52.8076C50.6252 52.2289 50.4068 51.6738 50.018 51.2646C49.6293 50.8554 49.102 50.6255 48.5522 50.6255H36.114C35.5642 50.6255 35.037 50.8554 34.6482 51.2646C34.2594 51.6738 34.041 52.2289 34.041 52.8076C34.041 53.3864 34.2594 53.9414 34.6482 54.3506C35.037 54.7598 35.5642 54.9897 36.114 54.9897Z" fill="#7AC1F4"/>
</svg>
