<svg width="145" height="149" viewBox="0 0 145 149" fill="none" xmlns="http://www.w3.org/2000/svg">
<path d="M0 2.4628V105.9C0 106.553 0.259472 107.18 0.721336 107.642C1.1832 108.104 1.80962 108.363 2.4628 108.363H62.8013C62.8012 108.698 62.8694 109.029 63.0017 109.337C63.1341 109.645 63.3277 109.922 63.5709 110.152L70.8996 117.083L68.0138 126.75C67.9179 127.071 67.8887 127.409 67.9278 127.742C67.967 128.075 68.0737 128.396 68.2415 128.687C68.4093 128.977 68.6345 129.23 68.9035 129.43C69.1725 129.63 69.4796 129.773 69.8058 129.851L79.6222 132.177L81.948 141.993C82.0253 142.319 82.1685 142.626 82.3687 142.895C82.5689 143.164 82.8219 143.39 83.1122 143.557C83.4025 143.725 83.7241 143.832 84.0571 143.871C84.3902 143.91 84.7277 143.881 85.049 143.785L94.7155 140.899L101.648 148.23C101.878 148.473 102.156 148.667 102.463 148.799C102.771 148.932 103.103 149 103.437 149C103.772 149 104.104 148.932 104.411 148.799C104.719 148.667 104.997 148.473 105.227 148.23L112.158 140.901L121.824 143.787C122.146 143.883 122.483 143.912 122.816 143.873C123.149 143.834 123.471 143.727 123.761 143.559C124.051 143.391 124.304 143.166 124.504 142.897C124.705 142.628 124.848 142.321 124.925 141.995L127.251 132.178L137.067 129.852C137.394 129.775 137.701 129.632 137.97 129.432C138.239 129.232 138.464 128.979 138.632 128.688C138.8 128.398 138.906 128.076 138.945 127.743C138.984 127.41 138.955 127.073 138.859 126.752L135.974 117.085L143.304 110.152C143.547 109.922 143.741 109.645 143.874 109.337C144.006 109.029 144.074 108.698 144.074 108.363C144.074 108.028 144.006 107.697 143.874 107.389C143.741 107.081 143.547 106.804 143.304 106.574L135.975 99.6426L138.861 89.9761C138.957 89.6548 138.986 89.3173 138.947 88.9843C138.908 88.6513 138.801 88.3298 138.633 88.0395C138.466 87.7492 138.24 87.4962 137.971 87.2961C137.702 87.0959 137.395 86.9528 137.069 86.8755L127.253 84.5493L124.925 74.7326C124.848 74.4063 124.705 74.0993 124.505 73.8303C124.305 73.5612 124.052 73.3359 123.761 73.1682C123.471 73.0004 123.149 72.8937 122.816 72.8545C122.483 72.8154 122.146 72.8447 121.824 72.9406L113.289 75.4884V2.4628C113.289 1.80962 113.029 1.1832 112.567 0.721336C112.105 0.259472 111.479 0 110.826 0H2.4628C1.80962 0 1.1832 0.259472 0.721336 0.721336C0.259472 1.1832 0 1.80962 0 2.4628ZM4.92559 103.437V24.628H39.4047V61.5699C39.4048 62.0212 39.5288 62.4639 39.7633 62.8495C39.9978 63.2351 40.3337 63.5489 40.7344 63.7565C41.1352 63.9642 41.5852 64.0577 42.0355 64.027C42.4858 63.9962 42.9189 63.8423 43.2877 63.582L56.6443 54.1535L70.001 63.582C70.3697 63.8423 70.8029 63.9962 71.2532 64.027C71.7034 64.0577 72.1535 63.9642 72.5542 63.7565C72.9549 63.5489 73.2909 63.2351 73.5254 62.8495C73.7599 62.4639 73.8839 62.0212 73.8839 61.5699V24.628H108.363V71.8136L105.227 68.4965C104.997 68.2532 104.719 68.0593 104.411 67.9269C104.104 67.7944 103.772 67.7261 103.437 67.7261C103.103 67.7261 102.771 67.7944 102.463 67.9269C102.156 68.0593 101.878 68.2532 101.648 68.4965L94.717 75.8252L85.0505 72.9394C84.7292 72.8435 84.3917 72.8143 84.0587 72.8534C83.7257 72.8926 83.4042 72.9993 83.1139 73.1671C82.8236 73.3348 82.5707 73.5601 82.3705 73.8291C82.1703 74.0981 82.0272 74.4051 81.9499 74.7314L79.6238 84.5478L69.8071 86.8751C69.4808 86.9525 69.1737 87.0956 68.9047 87.2958C68.6357 87.496 68.4104 87.749 68.2426 88.0393C68.0748 88.3297 67.9681 88.6512 67.9289 88.9842C67.8898 89.3173 67.9191 89.6548 68.0151 89.9761L70.9005 99.6426L66.888 103.437H4.92559ZM44.3303 4.92559H68.9583V56.817L58.0644 49.1269C57.6489 48.8337 57.1529 48.6763 56.6443 48.6763C56.1358 48.6763 55.6397 48.8337 55.2242 49.1269L44.3303 56.817V4.92559ZM122.81 87.1627C122.915 87.607 123.142 88.0132 123.464 88.3361C123.787 88.6589 124.194 88.8857 124.638 88.991L133.394 91.0662L130.821 99.686C130.691 100.123 130.684 100.587 130.802 101.027C130.92 101.468 131.158 101.866 131.489 102.18L138.027 108.363L131.489 114.546C131.158 114.859 130.92 115.258 130.802 115.698C130.684 116.139 130.691 116.603 130.821 117.04L133.394 125.66L124.638 127.734C124.194 127.84 123.787 128.067 123.464 128.389C123.142 128.712 122.915 129.119 122.81 129.563L120.734 138.319L112.115 135.746C111.678 135.616 111.214 135.609 110.773 135.727C110.333 135.845 109.934 136.083 109.621 136.414L103.437 142.952L97.2543 136.414C96.9411 136.083 96.5423 135.845 96.102 135.728C95.6618 135.61 95.1974 135.616 94.7607 135.747L86.1409 138.32L84.066 129.563C83.9607 129.119 83.734 128.713 83.4111 128.39C83.0882 128.067 82.682 127.84 82.2377 127.735L73.4812 125.66L76.0546 117.04C76.1849 116.603 76.1915 116.139 76.0736 115.699C75.9557 115.259 75.7179 114.86 75.3868 114.547L68.8484 108.363L75.3862 102.18C75.7173 101.867 75.9551 101.468 76.073 101.028C76.1908 100.587 76.1843 100.123 76.0539 99.6863L73.4806 91.0665L82.2371 88.9916C82.6814 88.8863 83.0876 88.6595 83.4105 88.3367C83.7333 88.0138 83.9601 87.6076 84.0654 87.1633L86.1406 78.4068L94.7604 80.9801C95.1972 81.1103 95.6614 81.1168 96.1016 80.9989C96.5418 80.881 96.9407 80.6434 97.254 80.3124L103.437 73.774L109.621 80.3118C109.934 80.6429 110.333 80.8806 110.773 80.9985C111.213 81.1164 111.677 81.1098 112.114 80.9795L120.734 78.4062L122.81 87.1627ZM108.363 19.7024H73.8839V4.92559H108.363V19.7024ZM39.4047 4.92559V19.7024H4.92559V4.92559H39.4047Z" fill="#4C4C4C"/>
<path d="M12.3134 81.2723C11.6602 81.2723 11.0338 81.5318 10.5719 81.9937C10.1101 82.4555 9.85059 83.082 9.85059 83.7351V88.6607C9.85059 89.3139 10.1101 89.9403 10.5719 90.4022C11.0338 90.8641 11.6602 91.1235 12.3134 91.1235C12.9666 91.1235 13.593 90.8641 14.0548 90.4022C14.5167 89.9403 14.7762 89.3139 14.7762 88.6607V83.7351C14.7762 83.082 14.5167 82.4555 14.0548 81.9937C13.593 81.5318 12.9666 81.2723 12.3134 81.2723Z" fill="#4C4C4C"/>
<path d="M22.1659 81.2723C21.5127 81.2723 20.8863 81.5318 20.4245 81.9937C19.9626 82.4555 19.7031 83.082 19.7031 83.7351V88.6607C19.7031 89.3139 19.9626 89.9403 20.4245 90.4022C20.8863 90.8641 21.5127 91.1235 22.1659 91.1235C22.8191 91.1235 23.4455 90.8641 23.9074 90.4022C24.3692 89.9403 24.6287 89.3139 24.6287 88.6607V83.7351C24.6287 83.082 24.3692 82.4555 23.9074 81.9937C23.4455 81.5318 22.8191 81.2723 22.1659 81.2723Z" fill="#4C4C4C"/>
<path d="M32.0155 81.2723C31.3624 81.2723 30.7359 81.5318 30.2741 81.9937C29.8122 82.4555 29.5527 83.082 29.5527 83.7351V88.6607C29.5527 89.3139 29.8122 89.9403 30.2741 90.4022C30.7359 90.8641 31.3624 91.1235 32.0155 91.1235C32.6687 91.1235 33.2951 90.8641 33.757 90.4022C34.2189 89.9403 34.4783 89.3139 34.4783 88.6607V83.7351C34.4783 83.082 34.2189 82.4555 33.757 81.9937C33.2951 81.5318 32.6687 81.2723 32.0155 81.2723Z" fill="#4C4C4C"/>
<path d="M41.8671 81.2723C41.2139 81.2723 40.5875 81.5318 40.1256 81.9937C39.6638 82.4555 39.4043 83.082 39.4043 83.7351V88.6607C39.4043 89.3139 39.6638 89.9403 40.1256 90.4022C40.5875 90.8641 41.2139 91.1235 41.8671 91.1235C42.5203 91.1235 43.1467 90.8641 43.6086 90.4022C44.0704 89.9403 44.3299 89.3139 44.3299 88.6607V83.7351C44.3299 83.082 44.0704 82.4555 43.6086 81.9937C43.1467 81.5318 42.5203 81.2723 41.8671 81.2723Z" fill="#4C4C4C"/>
<path d="M12.3134 98.5119C13.6735 98.5119 14.7762 97.4093 14.7762 96.0491C14.7762 94.6889 13.6735 93.5863 12.3134 93.5863C10.9532 93.5863 9.85059 94.6889 9.85059 96.0491C9.85059 97.4093 10.9532 98.5119 12.3134 98.5119Z" fill="#4C4C4C"/>
<path d="M22.1659 98.5119C23.5261 98.5119 24.6287 97.4093 24.6287 96.0491C24.6287 94.6889 23.5261 93.5863 22.1659 93.5863C20.8058 93.5863 19.7031 94.6889 19.7031 96.0491C19.7031 97.4093 20.8058 98.5119 22.1659 98.5119Z" fill="#4C4C4C"/>
<path d="M32.0155 98.5119C33.3757 98.5119 34.4783 97.4093 34.4783 96.0491C34.4783 94.6889 33.3757 93.5863 32.0155 93.5863C30.6554 93.5863 29.5527 94.6889 29.5527 96.0491C29.5527 97.4093 30.6554 98.5119 32.0155 98.5119Z" fill="#4C4C4C"/>
<path d="M41.8671 98.5119C43.2273 98.5119 44.3299 97.4093 44.3299 96.0491C44.3299 94.6889 43.2273 93.5863 41.8671 93.5863C40.5069 93.5863 39.4043 94.6889 39.4043 96.0491C39.4043 97.4093 40.5069 98.5119 41.8671 98.5119Z" fill="#4C4C4C"/>
<path d="M78.8096 108.363C78.8096 113.234 80.254 117.995 82.9601 122.046C85.6663 126.096 89.5126 129.252 94.0128 131.116C98.513 132.98 103.465 133.468 108.242 132.518C113.02 131.567 117.408 129.222 120.852 125.778C124.296 122.333 126.642 117.945 127.592 113.168C128.543 108.39 128.055 103.438 126.191 98.9382C124.327 94.4381 121.17 90.5917 117.12 87.8855C113.07 85.1794 108.308 83.735 103.438 83.735C96.9081 83.7424 90.6482 86.3395 86.0311 90.9565C81.4141 95.5736 78.817 101.833 78.8096 108.363ZM123.14 108.363C123.14 112.26 121.984 116.069 119.819 119.309C117.655 122.549 114.577 125.074 110.977 126.566C107.377 128.057 103.416 128.447 99.5938 127.687C95.7719 126.927 92.2613 125.05 89.5059 122.295C86.7504 119.539 84.874 116.029 84.1137 112.207C83.3535 108.385 83.7437 104.423 85.2349 100.823C86.7261 97.223 89.2514 94.146 92.4915 91.981C95.7315 89.8161 99.5408 88.6606 103.438 88.6606C108.661 88.6664 113.669 90.7441 117.363 94.4377C121.056 98.1314 123.134 103.139 123.14 108.363Z" fill="#4C4C4C"/>
<path d="M101.388 94.6829L96.9313 101.368L90.3433 103.564C89.945 103.697 89.5873 103.929 89.304 104.239C89.0208 104.549 88.8215 104.926 88.7251 105.334C88.6286 105.743 88.6382 106.17 88.753 106.573C88.8677 106.977 89.0838 107.345 89.3807 107.642L93.5862 111.846V118.214C93.5862 118.66 93.7072 119.098 93.9363 119.48C94.1654 119.862 94.494 120.175 94.887 120.386C95.28 120.596 95.7228 120.696 96.168 120.674C96.6133 120.653 97.0443 120.511 97.4152 120.263L103.437 116.249L109.46 120.263C109.83 120.511 110.261 120.653 110.707 120.674C111.152 120.696 111.595 120.596 111.988 120.386C112.381 120.175 112.709 119.862 112.938 119.48C113.168 119.098 113.289 118.66 113.289 118.214V111.846L117.493 107.642C117.79 107.345 118.006 106.977 118.121 106.573C118.235 106.17 118.245 105.743 118.149 105.334C118.052 104.926 117.853 104.549 117.57 104.239C117.286 103.929 116.929 103.697 116.53 103.564L109.942 101.368L105.485 94.6829C105.26 94.3456 104.956 94.0691 104.598 93.8778C104.241 93.6865 103.842 93.5864 103.436 93.5864C103.031 93.5864 102.632 93.6865 102.274 93.8778C101.917 94.0691 101.612 94.3456 101.387 94.6829H101.388ZM106.314 104.804C106.618 105.259 107.065 105.601 107.584 105.774L111.192 106.977L109.084 109.084C108.856 109.313 108.674 109.585 108.55 109.883C108.427 110.182 108.363 110.503 108.363 110.826V113.613L104.804 111.24C104.399 110.97 103.924 110.826 103.437 110.826C102.951 110.826 102.476 110.97 102.071 111.24L98.5118 113.613V110.826C98.5118 110.503 98.4481 110.182 98.3244 109.883C98.2006 109.585 98.0192 109.313 97.7905 109.084L95.6827 106.978L99.2907 105.775C99.8102 105.602 100.257 105.261 100.561 104.805L103.437 100.489L106.314 104.804Z" fill="#4C4C4C"/>
</svg>
