<svg width="144" height="144" viewBox="0 0 144 144" fill="none" xmlns="http://www.w3.org/2000/svg">
<path d="M136.8 28.8H134.4C134.4 26.2539 133.389 23.8121 131.588 22.0117C129.788 20.2114 127.346 19.2 124.8 19.2C122.254 19.2 119.812 20.2114 118.012 22.0117C116.212 23.8121 115.2 26.2539 115.2 28.8V108C115.2 108.373 115.287 108.74 115.454 109.073L122.654 123.473C122.853 123.872 123.159 124.207 123.539 124.441C123.918 124.676 124.355 124.8 124.8 124.8C125.246 124.8 125.683 124.676 126.062 124.441C126.441 124.207 126.747 123.872 126.947 123.473L134.147 109.073C134.313 108.74 134.4 108.373 134.4 108V33.6H136.8C137.436 33.6007 138.047 33.8538 138.496 34.3037C138.946 34.7536 139.199 35.3636 139.2 36V62.3999C139.2 63.0365 139.453 63.6469 139.903 64.097C140.353 64.5471 140.964 64.7999 141.6 64.7999C142.237 64.7999 142.847 64.5471 143.297 64.097C143.747 63.6469 144 63.0365 144 62.3999V36C143.998 34.0911 143.239 32.261 141.889 30.9112C140.539 29.5615 138.709 28.8022 136.8 28.8ZM124.8 117.033L121.483 110.4H128.117L124.8 117.033ZM129.6 105.6H120V76.7999H129.6V105.6ZM129.6 71.9999H120V67.1999H129.6V71.9999ZM129.6 62.3999H120V33.6H129.6V62.3999ZM120 28.8C120 27.5269 120.506 26.306 121.406 25.4058C122.306 24.5057 123.527 24 124.8 24C126.073 24 127.294 24.5057 128.194 25.4058C129.094 26.306 129.6 27.5269 129.6 28.8H120Z" fill="#7AC1F4"/>
<path d="M71.9992 72H33.5992C32.9627 72 32.3523 72.2529 31.9022 72.7029C31.4521 73.153 31.1992 73.7635 31.1992 74.4C31.1992 75.0365 31.4521 75.647 31.9022 76.0971C32.3523 76.5471 32.9627 76.8 33.5992 76.8H71.9992C72.6357 76.8 73.2462 76.5471 73.6963 76.0971C74.1464 75.647 74.3992 75.0365 74.3992 74.4C74.3992 73.7635 74.1464 73.153 73.6963 72.7029C73.2462 72.2529 72.6357 72 71.9992 72Z" fill="#7AC1F4"/>
<path d="M71.9992 86.4H33.5992C32.9627 86.4 32.3523 86.6529 31.9022 87.103C31.4521 87.5531 31.1992 88.1635 31.1992 88.8C31.1992 89.4365 31.4521 90.047 31.9022 90.4971C32.3523 90.9472 32.9627 91.2 33.5992 91.2H71.9992C72.6357 91.2 73.2462 90.9472 73.6963 90.4971C74.1464 90.047 74.3992 89.4365 74.3992 88.8C74.3992 88.1635 74.1464 87.5531 73.6963 87.103C73.2462 86.6529 72.6357 86.4 71.9992 86.4Z" fill="#7AC1F4"/>
<path d="M71.9992 100.8H33.5992C32.9627 100.8 32.3523 101.053 31.9022 101.503C31.4521 101.953 31.1992 102.564 31.1992 103.2C31.1992 103.837 31.4521 104.447 31.9022 104.897C32.3523 105.347 32.9627 105.6 33.5992 105.6H71.9992C72.6357 105.6 73.2462 105.347 73.6963 104.897C74.1464 104.447 74.3992 103.837 74.3992 103.2C74.3992 102.564 74.1464 101.953 73.6963 101.503C73.2462 101.053 72.6357 100.8 71.9992 100.8Z" fill="#7AC1F4"/>
<path d="M71.9992 115.2H33.5992C32.9627 115.2 32.3523 115.453 31.9022 115.903C31.4521 116.353 31.1992 116.963 31.1992 117.6C31.1992 118.236 31.4521 118.847 31.9022 119.297C32.3523 119.747 32.9627 120 33.5992 120H71.9992C72.6357 120 73.2462 119.747 73.6963 119.297C74.1464 118.847 74.3992 118.236 74.3992 117.6C74.3992 116.963 74.1464 116.353 73.6963 115.903C73.2462 115.453 72.6357 115.2 71.9992 115.2Z" fill="#7AC1F4"/>
<path d="M74.4006 57.6H71.8263C71.3028 54.0133 69.6355 50.6913 67.0724 48.1282C64.5093 45.5651 61.1873 43.8978 57.6006 43.3743V40.8C57.6006 40.1635 57.3477 39.5531 56.8976 39.103C56.4476 38.6529 55.8371 38.4 55.2006 38.4C54.5641 38.4 53.9536 38.6529 53.5035 39.103C53.0534 39.5531 52.8006 40.1635 52.8006 40.8V43.3743C49.2138 43.8978 45.8919 45.5651 43.3288 48.1282C40.7657 50.6913 39.0984 54.0133 38.5749 57.6H36.0006C35.3641 57.6 34.7536 57.8529 34.3035 58.303C33.8534 58.7531 33.6006 59.3635 33.6006 60C33.6006 60.6365 33.8534 61.247 34.3035 61.6971C34.7536 62.1472 35.3641 62.4 36.0006 62.4H74.4006C75.0371 62.4 75.6476 62.1472 76.0976 61.6971C76.5477 61.247 76.8006 60.6365 76.8006 60C76.8006 59.3635 76.5477 58.7531 76.0976 58.303C75.6476 57.8529 75.0371 57.6 74.4006 57.6ZM55.2006 48C57.9659 48.0033 60.6456 48.96 62.7878 50.7087C64.93 52.4575 66.4037 54.8913 66.9606 57.6H43.4436C44.0004 54.8918 45.4737 52.4584 47.6153 50.7097C49.7568 48.961 52.4358 48.004 55.2006 48Z" fill="#7AC1F4"/>
<path d="M23.9996 120C25.3251 120 26.3996 118.925 26.3996 117.6C26.3996 116.274 25.3251 115.2 23.9996 115.2C22.6741 115.2 21.5996 116.274 21.5996 117.6C21.5996 118.925 22.6741 120 23.9996 120Z" fill="#7AC1F4"/>
<path d="M23.9996 105.6C25.3251 105.6 26.3996 104.526 26.3996 103.2C26.3996 101.875 25.3251 100.8 23.9996 100.8C22.6741 100.8 21.5996 101.875 21.5996 103.2C21.5996 104.526 22.6741 105.6 23.9996 105.6Z" fill="#7AC1F4"/>
<path d="M23.9996 91.2C25.3251 91.2 26.3996 90.1255 26.3996 88.8C26.3996 87.4745 25.3251 86.4 23.9996 86.4C22.6741 86.4 21.5996 87.4745 21.5996 88.8C21.5996 90.1255 22.6741 91.2 23.9996 91.2Z" fill="#7AC1F4"/>
<path d="M23.9996 76.8C25.3251 76.8 26.3996 75.7255 26.3996 74.4C26.3996 73.0745 25.3251 72 23.9996 72C22.6741 72 21.5996 73.0745 21.5996 74.4C21.5996 75.7255 22.6741 76.8 23.9996 76.8Z" fill="#7AC1F4"/>
<path d="M81.5996 74.4C81.5996 75.0365 81.8525 75.647 82.3026 76.0971C82.7526 76.5471 83.3631 76.8 83.9996 76.8H86.3996C87.0361 76.8 87.6466 76.5471 88.0967 76.0971C88.5468 75.647 88.7996 75.0365 88.7996 74.4C88.7996 73.7635 88.5468 73.153 88.0967 72.7029C87.6466 72.2529 87.0361 72 86.3996 72H83.9996C83.3631 72 82.7526 72.2529 82.3026 72.7029C81.8525 73.153 81.5996 73.7635 81.5996 74.4Z" fill="#7AC1F4"/>
<path d="M86.4002 86.4H81.6002C80.9637 86.4 80.3532 86.6529 79.9031 87.103C79.453 87.5531 79.2002 88.1635 79.2002 88.8C79.2002 89.4365 79.453 90.047 79.9031 90.4971C80.3532 90.9472 80.9637 91.2 81.6002 91.2H86.4002C87.0367 91.2 87.6472 90.9472 88.0973 90.4971C88.5473 90.047 88.8002 89.4365 88.8002 88.8C88.8002 88.1635 88.5473 87.5531 88.0973 87.103C87.6472 86.6529 87.0367 86.4 86.4002 86.4Z" fill="#7AC1F4"/>
<path d="M86.4002 100.8H81.6002C80.9637 100.8 80.3532 101.053 79.9031 101.503C79.453 101.953 79.2002 102.564 79.2002 103.2C79.2002 103.837 79.453 104.447 79.9031 104.897C80.3532 105.347 80.9637 105.6 81.6002 105.6H86.4002C87.0367 105.6 87.6472 105.347 88.0973 104.897C88.5473 104.447 88.8002 103.837 88.8002 103.2C88.8002 102.564 88.5473 101.953 88.0973 101.503C87.6472 101.053 87.0367 100.8 86.4002 100.8Z" fill="#7AC1F4"/>
<path d="M86.4002 115.2H81.6002C80.9637 115.2 80.3532 115.453 79.9031 115.903C79.453 116.353 79.2002 116.963 79.2002 117.6C79.2002 118.236 79.453 118.847 79.9031 119.297C80.3532 119.747 80.9637 120 81.6002 120H86.4002C87.0367 120 87.6472 119.747 88.0973 119.297C88.5473 118.847 88.8002 118.236 88.8002 117.6C88.8002 116.963 88.5473 116.353 88.0973 115.903C87.6472 115.453 87.0367 115.2 86.4002 115.2Z" fill="#7AC1F4"/>
<path d="M108 4.8H68.3208C67.8253 3.39591 66.9064 2.18015 65.6907 1.32042C64.475 0.460685 63.0226 -0.000665441 61.5336 7.20405e-07H48.8664C47.3774 -0.000665441 45.925 0.460685 44.7093 1.32042C43.4936 2.18015 42.5747 3.39591 42.0792 4.8H2.4C1.76348 4.8 1.15303 5.05286 0.702944 5.50294C0.252856 5.95303 0 6.56348 0 7.2V141.6C0 142.237 0.252856 142.847 0.702944 143.297C1.15303 143.747 1.76348 144 2.4 144H108C108.637 144 109.247 143.747 109.697 143.297C110.147 142.847 110.4 142.237 110.4 141.6V7.2C110.4 6.56348 110.147 5.95303 109.697 5.50294C109.247 5.05286 108.637 4.8 108 4.8ZM96 24V129.6H14.4V24H26.4V31.2C26.4 31.8365 26.6529 32.447 27.1029 32.8971C27.553 33.3471 28.1635 33.6 28.8 33.6H81.6C82.2365 33.6 82.847 33.3471 83.2971 32.8971C83.7471 32.447 84 31.8365 84 31.2V24H96ZM79.2 28.8H31.2V21.6C31.2007 20.9637 31.4538 20.3537 31.9037 19.9037C32.3537 19.4538 32.9637 19.2007 33.6 19.2H76.8C77.4363 19.2007 78.0463 19.4538 78.4963 19.9037C78.9462 20.3537 79.1993 20.9637 79.2 21.6V28.8ZM47.0349 5.6487C47.2586 5.38083 47.5389 5.1658 47.8555 5.01907C48.1722 4.87233 48.5174 4.79752 48.8664 4.8H61.5336C61.8821 4.80014 62.2263 4.87616 62.5425 5.02278C62.8586 5.1694 63.139 5.38311 63.3642 5.64904C63.5894 5.91498 63.754 6.22676 63.8465 6.56272C63.939 6.89869 63.9573 7.25077 63.9 7.5945L62.7666 14.4H47.6331L46.5 7.5945C46.4402 7.25079 46.4571 6.89811 46.5496 6.56171C46.6421 6.22531 46.8078 5.91353 47.0349 5.6487ZM105.6 139.2H4.8V9.6H41.9667L42.7668 14.4H33.6C32.1117 14.4019 30.6604 14.8643 29.4452 15.7237C28.23 16.583 27.3105 17.7973 26.8128 19.2H12C11.3635 19.2 10.753 19.4529 10.3029 19.9029C9.85286 20.353 9.6 20.9635 9.6 21.6V132C9.6 132.637 9.85286 133.247 10.3029 133.697C10.753 134.147 11.3635 134.4 12 134.4H98.4C99.0365 134.4 99.647 134.147 100.097 133.697C100.547 133.247 100.8 132.637 100.8 132V21.6C100.8 20.9635 100.547 20.353 100.097 19.9029C99.647 19.4529 99.0365 19.2 98.4 19.2H83.5872C83.0895 17.7973 82.17 16.583 80.9548 15.7237C79.7396 14.8643 78.2883 14.4019 76.8 14.4H67.6332L68.433 9.6H105.6V139.2Z" fill="#7AC1F4"/>
</svg>
