<svg width="61" height="67" viewBox="0 0 61 67" fill="none" xmlns="http://www.w3.org/2000/svg">
<path d="M33.7168 20.0605C36.2125 17.9261 39.0126 13.9162 39.0506 14.2925C40.5984 13.3736 40.5067 12.8192 40.8022 11.4571C41.4876 7.33432 41.2173 8.53297 38.8344 6.29463C37.3397 3.57717 34.0519 3.81982 31.6032 3.34239C30.8519 2.96324 33.7967 2.5285 32.4315 2.10667C31.635 1.86345 26.8855 2.81271 25.9733 2.45716C25.0193 2.08532 28.1546 1.02092 27.1463 0.765349C24.9679 0.512589 23.1654 2.05162 21.082 1.87356C17.9406 3.12782 13.6251 5.38469 11.9253 8.16113C11.7404 8.61497 11.0824 8.5296 11.0288 8.04261C10.7898 6.66422 10.2156 5.14541 9.8698 3.67322C9.42908 1.79493 7.64502 0.554154 5.73638 0.755801C3.27868 1.0153 0.590847 1.96568 0.632739 2.04769C-0.801666 4.07595 0.537224 6.25026 1.36391 8.33862C6.91776 20.6835 10.3334 34.46 15.8683 46.633C17.4281 50.0514 18.7792 53.5623 19.914 57.1462C22.3566 64.8975 30.2754 70.7767 35.9243 64.0752C36.8738 62.9462 37.581 61.6318 38.0719 60.2371C44.715 41.3829 53.2555 21.9023 60.7035 3.82038C61.276 2.4302 60.322 0.868139 58.8278 0.787255C57.9536 0.738388 57.0214 0.760856 56.2226 0.787255C55.6735 0.806229 55.1396 0.974087 54.6775 1.27308C54.2153 1.57207 53.8422 1.99108 53.5974 2.48581C50.8676 7.9651 48.8976 14.6745 48.6876 20.4807C45.7344 23.8542 44.1704 37.9689 39.899 36.695C40.0856 35.8278 41.8652 34.8414 40.7469 34.1629C39.3433 33.7737 38.4898 36.3659 36.7426 36.2322C33.8642 35.9249 39.3678 34.0831 40.1269 32.7222C42.2182 28.1663 37.0889 33.7894 35.4953 33.9017C17.2859 42.0979 6.5748 11.8374 26.5799 9.01883C28.8422 7.98026 38.4149 7.58708 33.4934 12.3968C31.4741 16.6207 32.0819 17.6127 27.1815 17.9014C22.4337 18.5047 22.4046 26.5458 27.1704 27.0053C30.2866 27.7136 33.1845 25.0837 32.9432 22.5842C33.3241 21.3176 32.5957 20.6908 33.7168 20.0605ZM36.2801 44.4093C34.105 48.6388 30.7458 60.0647 27.6222 54.837C16.4023 36.0597 25.6645 45.509 35.9857 42.4198C37.7402 41.8946 36.5303 43.9285 36.2801 44.4093Z" fill="white"/>
</svg>
