<svg width="166" height="109" viewBox="0 0 166 109" fill="none" xmlns="http://www.w3.org/2000/svg">
<path d="M3 80L61 0L80.7 27.58L81 28L101 0L160 80H144L101 21L82 47L81 48L61 20L18 80H3Z" fill="#00077E"/>
<path d="M44 80L81 28L119 80H104L81 48.61L59 80H44Z" fill="#8B272D"/>
<path d="M20.808 88.816V106H16.56V102.136C16.56 99.656 16.632 96.584 16.776 92.92C16.168 95.496 15.552 97.768 14.928 99.736L12.936 106H9.504L7.488 99.904C6.896 98.128 6.272 95.8 5.616 92.92C5.76 96.184 5.832 99.064 5.832 101.56V106H1.584V88.816H8.016L9.864 94.792C10.408 96.536 10.872 98.528 11.256 100.768C11.784 98.208 12.272 96.184 12.72 94.696L14.472 88.816H20.808ZM33.2554 88.816L39.6874 106H35.0314L33.9274 102.856H27.9754L26.8714 106H22.2634L28.6954 88.816H33.2554ZM32.8954 99.64L32.0794 97.312C31.5994 95.904 31.2314 94.616 30.9754 93.448C30.6554 94.696 30.2634 96 29.7994 97.36L29.0074 99.64H32.8954ZM54.3219 93.976H50.0499C49.9859 92.568 49.0659 91.864 47.2899 91.864C45.7379 91.864 44.9619 92.368 44.9619 93.376C44.9619 93.84 45.1699 94.176 45.5859 94.384C45.9379 94.56 47.0659 94.888 48.9699 95.368C50.7779 95.832 52.0899 96.32 52.9059 96.832C54.3139 97.696 55.0179 98.992 55.0179 100.72C55.0179 102.608 54.2739 104.064 52.7859 105.088C51.4899 105.984 49.7859 106.432 47.6739 106.432C45.1139 106.432 43.1619 105.816 41.8179 104.584C40.6339 103.512 40.0259 102.056 39.9939 100.216H44.5059C44.6019 102.04 45.7139 102.952 47.8419 102.952C49.5859 102.952 50.4579 102.368 50.4579 101.2C50.4579 100.656 50.2259 100.256 49.7619 100C49.3139 99.728 48.1859 99.336 46.3779 98.824C44.1859 98.2 42.7139 97.568 41.9619 96.928C41.0819 96.176 40.6419 95.088 40.6419 93.664C40.6419 91.968 41.3459 90.632 42.7539 89.656C43.9859 88.808 45.5619 88.384 47.4819 88.384C49.7699 88.384 51.5139 88.936 52.7139 90.04C53.7539 91 54.2899 92.312 54.3219 93.976ZM70.8778 88.816V92.68H65.7418V106H61.2778V92.68H56.1658V88.816H70.8778ZM86.6563 88.816V92.512H77.3923V95.368H85.8643V98.896H77.3923V102.304H86.8723V106H72.9043V88.816H86.6563ZM89.3798 88.816H97.8518C99.5958 88.816 100.924 89.088 101.836 89.632C103.388 90.544 104.164 91.928 104.164 93.784C104.164 94.744 103.924 95.6 103.444 96.352C102.964 97.104 102.316 97.648 101.5 97.984C102.22 98.176 102.796 98.608 103.228 99.28C103.516 99.728 103.708 100.192 103.804 100.672C103.916 101.136 104.044 102.2 104.188 103.864C104.3 104.92 104.444 105.576 104.62 105.832L104.764 106H100.18C100.036 105.664 99.8678 104.464 99.6758 102.4C99.5478 101.36 99.2598 100.64 98.8118 100.24C98.3638 99.824 97.6358 99.616 96.6278 99.616H93.8678V106H89.3798V88.816ZM93.8678 92.344V96.4H97.0358C98.8438 96.4 99.7478 95.712 99.7478 94.336C99.7478 93.008 98.8278 92.344 96.9878 92.344H93.8678ZM124.363 102.136V106H111.811V88.816H116.299V102.136H124.363ZM131.111 88.816V106H126.623V88.816H131.111ZM146.96 88.816V92.512H138.752V95.872H145.856V99.376H138.752V106H134.264V88.816H146.96ZM162.518 88.816V92.68H157.382V106H152.918V92.68H147.806V88.816H162.518Z" fill="#4C4C4C"/>
</svg>
