<svg width="194" height="154" viewBox="0 0 194 154" fill="none" xmlns="http://www.w3.org/2000/svg">
<path d="M9.66138 6.2666H55.138C61.3577 6.2666 67.2046 8.6884 71.6018 13.0853L112.22 53.7035V43.2188C112.22 39.699 113.592 36.3864 116.086 33.8874C118.581 31.3974 121.894 30.0262 125.413 30.0262C132.688 30.0262 138.606 35.9443 138.606 43.2188V80.0888L148.636 90.1189C151.959 93.4424 156.379 95.2731 161.081 95.2731H183.704C189.031 95.2731 193.365 99.6072 193.365 104.935V144.338C193.365 149.666 189.031 154 183.704 154H173.224C171.655 154 170.382 152.727 170.382 151.158C170.382 149.589 171.655 148.316 173.224 148.316H183.704C185.898 148.316 187.682 146.532 187.682 144.338V104.935C187.682 102.741 185.898 100.956 183.704 100.956H161.081C154.861 100.956 149.014 98.5345 144.617 94.1376L67.5831 17.1037C64.2595 13.7802 59.8395 11.9494 55.138 11.9494H9.66138C7.46765 11.9494 5.68312 13.734 5.68312 15.9277V34.9247C5.68312 36.494 4.41122 37.7663 2.84152 37.7663C1.27182 37.7663 -7.62939e-05 36.494 -7.62939e-05 34.9247V15.928C-7.62939e-05 10.6006 4.33432 6.2666 9.66138 6.2666ZM132.922 43.2188C132.922 39.078 129.554 35.7094 125.413 35.7094C123.409 35.7094 121.522 36.491 120.104 37.9061C118.685 39.3281 117.903 41.2149 117.903 43.2188V59.3867L132.922 74.4056V43.2188H132.922Z" fill="white"/>
<path d="M2.84145 45.3442C4.41115 45.3442 5.68304 46.6165 5.68304 48.1858V55.3315C5.68304 57.5252 7.46758 59.3098 9.66129 59.3098H33.167C39.3863 59.3098 45.2336 61.7316 49.6305 66.1285L126.664 143.162C129.988 146.486 134.408 148.317 139.11 148.317H159.963C161.532 148.317 162.805 149.589 162.805 151.158C162.805 152.728 161.532 154 159.963 154H139.11C132.89 154 127.043 151.578 122.646 147.181L45.6117 70.1473C42.2882 66.8237 37.8685 64.993 33.167 64.993H9.66129C4.33386 64.993 -0.000152588 60.659 -0.000152588 55.3315V48.1858C-0.000152588 46.6165 1.27213 45.3442 2.84145 45.3442Z" fill="white"/>
<path d="M125.412 26.3845C118.138 26.3845 112.22 20.4664 112.22 13.1922C112.22 5.91811 118.138 0 125.412 0C132.686 0 138.604 5.91811 138.604 13.1922C138.604 20.4664 132.687 26.3845 125.412 26.3845ZM125.412 5.68282C121.272 5.68282 117.903 9.05145 117.903 13.1919C117.903 17.3323 121.272 20.7009 125.412 20.7009C129.553 20.7009 132.921 17.3323 132.921 13.1919C132.921 9.05145 129.553 5.68282 125.412 5.68282Z" fill="white"/>
<path d="M118.231 101.037C117.676 101.592 116.949 101.87 116.222 101.87C115.495 101.87 114.767 101.593 114.212 101.037L76.1441 62.9691V77.6367C76.1441 79.206 74.8722 80.4783 73.3025 80.4783C71.7328 80.4783 70.4609 79.206 70.4609 77.6367V56.1087C70.4609 54.5394 71.7328 53.2671 73.3025 53.2671H94.8305C96.3998 53.2671 97.6721 54.5394 97.6721 56.1087C97.6721 57.678 96.3998 58.9503 94.8305 58.9503H80.1625L118.231 97.019C119.341 98.1288 119.341 99.9281 118.231 101.037Z" fill="white"/>
</svg>
