<svg width="155" height="187" viewBox="0 0 155 187" fill="none" xmlns="http://www.w3.org/2000/svg">
<path d="M2.37563 187H152.601C153.891 187 155 186.143 155 184.853V172.975C154.986 172.349 154.726 171.753 154.278 171.316C153.829 170.879 153.227 170.635 152.601 170.637H141.369V115.706H152.663C153.283 115.706 153.877 115.46 154.316 115.022C154.754 114.583 155 113.989 155 113.369V75.5792C155 74.9592 154.754 74.3647 154.316 73.9263C153.877 73.4879 153.283 73.2417 152.663 73.2417H141.369V2.1466C141.369 0.855525 140.327 0 139.037 0H15.944C14.6537 0 13.6307 0.857083 13.6307 2.1466V170.637H2.37563C1.75183 170.636 1.1526 170.881 0.70788 171.318C0.26316 171.756 0.00881292 172.351 0 172.975V184.853C0 186.143 1.085 187 2.37563 187ZM150.327 77.9167V111.031H129.296V77.9167H150.327ZM18.304 4.675H136.696V73.2417H126.96C126.34 73.2417 125.746 73.4879 125.308 73.9263C124.869 74.3647 124.623 74.9592 124.623 75.5792V113.369C124.623 113.989 124.869 114.583 125.308 115.022C125.746 115.46 126.34 115.706 126.96 115.706H136.696V170.637H121.508V29.6901C121.517 29.0645 121.28 28.4602 120.848 28.0077C120.416 27.5551 119.823 27.2905 119.198 27.2708H35.7785C35.1557 27.2916 34.5663 27.5574 34.1383 28.0103C33.7102 28.4633 33.4782 29.067 33.4925 29.6901V170.637H18.304V4.675ZM54.9748 43.6333C54.355 43.6333 53.7607 43.8796 53.3225 44.318C52.8843 44.7563 52.6381 45.3509 52.6381 45.9708C52.6381 46.5908 52.8843 47.1853 53.3225 47.6237C53.7607 48.0621 54.355 48.3083 54.9748 48.3083H69.3216V170.637H38.1658V48.3083H45.1132C45.7329 48.3083 46.3272 48.0621 46.7655 47.6237C47.2037 47.1853 47.4499 46.5908 47.4499 45.9708C47.4499 45.3509 47.2037 44.7563 46.7655 44.318C46.3272 43.8796 45.7329 43.6333 45.1132 43.6333H38.1658V31.9458H116.834V43.6333H54.9748ZM116.834 48.3083V170.637H85.6784V48.3083H116.834ZM81.005 48.3083V170.637H73.995V48.3083H81.005ZM4.67337 175.312H150.327V182.325H4.67337V175.312Z" fill="white"/>
</svg>
